<mxfile host="app.diagrams.net" modified="2021-06-27T15:36:38.706Z" agent="5.0 (X11)" etag="X6oUko624FysW_N68frJ" version="14.8.1" type="github" pages="2">
  <diagram id="S2jBDGMZTfLZOEU3KDfl" name="Page-1">
    <mxGraphModel dx="1634" dy="761" grid="1" gridSize="10" guides="1" tooltips="1" connect="1" arrows="1" fold="1" page="1" pageScale="1" pageWidth="4681" pageHeight="3300" math="1" shadow="0">
      <root>
        <mxCell id="0" />
        <mxCell id="1" parent="0" />
        <mxCell id="ycgSQVnb8Eu3qLplw12D-3" value="" style="edgeStyle=orthogonalEdgeStyle;rounded=0;orthogonalLoop=1;jettySize=auto;html=1;" parent="1" source="ycgSQVnb8Eu3qLplw12D-1" target="ycgSQVnb8Eu3qLplw12D-2" edge="1">
          <mxGeometry relative="1" as="geometry">
            <mxPoint x="660" y="595" as="sourcePoint" />
          </mxGeometry>
        </mxCell>
        <mxCell id="ycgSQVnb8Eu3qLplw12D-5" value="" style="edgeStyle=orthogonalEdgeStyle;rounded=0;orthogonalLoop=1;jettySize=auto;html=1;exitX=1;exitY=0.5;exitDx=0;exitDy=0;" parent="1" source="ycgSQVnb8Eu3qLplw12D-1" target="ycgSQVnb8Eu3qLplw12D-4" edge="1">
          <mxGeometry relative="1" as="geometry">
            <mxPoint x="1440" y="615" as="sourcePoint" />
          </mxGeometry>
        </mxCell>
        <mxCell id="ycgSQVnb8Eu3qLplw12D-1" value="&lt;div&gt;&lt;b&gt;Inference:&lt;/b&gt;&lt;/div&gt;&lt;div&gt;given a sample infer correct characterization of distribution&lt;b&gt;&lt;br&gt;&lt;/b&gt;&lt;/div&gt;" style="process;whiteSpace=wrap;html=1;fillColor=#f8cecc;strokeColor=#b85450;" parent="1" vertex="1">
          <mxGeometry x="970" y="550" width="160" height="90" as="geometry" />
        </mxCell>
        <mxCell id="tAZWQw_xvtE8fRC8TVs--6" value="" style="edgeStyle=orthogonalEdgeStyle;rounded=0;orthogonalLoop=1;jettySize=auto;html=1;" parent="1" source="ycgSQVnb8Eu3qLplw12D-2" target="tAZWQw_xvtE8fRC8TVs--5" edge="1">
          <mxGeometry relative="1" as="geometry" />
        </mxCell>
        <mxCell id="tAZWQw_xvtE8fRC8TVs--8" value="" style="edgeStyle=orthogonalEdgeStyle;rounded=0;orthogonalLoop=1;jettySize=auto;html=1;" parent="1" source="ycgSQVnb8Eu3qLplw12D-2" target="tAZWQw_xvtE8fRC8TVs--7" edge="1">
          <mxGeometry relative="1" as="geometry" />
        </mxCell>
        <mxCell id="tAZWQw_xvtE8fRC8TVs--12" value="" style="edgeStyle=orthogonalEdgeStyle;rounded=0;orthogonalLoop=1;jettySize=auto;html=1;" parent="1" source="ycgSQVnb8Eu3qLplw12D-2" target="tAZWQw_xvtE8fRC8TVs--11" edge="1">
          <mxGeometry relative="1" as="geometry" />
        </mxCell>
        <mxCell id="ycgSQVnb8Eu3qLplw12D-2" value="Non-parametric inference problems" style="ellipse;whiteSpace=wrap;html=1;fillColor=#ffe6cc;strokeColor=#d79b00;" parent="1" vertex="1">
          <mxGeometry x="630" y="820" width="160" height="90" as="geometry" />
        </mxCell>
        <mxCell id="tAZWQw_xvtE8fRC8TVs--10" value="" style="edgeStyle=orthogonalEdgeStyle;rounded=0;orthogonalLoop=1;jettySize=auto;html=1;" parent="1" source="ycgSQVnb8Eu3qLplw12D-4" target="tAZWQw_xvtE8fRC8TVs--9" edge="1">
          <mxGeometry relative="1" as="geometry" />
        </mxCell>
        <mxCell id="tAZWQw_xvtE8fRC8TVs--16" value="" style="edgeStyle=orthogonalEdgeStyle;rounded=0;orthogonalLoop=1;jettySize=auto;html=1;" parent="1" source="ycgSQVnb8Eu3qLplw12D-4" target="tAZWQw_xvtE8fRC8TVs--15" edge="1">
          <mxGeometry relative="1" as="geometry">
            <Array as="points">
              <mxPoint x="1460" y="560" />
              <mxPoint x="1550" y="560" />
            </Array>
          </mxGeometry>
        </mxCell>
        <mxCell id="tAZWQw_xvtE8fRC8TVs--30" value="" style="edgeStyle=orthogonalEdgeStyle;rounded=0;orthogonalLoop=1;jettySize=auto;html=1;" parent="1" source="ycgSQVnb8Eu3qLplw12D-4" target="tAZWQw_xvtE8fRC8TVs--29" edge="1">
          <mxGeometry relative="1" as="geometry" />
        </mxCell>
        <mxCell id="ycgSQVnb8Eu3qLplw12D-4" value="&lt;div&gt;&lt;b&gt;Parametric inference problems&lt;/b&gt;:&lt;/div&gt;&lt;div&gt;inference focuses on parameter estimation&lt;br&gt;&lt;/div&gt;" style="ellipse;whiteSpace=wrap;html=1;fillColor=#ffe6cc;strokeColor=#d79b00;" parent="1" vertex="1">
          <mxGeometry x="1330" y="680" width="160" height="90" as="geometry" />
        </mxCell>
        <mxCell id="tAZWQw_xvtE8fRC8TVs--5" value="&lt;div style=&quot;font-size: 11px&quot;&gt;&lt;font style=&quot;font-size: 11px&quot;&gt;Assumes parametrized family but &lt;b&gt;parameters not focus of inference&lt;/b&gt;:&lt;/font&gt;&lt;/div&gt;&lt;div style=&quot;font-size: 11px&quot;&gt;&lt;font style=&quot;font-size: 11px&quot;&gt;&lt;br&gt;&lt;/font&gt;&lt;/div&gt;&lt;div style=&quot;font-size: 11px&quot;&gt;&lt;font style=&quot;font-size: 11px&quot;&gt;Question: Is &lt;b&gt;X &lt;/b&gt;normally distributed at all?&lt;br&gt;&lt;/font&gt;&lt;/div&gt;" style="whiteSpace=wrap;html=1;fillColor=#d5e8d4;strokeColor=#82b366;" parent="1" vertex="1">
          <mxGeometry x="625" y="967.5" width="170" height="85" as="geometry" />
        </mxCell>
        <mxCell id="tAZWQw_xvtE8fRC8TVs--7" value="&lt;div&gt;Little to no assumptions about &lt;i&gt;F&lt;b&gt;, &lt;br&gt;&lt;/b&gt;&lt;/i&gt;&lt;/div&gt;&lt;div&gt;&lt;b&gt;distribution free infrence, &lt;br&gt;&lt;/b&gt;&lt;/div&gt;&lt;div&gt;&lt;b&gt;&lt;br&gt;&lt;/b&gt;&lt;/div&gt;&lt;div&gt;Question: are two distributions identical? (&lt;i&gt;Goodness of fit test&lt;/i&gt;)&lt;br&gt;&lt;/div&gt;" style="whiteSpace=wrap;html=1;fillColor=#d5e8d4;strokeColor=#82b366;" parent="1" vertex="1">
          <mxGeometry x="600" y="690" width="220" height="85" as="geometry" />
        </mxCell>
        <mxCell id="tAZWQw_xvtE8fRC8TVs--9" value="&lt;div&gt;&lt;b&gt;assumes X follows family of distributions \(F_{\theta}\)&lt;span&gt;&lt;/span&gt;&lt;/b&gt;&lt;/div&gt;&lt;div&gt;&lt;br&gt;&lt;/div&gt;&lt;div&gt;Example: bianry medical treatment outcome, measurements i.i.d.&lt;br&gt;&lt;/div&gt;" style="whiteSpace=wrap;html=1;fillColor=#d5e8d4;strokeColor=#82b366;" parent="1" vertex="1">
          <mxGeometry x="1280" y="820" width="260" height="60" as="geometry" />
        </mxCell>
        <mxCell id="tAZWQw_xvtE8fRC8TVs--11" value="&lt;div style=&quot;font-size: 10px&quot;&gt;&lt;font style=&quot;font-size: 10px&quot;&gt;&lt;b&gt;Example:&lt;/b&gt; adding substrate two cell cultures and counting distribution of some property (T=cell count). &lt;br&gt;&lt;/font&gt;&lt;/div&gt;&lt;div style=&quot;font-size: 10px&quot;&gt;&lt;font style=&quot;font-size: 10px&quot;&gt;&lt;br&gt;&lt;/font&gt;&lt;/div&gt;&lt;div style=&quot;font-size: 10px&quot;&gt;&lt;font style=&quot;font-size: 10px&quot;&gt;&lt;b&gt;Has distribution shifted? (Mann-Whitney t-test for significance)&lt;/b&gt;&lt;/font&gt;&lt;/div&gt;" style="whiteSpace=wrap;html=1;fillColor=#d5e8d4;strokeColor=#82b366;" parent="1" vertex="1">
          <mxGeometry x="290" y="832.5" width="270" height="65" as="geometry" />
        </mxCell>
        <mxCell id="tAZWQw_xvtE8fRC8TVs--18" value="" style="edgeStyle=orthogonalEdgeStyle;rounded=0;orthogonalLoop=1;jettySize=auto;html=1;entryX=0;entryY=0.5;entryDx=0;entryDy=0;" parent="1" source="tAZWQw_xvtE8fRC8TVs--15" target="tAZWQw_xvtE8fRC8TVs--17" edge="1">
          <mxGeometry relative="1" as="geometry">
            <mxPoint x="1690" y="280" as="targetPoint" />
          </mxGeometry>
        </mxCell>
        <mxCell id="tAZWQw_xvtE8fRC8TVs--20" value="" style="edgeStyle=orthogonalEdgeStyle;rounded=0;orthogonalLoop=1;jettySize=auto;html=1;" parent="1" source="tAZWQw_xvtE8fRC8TVs--15" target="tAZWQw_xvtE8fRC8TVs--19" edge="1">
          <mxGeometry relative="1" as="geometry" />
        </mxCell>
        <mxCell id="tAZWQw_xvtE8fRC8TVs--28" value="" style="edgeStyle=orthogonalEdgeStyle;rounded=0;orthogonalLoop=1;jettySize=auto;html=1;" parent="1" source="tAZWQw_xvtE8fRC8TVs--15" target="tAZWQw_xvtE8fRC8TVs--27" edge="1">
          <mxGeometry relative="1" as="geometry" />
        </mxCell>
        <mxCell id="tAZWQw_xvtE8fRC8TVs--15" value="&lt;div&gt;&lt;b&gt;Likelihood principle:&lt;/b&gt;&lt;/div&gt;&lt;div&gt;reuse density function but swap role of data &lt;i&gt;x &lt;/i&gt;and \(\theta\)&lt;/div&gt;&lt;div&gt;&lt;br&gt;&lt;/div&gt;&lt;div&gt;\(\theta \rightarrow L(\theta; x):= f(x;\theta)\)&lt;/div&gt;&lt;div&gt;&lt;br&gt;&lt;/div&gt;&lt;div&gt;describes probability for parameter given &lt;i&gt;x&lt;/i&gt;, any multiple of &lt;i&gt;L, &lt;/i&gt;contains the same info, since interested in ratios or maximas&lt;br&gt;&lt;/div&gt;" style="whiteSpace=wrap;html=1;fillColor=#d5e8d4;strokeColor=#82b366;" parent="1" vertex="1">
          <mxGeometry x="1450" y="310" width="195" height="160" as="geometry" />
        </mxCell>
        <mxCell id="tAZWQw_xvtE8fRC8TVs--33" style="edgeStyle=orthogonalEdgeStyle;rounded=0;orthogonalLoop=1;jettySize=auto;html=1;entryX=0;entryY=0.5;entryDx=0;entryDy=0;" parent="1" source="tAZWQw_xvtE8fRC8TVs--17" target="tAZWQw_xvtE8fRC8TVs--21" edge="1">
          <mxGeometry relative="1" as="geometry" />
        </mxCell>
        <mxCell id="tAZWQw_xvtE8fRC8TVs--17" value="&lt;div&gt;Likelihood ratios:&lt;/div&gt;&lt;div&gt;\(LR_{\theta_1, \theta_2} = \frac{L(\theta_1; x)}{L(\theta_2; x)}\)&lt;/div&gt;" style="whiteSpace=wrap;html=1;fillColor=#e1d5e7;strokeColor=#9673a6;" parent="1" vertex="1">
          <mxGeometry x="1710" y="360" width="120" height="60" as="geometry" />
        </mxCell>
        <mxCell id="tAZWQw_xvtE8fRC8TVs--19" value="&lt;div&gt;&lt;b&gt;Law of likelihood:&lt;/b&gt;&lt;/div&gt;&lt;div&gt;given hypothesis A,B, data is evidence for one over other only if likelihood bigger.&lt;/div&gt;&lt;div&gt;&lt;br&gt;&lt;/div&gt;&lt;div&gt;Likelihood measures &lt;b&gt;strength of evidence, &lt;/b&gt;LP states evidence contained solely in likelihood&lt;br&gt;&lt;/div&gt;" style="whiteSpace=wrap;html=1;fillColor=#e1d5e7;strokeColor=#9673a6;" parent="1" vertex="1">
          <mxGeometry x="1427.5" y="160" width="240" height="100" as="geometry" />
        </mxCell>
        <mxCell id="tAZWQw_xvtE8fRC8TVs--32" style="edgeStyle=orthogonalEdgeStyle;rounded=0;orthogonalLoop=1;jettySize=auto;html=1;" parent="1" source="tAZWQw_xvtE8fRC8TVs--21" target="tAZWQw_xvtE8fRC8TVs--29" edge="1">
          <mxGeometry relative="1" as="geometry" />
        </mxCell>
        <mxCell id="tAZWQw_xvtE8fRC8TVs--21" value="&lt;div&gt;&lt;b&gt;Maximum Likelihood estimation &lt;/b&gt;to estimate parameter \( \bar{x&lt;span style=&quot;white-space: pre&quot;&gt;&lt;/span&gt;} \) ,&lt;/div&gt;&lt;div&gt;find &lt;b&gt;local&lt;/b&gt; max (first derivative = 0 and second &amp;lt; 0)&lt;br&gt;&lt;/div&gt;&lt;b&gt;&lt;/b&gt;" style="whiteSpace=wrap;html=1;" parent="1" vertex="1">
          <mxGeometry x="1930" y="340" width="180" height="100" as="geometry" />
        </mxCell>
        <mxCell id="tAZWQw_xvtE8fRC8TVs--27" value="&lt;div&gt;&lt;b&gt;Likelihood &amp;amp; Random sampling:&lt;/b&gt;&lt;/div&gt;&lt;div&gt;product of individual samples&lt;br&gt;&lt;/div&gt;" style="whiteSpace=wrap;html=1;fillColor=#e1d5e7;strokeColor=#9673a6;" parent="1" vertex="1">
          <mxGeometry x="1250" y="360" width="120" height="60" as="geometry" />
        </mxCell>
        <mxCell id="tAZWQw_xvtE8fRC8TVs--37" value="" style="edgeStyle=orthogonalEdgeStyle;rounded=0;orthogonalLoop=1;jettySize=auto;html=1;" parent="1" source="tAZWQw_xvtE8fRC8TVs--29" target="tAZWQw_xvtE8fRC8TVs--36" edge="1">
          <mxGeometry relative="1" as="geometry" />
        </mxCell>
        <mxCell id="p-n9qRZgdwb2KchWZkyc-11" style="edgeStyle=orthogonalEdgeStyle;rounded=0;orthogonalLoop=1;jettySize=auto;html=1;entryX=0.444;entryY=0.011;entryDx=0;entryDy=0;entryPerimeter=0;" parent="1" source="tAZWQw_xvtE8fRC8TVs--29" target="tAZWQw_xvtE8fRC8TVs--34" edge="1">
          <mxGeometry relative="1" as="geometry" />
        </mxCell>
        <mxCell id="tAZWQw_xvtE8fRC8TVs--29" value="&lt;div&gt;&lt;br&gt;&lt;/div&gt;&lt;div&gt;&lt;br&gt;&lt;/div&gt;&lt;div&gt;Estimators:&lt;/div&gt;&lt;div&gt;define what good PE means, generally&lt;/div&gt;&lt;div&gt;&lt;b&gt;A rule &lt;i&gt;T&lt;/i&gt; describing how to calc an estimate for theroetical param val from data &lt;i&gt;x&lt;/i&gt;&lt;/b&gt;&lt;/div&gt;&lt;div&gt;\( T(X_1,X_2, ... , X_n) = \hat{\theta}\)&lt;b&gt;&lt;i&gt;&lt;br&gt;&lt;/i&gt;&lt;/b&gt;&lt;/div&gt;&lt;div&gt;&lt;b&gt;&lt;i&gt;&lt;br&gt;&lt;/i&gt;&lt;/b&gt;&lt;/div&gt;&lt;div&gt;&lt;i&gt;&lt;br&gt;&lt;/i&gt;&lt;/div&gt;&lt;div&gt;&lt;b&gt;&lt;i&gt;&lt;/i&gt;&lt;/b&gt;&lt;br&gt;&lt;/div&gt;" style="ellipse;whiteSpace=wrap;html=1;fillColor=#d5e8d4;strokeColor=#82b366;" parent="1" vertex="1">
          <mxGeometry x="1890" y="660" width="260" height="130" as="geometry" />
        </mxCell>
        <mxCell id="tAZWQw_xvtE8fRC8TVs--41" value="" style="edgeStyle=orthogonalEdgeStyle;rounded=0;orthogonalLoop=1;jettySize=auto;html=1;exitX=0.5;exitY=1;exitDx=0;exitDy=0;" parent="1" source="tAZWQw_xvtE8fRC8TVs--34" target="tAZWQw_xvtE8fRC8TVs--40" edge="1">
          <mxGeometry relative="1" as="geometry">
            <mxPoint x="2027.5" y="1160" as="sourcePoint" />
          </mxGeometry>
        </mxCell>
        <mxCell id="p-n9qRZgdwb2KchWZkyc-4" value="" style="edgeStyle=orthogonalEdgeStyle;rounded=0;orthogonalLoop=1;jettySize=auto;html=1;" parent="1" source="tAZWQw_xvtE8fRC8TVs--34" target="p-n9qRZgdwb2KchWZkyc-3" edge="1">
          <mxGeometry relative="1" as="geometry" />
        </mxCell>
        <mxCell id="tAZWQw_xvtE8fRC8TVs--34" value="&lt;div&gt;&lt;b&gt;Point estimators &lt;/b&gt;and&lt;b&gt; Interval estimators (&lt;/b&gt;probability to find true param within interval&lt;b&gt; ),&lt;/b&gt;&lt;/div&gt;&lt;div&gt;&lt;b&gt;PE themselves RVs! &lt;br&gt;&lt;/b&gt;&lt;/div&gt;" style="whiteSpace=wrap;html=1;fillColor=#e1d5e7;strokeColor=#9673a6;" parent="1" vertex="1">
          <mxGeometry x="1952.5" y="959.99" width="150" height="92.5" as="geometry" />
        </mxCell>
        <mxCell id="K2KhxqsfXJvNr6pBZJx8-2" value="" style="edgeStyle=orthogonalEdgeStyle;rounded=0;orthogonalLoop=1;jettySize=auto;html=1;" parent="1" source="tAZWQw_xvtE8fRC8TVs--36" target="K2KhxqsfXJvNr6pBZJx8-1" edge="1">
          <mxGeometry relative="1" as="geometry" />
        </mxCell>
        <mxCell id="tAZWQw_xvtE8fRC8TVs--36" value="&lt;b&gt;Interval estimator&lt;/b&gt;" style="whiteSpace=wrap;html=1;fillColor=#e1d5e7;strokeColor=#9673a6;" parent="1" vertex="1">
          <mxGeometry x="2460" y="695" width="120" height="60" as="geometry" />
        </mxCell>
        <mxCell id="tAZWQw_xvtE8fRC8TVs--43" value="" style="edgeStyle=orthogonalEdgeStyle;rounded=0;orthogonalLoop=1;jettySize=auto;html=1;" parent="1" source="tAZWQw_xvtE8fRC8TVs--40" target="tAZWQw_xvtE8fRC8TVs--42" edge="1">
          <mxGeometry relative="1" as="geometry" />
        </mxCell>
        <mxCell id="tAZWQw_xvtE8fRC8TVs--47" value="" style="edgeStyle=orthogonalEdgeStyle;rounded=0;orthogonalLoop=1;jettySize=auto;html=1;" parent="1" source="tAZWQw_xvtE8fRC8TVs--40" target="tAZWQw_xvtE8fRC8TVs--46" edge="1">
          <mxGeometry relative="1" as="geometry" />
        </mxCell>
        <mxCell id="hHRhIhDRTpSFWYAxkZh6-2" value="" style="edgeStyle=orthogonalEdgeStyle;rounded=0;orthogonalLoop=1;jettySize=auto;html=1;" parent="1" source="tAZWQw_xvtE8fRC8TVs--40" target="hHRhIhDRTpSFWYAxkZh6-1" edge="1">
          <mxGeometry relative="1" as="geometry" />
        </mxCell>
        <mxCell id="tAZWQw_xvtE8fRC8TVs--40" value="Quality criteria" style="ellipse;whiteSpace=wrap;html=1;fillColor=#f8cecc;strokeColor=#b85450;" parent="1" vertex="1">
          <mxGeometry x="1967.5" y="1207.5" width="120" height="60" as="geometry" />
        </mxCell>
        <mxCell id="tAZWQw_xvtE8fRC8TVs--42" value="&lt;div style=&quot;font-size: 11px&quot;&gt;&lt;b&gt;&lt;font style=&quot;font-size: 11px&quot;&gt;Unbiasedness:&lt;/font&gt;&lt;/b&gt;&lt;/div&gt;&lt;div style=&quot;font-size: 11px&quot; align=&quot;center&quot;&gt;&lt;font style=&quot;font-size: 11px&quot;&gt;\( E[ T(X_1,X_2, ... , X_n)] = E[\hat{\theta}] = E[\theta] \)&lt;span&gt;&lt;/span&gt;&lt;/font&gt;&lt;/div&gt;" style="ellipse;whiteSpace=wrap;html=1;fillColor=#ffe6cc;strokeColor=#d79b00;" parent="1" vertex="1">
          <mxGeometry x="1667.5" y="1191.25" width="230" height="92.5" as="geometry" />
        </mxCell>
        <mxCell id="tAZWQw_xvtE8fRC8TVs--46" value="&lt;div&gt;&lt;b&gt;&lt;br&gt;&lt;/b&gt;&lt;/div&gt;&lt;div&gt;&lt;b&gt;Consistency:&lt;/b&gt;Distribution concentrates around true param val with increasing sample size&lt;/div&gt;&lt;div&gt;&lt;br&gt;&lt;/div&gt;" style="ellipse;whiteSpace=wrap;html=1;fillColor=#ffe6cc;strokeColor=#d79b00;" parent="1" vertex="1">
          <mxGeometry x="1927.5" y="1347.5" width="200" height="60" as="geometry" />
        </mxCell>
        <mxCell id="hHRhIhDRTpSFWYAxkZh6-4" value="" style="edgeStyle=orthogonalEdgeStyle;rounded=0;orthogonalLoop=1;jettySize=auto;html=1;" parent="1" source="hHRhIhDRTpSFWYAxkZh6-1" target="hHRhIhDRTpSFWYAxkZh6-3" edge="1">
          <mxGeometry relative="1" as="geometry" />
        </mxCell>
        <mxCell id="hHRhIhDRTpSFWYAxkZh6-1" value="&lt;div&gt;&lt;b&gt;Efficiency:&lt;/b&gt;&lt;/div&gt;&lt;div&gt;smaller variablity given fixed &lt;i&gt;n&lt;/i&gt; shows efficiency, can still be biased&lt;/div&gt;" style="ellipse;whiteSpace=wrap;html=1;fillColor=#ffe6cc;strokeColor=#d79b00;" parent="1" vertex="1">
          <mxGeometry x="2240.01" y="1196.25" width="160" height="82.5" as="geometry" />
        </mxCell>
        <mxCell id="hHRhIhDRTpSFWYAxkZh6-3" value="&lt;div&gt;&lt;b&gt;standard error: &lt;/b&gt;std of estimator distribution &lt;/div&gt;&lt;div&gt;\( \frac{SD}{\sqrt{n}} \)&lt;/div&gt;&lt;div&gt;&lt;ul&gt;&lt;li&gt;&lt;div align=&quot;left&quot;&gt;indicated efficiency&lt;/div&gt;&lt;/li&gt;&lt;li&gt;&lt;div align=&quot;left&quot;&gt;measures efficiency&lt;/div&gt;&lt;/li&gt;&lt;li&gt;&lt;div align=&quot;left&quot;&gt;&lt;b&gt;depends on sample size&lt;/b&gt;&lt;/div&gt;&lt;/li&gt;&lt;/ul&gt;&lt;div&gt;having the mean of the sample and estimator implies unbiasedness&lt;br&gt;&lt;/div&gt;&lt;/div&gt;" style="whiteSpace=wrap;html=1;" parent="1" vertex="1">
          <mxGeometry x="2185.32" y="1329" width="269.37" height="160" as="geometry" />
        </mxCell>
        <mxCell id="p-n9qRZgdwb2KchWZkyc-6" value="" style="edgeStyle=orthogonalEdgeStyle;rounded=0;orthogonalLoop=1;jettySize=auto;html=1;" parent="1" source="p-n9qRZgdwb2KchWZkyc-3" target="p-n9qRZgdwb2KchWZkyc-5" edge="1">
          <mxGeometry relative="1" as="geometry" />
        </mxCell>
        <mxCell id="p-n9qRZgdwb2KchWZkyc-8" value="" style="edgeStyle=orthogonalEdgeStyle;rounded=0;orthogonalLoop=1;jettySize=auto;html=1;" parent="1" source="p-n9qRZgdwb2KchWZkyc-3" target="p-n9qRZgdwb2KchWZkyc-7" edge="1">
          <mxGeometry relative="1" as="geometry" />
        </mxCell>
        <mxCell id="p-n9qRZgdwb2KchWZkyc-10" value="" style="edgeStyle=orthogonalEdgeStyle;rounded=0;orthogonalLoop=1;jettySize=auto;html=1;" parent="1" source="p-n9qRZgdwb2KchWZkyc-3" target="p-n9qRZgdwb2KchWZkyc-9" edge="1">
          <mxGeometry relative="1" as="geometry" />
        </mxCell>
        <mxCell id="p-n9qRZgdwb2KchWZkyc-3" value="Examples" style="whiteSpace=wrap;html=1;strokeColor=#b85450;fillColor=#f8cecc;" parent="1" vertex="1">
          <mxGeometry x="2200" y="976.24" width="120" height="60" as="geometry" />
        </mxCell>
        <mxCell id="p-n9qRZgdwb2KchWZkyc-5" value="Relative frequency" style="ellipse;whiteSpace=wrap;html=1;strokeColor=#d79b00;fillColor=#ffe6cc;" parent="1" vertex="1">
          <mxGeometry x="2200" y="1070" width="120" height="60" as="geometry" />
        </mxCell>
        <mxCell id="p-n9qRZgdwb2KchWZkyc-7" value="Arithmetic mean" style="ellipse;whiteSpace=wrap;html=1;strokeColor=#d79b00;fillColor=#ffe6cc;" parent="1" vertex="1">
          <mxGeometry x="2200" y="870" width="120" height="60" as="geometry" />
        </mxCell>
        <mxCell id="p-n9qRZgdwb2KchWZkyc-9" value="&lt;div&gt;Empirical variance:&lt;/div&gt;&lt;div&gt;(n-1) ensures unbiacedness&lt;br&gt;&lt;/div&gt;" style="ellipse;whiteSpace=wrap;html=1;strokeColor=#d79b00;fillColor=#ffe6cc;" parent="1" vertex="1">
          <mxGeometry x="2350" y="967.5" width="120" height="76.25" as="geometry" />
        </mxCell>
        <mxCell id="K2KhxqsfXJvNr6pBZJx8-4" value="" style="edgeStyle=orthogonalEdgeStyle;rounded=0;orthogonalLoop=1;jettySize=auto;html=1;" parent="1" source="K2KhxqsfXJvNr6pBZJx8-1" target="K2KhxqsfXJvNr6pBZJx8-3" edge="1">
          <mxGeometry relative="1" as="geometry" />
        </mxCell>
        <mxCell id="K2KhxqsfXJvNr6pBZJx8-7" style="edgeStyle=orthogonalEdgeStyle;rounded=0;orthogonalLoop=1;jettySize=auto;html=1;" parent="1" source="K2KhxqsfXJvNr6pBZJx8-1" edge="1">
          <mxGeometry relative="1" as="geometry">
            <mxPoint x="2770" y="560" as="targetPoint" />
          </mxGeometry>
        </mxCell>
        <mxCell id="K2KhxqsfXJvNr6pBZJx8-1" value="&lt;div&gt;&lt;b&gt;Confidence interval:&lt;/b&gt;&lt;/div&gt;&lt;div&gt;A \( (1-\alpha) \times \)100%confidence interval (CI) is obtained by applying an estimation procedure. Multiple independent repetitions of this procedure result in intervals that hold true parameter with confidence level \( 1 - \alpha\)&lt;br&gt;&lt;/div&gt;" style="whiteSpace=wrap;html=1;strokeColor=#b85450;fillColor=#f8cecc;" parent="1" vertex="1">
          <mxGeometry x="2380" y="510" width="280" height="100" as="geometry" />
        </mxCell>
        <mxCell id="K2KhxqsfXJvNr6pBZJx8-3" value="you never know true parameter value (only in sims)" style="ellipse;whiteSpace=wrap;html=1;strokeColor=#d6b656;fillColor=#fff2cc;" parent="1" vertex="1">
          <mxGeometry x="2440" y="330" width="160" height="80" as="geometry" />
        </mxCell>
        <mxCell id="K2KhxqsfXJvNr6pBZJx8-5" value="&lt;div&gt;Example: Lipid study with loads of people, get a mean&lt;/div&gt;&lt;div&gt;Split sample into small parts and construct confidence intervals&lt;/div&gt;&lt;div&gt;Some miss true value&lt;br&gt;&lt;/div&gt;" style="text;html=1;align=center;verticalAlign=middle;resizable=0;points=[];autosize=1;strokeColor=none;" parent="1" vertex="1">
          <mxGeometry x="2875" y="400" width="350" height="50" as="geometry" />
        </mxCell>
        <mxCell id="K2KhxqsfXJvNr6pBZJx8-6" value="" style="shape=image;verticalLabelPosition=bottom;labelBackgroundColor=#ffffff;verticalAlign=top;aspect=fixed;imageAspect=0;image=data:image/png,iVBORw0KGgoAAAANSUhEUgAAAggAAADGCAYAAAC3gXiOAAAgAElEQVR4nOydd1RU1/q/zV03zSS/fE25N7lJvOpN4jURTYwt9ooRCwjYsAGKigoWrFhQVBRFFMWKSESsiKLYURGwASIWkCa9SRtgBhhmzsz5/P5wMVcUM8NwDmdmeJ+13rUoZ7/vnjMD88w+++zdIq4gDnEFcSAIgqiP2v8RXMaTF0+EflgEQfwF+eJ8tCBBIAjiryBBIIjmBwkCQRBqIUEgiOYHCQJBEGohQSCI5gcJAkEQaiFB0F0UCgX69++Ptm3bYsGCBQCAixcv4uuvv8Y333yD27dvw9TUFEOGDMH9+/fx/Plz2NjYvJFHJpNh8ODBaNOmDb788kvcvHkThYWF+OyzzyCXy99a//Lly/jHP/6BEydO8PYYNUEsFqNNmzaC9sHQIEEgCEItJAi6S1ZWFj7//HNIpVK0bNkSCoUCM2bMgKenJ0QiEViWxddff41z585h165dGDt2LAoLC9/Is2zZMlhYWAAAIiMjsWjRIhQUFODvf/+7ShBYlkViYiKWLVuGQ4cOQalUom/fvujatStyc3MBANXV1Vi/fj18fHywbt06PHjwQJWLYRjs2rULK1euRGlpKRQKBTZu3Ii5c+ciNjYWSqUSW7ZswfHjx7F8+XLU1NSo+rdt2zYUFRWhqqoK69atQ3V1NdatWwcHBwekpaWhoqICX3zxBSQSCbZt2wYA2Lt3LwoKCiCVSrFx40asX78eVVVVfD8lBgMJAkEQaiFB0F0KCwvxzjvvIC4uDi1atEBaWhq6dOmCdu3a4b333kNUVBT27duH9u3bIyMjA1OmTEFJSQnEYjFYloVYLIZEIkGfPn0QEBBQJ/frgiAWi/H3v/8dYWFh6NKlC3bs2AEHBwdMmzYNMpkMACASifDOO+8gMzMT7du3x6RJk7Bq1SpMnz4dnp6eGDFiBEJDQ2FkZIQnT55g6tSpCA8Px3/+8x8wDIMPP/wQERERMDY2xsGDB1V9mTt3LpYsWYJLly5hwIABCAsLw4YNGxAeHo7PPvtMJQiFhYX47rvvAACdO3fG48ePMXnyZDg7O8Pd3R1WVlZN9MzoPyQIBEGohQRBt4mJiYGPjw+++eabOp+Qjxw5ggkTJqi+NzExQUREBP744w+8//77qKysRIsWLdCqVSuYmZnB1dUVAJCbmwsfH583BCE1NRXt2rUDABw+fBhff/01li9fDnt7e1UNkUiE999/H3K5HH369MHVq1dx7do1mJubw9TUFK1bt0aXLl3QtWtXpKSk4JtvvsHUqVPRpk0blSCwLAtXV1ds2rRJlVcmk+Gbb77BgAEDcOfOHcTGxuKbb77B5MmT8eGHH9YRhG+//RYA8NNPP+Hx48f44Ycf0KFDB/z6668YPXo0f0+EgUGCQBCEWkgQdBeJRIKPP/4Yy5YtQ9u2bQEAPXv2xJw5c9C6dWtcvXoVAJCdnY3p06cjLi4OM2fOVL3x10Zqaio++eQTODk54V//+heWLl36hiBUV1fjs88+g7OzM/7973/jxo0bagXhxo0bKkHw9/dHp06d4O7uDktLS+zcuRMDBw7EsmXL8O2336oEAQDWr19fRxAAoHfv3vjXv/4FlmVhY2ODiRMnYvHixfjb3/6mEgSFQoGWLVvizz//RMuWLfH48WMsWrQII0eOxKxZs+Di4tIEz4phQIJAEIRaSBB0m7S0NFy5cgWVlZUAXr6RX7t2Dc+ePQPLsgAAPz8/iMViKBQK7Nu3DyEhIW/kKS4uxpUrV/D06VMolUrI5XI8fPhQlQN4eZnhxo0bSE1NBfBytCE7O1v1e4ZhEBcXB5ZlkZycDLFYjIqKCqSlpYFlWSQkJOD27duQSqWQy+W4ePEiMjMz8fjxY7Asi7i4l+9FBQUFKCgoqNO/oqIipKWlAXg5onDp0iVkZWUhNjYWcrkcjx8/BgAkJSXh3r17SE9PR3V1NZRKJWJjY/HgwQMwDMPVaTd4SBAIglALCQJBND9IEAiCUAsJAkE0P0gQCIJQS3MQhJqamjr3+ysUirfeEvfqkHtDYVkWEomkwTkqKyuhVCpV3yuVSpSXl//lGgWawjAMJBKJKj/LsqisrOR1OF6pVKouiTSG2jsxWJZVhVQqVd1VUR8Mw9R5bisrK1XHsyyLqqqqOrdYaoNcLm9UjqqqqnpfIxKJpDHdahAkCARBqMXQBYFlWZiamiIjI0P1s6dPn8LIyKje48eNG6d1LYVCga+++qrOm70mtGvXDs+fP1d9v27dOrRq1QoxMTFa9wV4+Ub92Wef4dNPP1UtoLRhwwZ8+umnaN26daNk6K949uwZ2rdv3+g8NTU1+OSTTyCRSLBkyRKUlJTA1tYWO3bsqPd4hUIBS0tLDBgwAABw/PhxfPTRR/jggw8gFosRGhqKDz74AC1btoRUKtW6X/7+/qqFq7ShZ8+eqKioeOPn8+fPR1JSktZ5GwIJAkEQajF0QZBKpfjpp59UE+uMjY2xc+dOlSA4OTnB1NQUJSUlOHv2LP7+979jxYoVEIlEGD58ONauXQuWZXH06FHs3LkT5ubmWL58OY4fPw5jY2NkZGTA0tIS+/btg1KpxMSJE1FVVQUrKyusXbsWZmZmqk/w8+bNg6WlJaqrq8GyLBYsWIBp06ahbdu2KkEoLS3F119/jV9++QW5ublwcnKChYUF8vLycOzYMRgbGyMoKAgAsGDBApw6dQrDhg1DcnIyzMzM6qx6KJFIEBgYiJycHLRt2xZSqRTvvPMOCgsL8cMPP0AsFquOjYqKwtChQ2FtbQ2lUgmpVAoTExOMGDEC5eXlCA8Ph7u7O8zMzODj44PFixdj5syZYFkWixcvRkBAAIYNG4aMjIw6gnDgwAEMGzZMNblx5cqVGDRoEI4fP64SlMzMTLi4uEAikcDCwgJVVVXYsGEDHj9+jDFjxiAyMhItW7aEqakpbG1tsWTJEgwdOhRXrlypIzn9+vVDnz59MGDAALAsi6+++gqZmZkYMWIE/P390bt3b0RHR2PatGnYsGGDqt25c+dw6NAhjBw5EseOHYNCocCYMWPg4uICLy8vlJSUYPz48Zg9ezYYhoG/vz+mT58OExMT/Pnnn2BZFvfu3cOgQYMwadIkyOVyrFixAk+fPoWxsTHu3LkDlmWxZs0aTJw4Ed27d0dFRQWePn2KYcOGYezYsZBKpUhMTETv3r15+kuoCwkCQRBqMXRBuHLlCqZOnQqlUonPP/8c169fx+LFi2FkZARvb29YWlrixo0b+Pe//42ysjJ89NFHyMnJwYcffoioqCiYmJjg8uXLWLlyJYyMjBAdHY1evXph9uzZCA4OVi0c1KpVKygUCnz00UcoLy9HixYtkJKSgmHDhmHPnj1YtmwZpkyZgsuXL6Nz584ICgpCp06dkJGRgXfffVclCAzDwNjYGG5ubsjMzMQ777yDS5cu4ebNm/j2228RHx+PL774Arm5uTAyMsKqVavg7u6Ob775BnFxcfj000/rPH6ZTIavv/4anp6eqKioQIsWLSCTyTBkyBBER0erjvvhhx8QHByMAwcOICkpCXv27EFMTAxmz56NpUuXIiAgAP/5z3+Qk5ODFi1a4NmzZ2jVqhUyMzPx66+/YtasWbh06RK++uorlSCUlZXhu+++Q0ZGBt577z3cvXsXrVu3RlxcHNzd3etc9vjyyy/x4MEDvPPOO3j69Ck+/vhjiMVitGjRQrVA0qNHj2BrawsTExOkpaWpHkstcrkcBw8exIABA6BUKvHuu++iqKgItra2WL16Ndq2bYvy8nKsX78etra2qnYeHh5o3bo10tPT0apVK+Tn56NFixbYuHEj0tLS8OWXX+LcuXOYP38+hg8fDn9/f3z11VfIzc1Fy5YtkZOTg3Xr1iEnJwdt2rTB1atX0atXLzg5OeHs2bMwMjLCzZs30aZNG2RkZOCDDz5ARUUFOnbsiICAABw4cABPnjxBSUkJPvzwwwaPQGkDCQJBEGoxdEHw8/PDihUrUF1djffeew9SqRTh4eEwMjJCjx498OOPP2LAgAHo378/ZDIZPv74Y8hkMvztb3/DgAED0LdvX+zduxcrV67EihUrAAC9evXCqVOnEBMTo1rZ7/PPP68jCO+88w5YloWDgwPc3d3xxx9/oEOHDhgwYACGDh2KhQsXYvny5WBZFv/85z/rXGIYPXo09uzZg6ysLLRs2RIsy8LNzQ2TJk0CAJiZmeHQoUMwMjJCWFgYzpw5AzMzMxQXF+OTTz5R5WEYBhUVFWBZFv/4xz+QlZWFd955BxKJBD169EBxcbHq2NjYWLRr1w7vv/8+vL29sXjxYvzwww8YN24cHB0dERAQgBEjRqCqqgoffPABAOC///0vUlNT8euvv6pub/zggw9UgnDhwgV88cUXGDhwIHr37o2SkhKsXr0aH3/8MT777LM61/EHDBiAwYMHY8WKFRg1ahQ6d+6MmpoatGjRAmKxGG3btlVdYti+fbtKHl6/VFArCCzL4oMPPsCLFy8wceJE7Nq1C507d0Z2djaWLFmCJUuWqNp4eHhgxowZAF4uwBQREYEWLVogNTUV1dXV+OCDDyCTyRAbG4t//vOf8Pf3h52dHQDg22+/xb1792BiYoJevXrByMgIly5dQq9evVBWVoasrCy0b98eO3bsgLm5OViWxY8//oiKigokJiaiffv2ePfdd7F161ZUV1fj3XffbfQcCU0gQSAIQi2GLghFRUWwsrICy7Lo06cPrKys0LlzZ9VoQLt27TBnzhzVP++PPvoI27ZtQ7t27TB9+nT897//xdOnT7Fy5UrVQjyvCkLtJkL1CQIAlSAcOXIEP/74I2bOnImJEyfi+fPnaNWqFebOnVtnBAGoKwitWrUC8HI9hA8//BB2dnYqiTEyMsKtW7dw5swZmJubvyEI+fn5aNmyJWxsbPDNN9+AYRh069YN48ePx3vvvVdnomKnTp3g7OyMAQMGwMXFBe+//z6WLFkCIyMjTJs2DQEBARg5ciSqqqpUCx69KgidOnWCpaUlfvvtN5UgyOVyfPzxx1i5ciW+++47PHz4EP/617+wfft2vPfee3UmMh47dgzvv/8+pFIp3n33Xfj4+NQRhPbt22PGjBmwsbHBjh071AoCANjb28PExASffPIJ0tPT4eLigp49e+KLL76oc63fw8MDn3zyCRYuXIhWrVqhqqoKLVq0QHp6OoCXiziNHj0aHTt2xNq1a+Hv749WrVph4cKFeO+99yCRSPD5559jy5YtaNmyJc6cOYNevXqhvLxcJQjZ2dn4f//v/8HBwUG1OmT37t2xcOFCDBs2DEuXLkVxcTE+/fRTGkEgCEI3MHRBYBgGrVu3hkKhQHV1NW7evImioiI8e/YMAJCYmIi7d++iuroaAPDkyRM8efIEDMMgMjISKSkpAIC8vDzk5+cDAJKTkyESiVBVVYX4+HgAUC0G9OjRIygUCjx8+BAAkJOTgxcvXgAA4uPjcf/+fchkMrAsi2fPniEuLg6JiYl1PjWmpaWhqKgIMplMtUAQ8PIN/8aNG6oNmZ49ewaxWIyysjKkpaWBYRg8evSozuPPzMxEaGgoysrKALyc+Hfz5k3k5OTUOa52kaQHDx5AqVSirKwMoaGhyM/PR0JCAkpLS/H8+XMolUrVgkcJCQmoqanBr7/+imvXriEsLAxSqRRSqRQJCQmqxx8WFobS0lIAL5d0vnTpErKzs+vMH5BKpXjy5AlYlsXjx49ViyA9fPgQCoUC6enpuH37NjIzM1FYWKg6x6+/mRYXF6ueM4ZhcPv2baSkpIBlWSgUCty9e1fVt1o8PDwwZ84c3Lp1C/n5+WBZFg8fPlQ9J3K5HPfv31c9x6WlpSgoKEBkZKTqNZGeno6IiAjk5+cjLy8PycnJUCgUkMlkSEhIAMuySE1NRXR0NNLT06FQKFBZWYmwsDDcv38fDMPg/v37mDx5cn0vY84hQSAIQi2GLggAsHbtWtUbOcE9Y8eOxdOnT4Xuhtb8+eefbyz9LATTp0+vc9mHT0gQCIJQS3MQhNp76AlCl2nK1ygJAkEQamkOgkAQRF1IEAiCUIuhCcLChQvh4uJCwWOM9BgC+w12gvfD0MPZ2Zm3vxMSBIIg1GJoguDv7y9Y7eaCc7ojbpeHCd0Ng4ZlWRIEgiCERdcFgWXZBt0XToLAPyQI/EOCQBCE4OiqICiVSowZMwaenp7w8fHB/PnzkZqaqradoQlCXFxck9wX3xAaIgjJycn8dsZAIUEgCEJwdFUQGIbB6tWrwTAMFAoFioqK3rpJz6sYmiAMHjz4rTtPNgaWZeHu7o7AwEDs2rWrQTPoGyII06dP17KHzRsSBIIgBEdXBaF20SEzMzMMHToUixcvrneL4rS0NISGhqrC3d290bV1iYEDB2LKlCmwsbHhNKytrWFqagobGxuMGDEC06ZN07htD5+fYbrSRKNjLSwshD6FegkJAkHoIK9/ktL0k5W+3mevy4Lw5MkTXLlyBV5eXpg1a1adjXnexrJlyxpdW5fgawShdndJkUgEFxcXGkHQMUgQCE6oXQSmMWHomJiYqD2GZVlUVFSgf//+AF4uSWttbQ1zc/M3lmatXV4WAEpKSmBmZgZLS8smWwWNS3RVEBiGgY2NDYKCgnDq1CmIRCJ4eHiobWdogmBvb//GfgPawLLsG3MZWJZFUlISFApFg3I1RBDc3NwalFsdDe2rvkKCQHCCSCSCk5MTXF1dtYp58+YJ/RA4IzExEY6Ojqr914ODg+Hh4YHhw4erjsnKykJgYCACAwNx7tw5lSCJxWKMGjUK/fr1AwBcu3YNUVFRUCqVePDgQZ06mzZtUh3n6OiIoqIiFBcXIzs7u4keKXfoqiAolUq0bt0aEokECoUCO3bswLVr19S2MzRB4Ipnz57h+PHjnOR6myDExcWhpKSEkxpvQxPZNwRIEAhOyM3Nxfbt2xEcHKxV2NvbC/0QOMPMzAylpaVwd3dHYWEh3NzckJ+fj44dO6qOkUgkyMjIQEZGBrKyslSCUDuaMnr0aADAxo0bMXDgQHTt2hXBwcGq9gkJCTh8+DDMzMwAvNwFb8CAAfjxxx/r7BCnL+iqIAAvN8mp/cRYUlKi0WgXCUL9xMfHw9fXF9XV1Y2OZalzEVZ8rc7PPD09UVZWhri4OMTFxXFSp74YOHCg0KeySSBBIDiBBOF/3Lp1CyNGjICdnR1CQkJUu+jVvukDQEREBMaNG4dx48bBxsbmjWHX2mM9PDwQHR0NlmUxcuRIsCwLhmHQt29f7NixA0ZGRggLC8Nvv/2GsrIy5OTkYMOGDU33YDlClwVBG0gQ6icuLg6TJ0+Gl5dXo2Pk2f5w8nOo87Nx48bBy8sLGzduxKJFizipU1907txZ6FPZJJAgEJxAgvA/5syZg5KSElhZWSEzMxOLFi1CZmYmfvnlF9Ux6uZg1ApCXFwctm/fjidPnmDp0qUQiUTIyMiASCRCaWkpRowYgcrKSuzYsQPh4eHYt28fQkJCmvTxcgEJQvMgPj4eR44c4SRXfZcY8vPz4eXlBV9fX17nNQ0aNIi33LqE3gpCVVUVPDw8YG1tjXnz5uHChQs6t5BHc4IE4X9kZ2fD19cXUVFRYFkWEREROHr0KG7duqVxjtpjWZZFaGgoAgICUFNTg6KiojqLvoSHhwN4OZnuxIkTCA4O1su/AxKE5gHDMJxMdgT+JwjKq6Gc5GsI5eXlWrdlq6uhTNKPhZv0VhCcnJzw/PlzlJWVoaSkBMePH8e9e/c4rdHc2L59O9auXatVzJ8/Hx4eHiQITUhWVhaSk5ORnJys+rSUn59fZ0lglmWRkpKCrKws1c+USiXS09ObvL9/BQkC0VBqBYHp1Z/z3NHR0QgJCcGGDRsatMS2JrD5BVB4enGaky/0VhA2bNiAZ8+eQSwWo6ysDH5+fggLC+O0RnNj0aJFWr/B79y5E9u2bSNBaCKUSiV++OEHHD58GIcPHwbLsqiurka7du3qTFIMDg7G0qVLsW7dOty4cQMMw2DLli06NwubBIFoKCpBMPoNilNBnMaVWfZQnAqC/EQgHq5aw23+A75gNm8V+vRphN4KAsMwOHDgAObOnYuFCxfi6tWrnOZvjpAgcIO1tTWmTp2KIUOGwM7ODsbGxqiqqsKePXswYcIEWFtbq/7wZs6cCWNjYygUClhaWmLixIl1bvlMTU3FqFGjMHLkSIwdOxZyuRwAUFFRgQ4dOmD9+vVIS0sDy7JYvXo15s2bV+cShJWVFaRSKYqLizF+/HhUVFQgIiKCBIFnSBD4h88RhMDAQOTn5+PEiROcLxBFIwj/gzdBkMlkmDNnDr7//nt06dIFJ0+e5DR/c4QEgRssLCwgl8uxfv16pKSkIDo6GlFRUejWrRsePHiAzZs3IyoqCgUFBSgoKMDQoUNRUVEBGxsbAKizXsLbkEgkOHz4MIqKitC2bVtER0cjKCgIq1atqiMId+/eRffu3TFq1CiMGTMGACCVSkkQeIYEgX9qBUHBw6fx2gXLampqOJ/syJaXQ3njJqc5+UJvBcHBwQGFhYWoqqpCZWUlQkJCEBERwWmN5gYJAjdYWVlBoVBgy5YtyM3NxaNHj3Dnzh306tULeXl5iI+PR1lZGQYNGoTY2FhYW1ujvLwcS5cuBQCYmpqqchUUFMDNzQ1ubm7w8PBQ3Y8vFotx9+5dsCyLLl26YMqUKRg0aBDatGkDc3Nz1UTFwsJC1eJJS5YsAUCC0BSQILycrBsZGclbfud0R2y+4Irr16/zVgMAunfvzmt+XUZvBcHd3R2RkZEoKSnBixcv4OnpiTt37nBao7lBgsAN9QnC3bt3sXjxYixcuBDjx48HwzAwNTWFp6cn+vTpg+zs7HoF4W1IJBL8/vvvcHV1hYODA5RKJZRKJVauXImkpCTk5+fDw8MDWVlZcHR0xIwZM1BQUACABKEpIEEAMjMzERgYiOzsbF6it19nnE05hZiYGMTExPBWp0OHDkKfSsHQW0FgGAanTp2Cs7Mz1q1bp1rW9nWUSiW8vLywfft2VezevZvTvhgKJAj8I5VK66yaKJPJoFQqIZfLIZfLwbIsFAqF6nvg5Wu4pqYGCoVCtVBSbTtNro/qw14XJAiGR3p6Otzd3XHx4kVeosueH+F5bTP+/PNP+Pv781bn+++/F/pUCobeCkJWVhbGjh2LgwcPgmVZPHz4ELdv39ao7dat+jGDtKkhQRCGbdu2YdmyZVizZg0qKirg7OyMFStWYO3atWBZFhYWFjhw4ABGjx6NiooKDB06FFu3boWLi4vQXecMEgTDg/9LDA5wPbMKwcHB6g9uBF27duU1vy6jt4IwYcIEsCyL8+fPY+3atbh165bGK8iRINQPCQI3ODk5Yfz48RgyZEidRWEWLVqEmTNnYubMmbhx44bq5xMnTsTjx4+Rm5sLlmUxZswYxMfHIz8/HwzDqDZpsrOzw5UrV1S3Nb66MqO+Q4JgeMTExKhGwfjAOd0REaLrvO+s+ODBA14fhy6jt4KwYMECREdHAwACAgIwdepUEoRGQoLADWPGjIFcLsfJkyfr7MBYe9ng1c1/WJbF1KlTERERgd69eyM7OxuTJk1CWFgYunbtCoZhAACxsbGYPXs2CgoKYGxsjJMnT+Lbb78V5PHxAQmC4eHh4YGKigpecrMsizmxUxD8PBA+Pj6crc5YHx4eHpBIJLzl12X0VhBqampUlxRYlsXt27fx5Ilm/xBIEOqHBIEbaicpXrhwQSWxADB37lxMmTIFU6ZMUW0ZzLIs0tPTwbIsjh49ips3byIjIwMAsGfPHqSlpSEyMhIzZsxQfYrJy8tDYmIihgwZ0uSPjS9IEAwPZ2dn9O7dG/369eM8+vbti69Wf4yu1p3Rr18/dO/enZc6/fr1Q9u2bRu1tLI+o7eC0BhIEOqHBIEb3iYI9cGyLAYOHIjr16+jT58+KC0txe+//47Q0FD07NkTVVVVaNu2LbZt2wZPT09UVVVh7NixOH36NNavX99Ej4h/9EEQZDKZakRHHSQI/I8g2EVPRECcHzw8PHi9BEAjCHooCPPmzUPnzp0xatQoVURFRWnUlgShfkgQuEEikajuUNDkDUUmkyE9PV11R0JNTQ0yMjJQXV0NpVIJkUikCqVSicrKShQVFenlpkxvQ1cFQaFQYNasWXj8+DGGDBmCQYMGIS8vT207EgTgyZMnGguVNtS3myMf8P04dBm9FYTa+8i1eeJIEOqHBIEQCl0VBIZhMH78eGzZsgUikQgVFRXYtGmT2naGLghTpkzhNF9eXh6OHj2KY8eOaXxLriaCkJCQoJHQEfWjt4IAvLynXJtPUSQI9UOCQAiFrgoCy7Lw8fHBrFmzEBkZiblz56KwsPCN48rKypCRkaEKJyenRtfWZfr164egoCDOYsKECTh9+jS2b9+OP//8U6M240NHYFOI618es2PHDuTm5gp9uvQWvRYEbSFBqB8SBEIodFkQ4uPjceLECcjlckilUjx69EhtO0MfQRg9ejTS0tI4C2dnZ6SmpuLUqVN4+PChRm3mPbLG6aRjf3nMlStXSBAaAQkCoYIEgRAKXRUEhmEwbtw4ZGdnY/z48SgqKoK3t7fadoYuCNbW1pzmq6qqwunTp5GUlMTpJYZnz54hPz+fgx42T0gQCBUkCIRQ6KogKBQK9OrVC2KxGHl5ebC0tCRB0JLAwECUlpZylu91QVAqlSgtLeV14SSZTIYdO3bwll/XIEEgVJAgEEKhq4IAvLyrpPYOk6qqKiQkJKhtQ4LwJuvWrUNOTg5n+V4VBJZlsXjxYlRVVWHhwoW83XVQWVkJKysrXnLrIiQIhAoSBEIodFkQtIEE4U1WrFiBgQMHYvjw4ZyE0Y426Du7B4YPH44//vgDPXq8/Lp///4YOnQoZ3VeDWNjY4wZM0boU9lkkCAQKkgQCKEgQTB8+B5B2LdvH6v0K5wAACAASURBVM6ePYtdu3bxtkYIjSBwCwmCHkGCQAgFCYL+wbJsg97w4+PjUV1dzVl9LhdK0vROB4VCgbt373JSUx8gQSBUkCAQQkGCoH9IpVJ07NiRt/y1owI+Pj6qfXdehUtBGDBgACd5DA0SBEIFCQIhFCQI+kd1dTX++c9/wt3dnZdwdXXF0qVL4e7ujsmTJ7/x+z+C+sBh/2xOav32229Cn06dhASBUEGCQAgFCYL+IZVK0aFDB1RUVPASRUVF2L9/P0pKSrBy5co3fr8keTZCCy5xUqt///5Cn06dxOAFgWVZpKam1glXV1dB+qLrkCAQQkGCoH9IpVL06tWL1xpKpRKhoaH1rm3A5SWGkSNHcpLH0GgWglBVVYXKykpVbN68WZC+6DokCIRQkCDoHyzLqlY95HPvidoPea+vsMilINCHxvoxeEGoD7rEUD8kCIRQkCDoN2PHjuUlr1KphJubGyoqKrB+/fo6IwlcCsLs2bM5yWNokCAQKkgQCKEgQdBvhg4dinnz5nEec+bMwbhx4zBv3jwYGxvD3t5e9bs+f3bGeNcxnNQZP3680KdQJyFBIFQIKQg2Nja4fv06bty4oVVkZGQIffqIRkCCoN/wNYIAAJs3b8bhw4dx6dKlOj+nEQT+IUEgVAgpCBYWFjh9+jTOnDmjVXh6egp9+ohGQIKg32gq6GKxGGVlZZzU5FIQsrOztWrHsiyysrI46YMuQoJAqBBaEIKCgrRuT4Kg35AgNA/u3r2Ly5cvc5LrbYJQU1MDLy8v+Pr68v7mzTAM5s6dy2sNISFBIFSQIBBCQYLQPLh16xaMjY1ha2vb6Oh58GeYrTR54+fDhg2DtbU1bG1t8fvvv3NS621hbW2NCRMmCH1aeYMEgVBBgkAIBQlC86ApRhCysrIQGRkJiUSCNWvWcFLrbdAIQuMgQdAjSBAIodBVQWBZFrt374aZmRksLS1hY2ODyspKte1IEOrn6dOnuH//Pie53iYILMuioKAAaWlpb6ydwDUKhQJeXl681hASEgRCBQkCIRS6KggMw8DNzU31RiMWizV6remqIDCjLXjLLRaLcevWLZSWlvJWg5lqq/qay0mKRP2QIBAqSBAIodBVQWBZFosWLcK0adMwb948mJmZoaCgQG07nRWEHn14y+3q6gqFQgEfHx8olUpeajDDR6m+JkHgHxIEQgUJAiEUuioIAJCXl4fbt2+jvLwcNTU19c6MLyoqQnx8vCr4XHq4MTBdf4cyPoGXiDzgA2V8Au4e8kNN3CNeajADhqgeCwkC/5AgECpIEAih0FVBUCgU6Nu3L06dOoWFCxeiuLgY3t7eatvp7AjC7/14y3358mUcOXIE58+f560GM8JU9TUJAv/orSCwLIuKigpkZ2ejpKQEUqlU47YkCPVDgkAIha4KAsMwMDMzg1wuR3x8PBYuXKjXgqBPZGZm/uXvdUkQ4uJ05wMwl+itIJw/fx7Dhw9HQEAA9u/fj44dO2o8OYYEoX5IEAih0FVBAID09HQUFxcDANLS0hAREaG2DQlC41EnYg0VBLlcjpUrV+Ly5csIDg5uZO/qMnr0aE7z6Qp6Kwh2dnZ1bmFJSEjAqVOnNGpLglA/JAiEUOiyIGgDCULj8fLygomJyVujk1cb9LXv8ZfHvBp9+/bF8OHDYWJigo4dO2rcTpP4xz/+IfTp4gXBBCE3NxepqalaJ05MTMSgQYMwZswYjBo1ChMmTIBEItGoLQlC/ZAgEEJBgkC8DtcjCKWlpdi1axfy8vKwf//+RvauLjSCoB1vFYTq6mocO3YMgwcPxs6dO1FaWtqgRS1YlkVpaSni4uKQlpam0eIltZAg1A8JAiEUJAjE69y4ceMvf6/NHASZTIaysjLOF1Das2cPp/l0BcEEgWVZ5ObmYv/+/RgwYADmz59fZ0ESdQQGBmLRokXw9/fHwYMHMWnSJOTn579xHMuyEIlEdcLNzY2TB2dokCAQQkGCYLhUVVVh7969nOetFQSWZXHz5k0EBwdDJpNxXqeWa9euITY2lrf8uohggvD48WNYW1sjJSVFJQXbtm3TeIGNmTNn1vn+bXMQWJbFhQsXcP78eVUsX75cy4dj2JAgEEJBgmC4SCQSLFmypM46EVzE7AeTcfTRn/D398e9e/fw5MkTbN68mfM6tbF7927OlonWFwQThKqqKsyaNQssy2Lq1KkQiUQNSpyUlIQxY8Zg6tSpmDRpEmxsbGgOQiMhQSCEggTBcJFIJLC3t0dYWBinMS3SArtvbcf27dtx7do1hIWFYcmSJZzXqQ03Nzfcu3dP6NPZpAgmCDdv3kRycjIAoLi4uMGLa9Sug1BVVYWcnBwUFRVp3JYEoX5IEAihIEEwXCorK7F9+3bO89ZeYlAqlfD398eff/7ZoPVwGsrFixcRHR3NW35dRDBBKCsrg7GxMU6ePIkxY8YgJyenQYn37NmDESNGYMKECXBzc8OkSZMQHx+vUVsShPohQSCEggTBsGFZFoGBgZzm5HOhJKVSqfFt84aMoJMUZTIZkpKSIBaLGzyrdPz48VAqlfj999/BMAyePn2KkydPatTWUAUhJiYGGzZswMaNG7WKsWPHkiAQgtBUgqBQKHjfAhggQXgdlmVhZmbGaU7ndEdMcZ+AgoICbNu2jdPnVaFQYNSoUeoPNHAEE4ScnBwYGRnBysoKVlZWSEtLa1DilJQU9OnTB2FhYWjTpg26du2K6upqjdoaqiAEBQXh+PHjWr/JWlpakiAQgtAUgrB9+3b8+uuv2LRpE5KSknh9PCQIdWFZFl9//TWGDBnCWfy8vTV62HZ5+fXPP2Pw4MGc5R48eDC6d+8u9GkTHMEEITIyEk+ecDMEKJfLwTCMxseTIJAgELpFUwiCtbU1XF1dVZ84+YQEoS58jSDYbpuMqKgoHDp0iEYQeEAwQUhJSUGbNm1gZWWFSZMmNXgEoTGQIJAgELpFUwiCj48PjIyMMHDgwHq3bOYSEoS6KBQKjS8Ba4pQcxAasiifviPoHISqqiqkp6ejsrKySa4L1kKCQIJA6BZ8C4KjoyNmz54NOzs7zJo1C7du3eL18ZAg1CU/P1+jTa4awquCwLIsLl++jP3796s21uKLAQMG8JpflxBMEEpKSmBqaopu3bphzpw5Db6LoTGQIJAgELpFU4wg1G7ZXFBQwPvjIUGoS35+PrZu3YrLly9zFpNvmWJ76BZcvnwZQUFBOHDgAC5fvoxZs2ZxWuf1+PXXX4U+nU2GYIJw+fJlpKWloVevXigtLUVISAhvnXgdEgQSBEK3aApBMDU1RVhYGPbt24fLly83uI8sy2o80kmCUJf8/HycOHEC6enpnMW8R9Y4nXQc6enpiI+Px+XLl/H8+XMsWrSI0zqvx++//y706WwyBBOE8vJyDBo0CF9//TV69+7N+7DQq5AgkCAQukVTCMLkyZPBMAyeP38OPz8/KBQKtf1SKBTw9PSEUqlEu3bt0KVLF43akSDUJT8/H+Hh4ZzmfP0SQ3JyMk6ePKnR89MY6BIDd7xVEICXf3x5eXmoqanhrQP1QYJAgkDoFk0hCCdPnoSPjw98fHxw8OBBnDt3Tm2/GIaBlZUVVq5ciYKCAhQVFWl0B4ShCIJSqVQtid8YWJZ9Y5+d8vLyRuV92yTF5ORk5OXlaZ1XHXK5nLfcuoZggpCeno758+fDwcEB3bp1Q2ZmZoOTsyyr1cInJAgkCIRu0RSCsHTpUtVdU9euXdOoXwqFAn/88QcsLCxw584drF27Fnfv3lXbzpAEoX379pxOImdZFjt37kRWVhZ2797doFvUX+VtghAZGYmEhIRG9pIABB5BqCU3NxdhYWENSpyVlYXx48fDxMQEpqamWLZsmcZbfZIgkCAQukVTCMKUKVMglUpRU1Oj1TA0y7JvXYzt2bNnCAwMVIWjo6NW50HXUCgU+L//+z+YmprCzMyMkzA1NcVPP/0EMzMzjBgxAqNGjdIqzy/e32OQQ583ft63b188fvxY6FNnEAgmCPHx8aoVq3r06IH8/PwGJbaxsakzZPXw4UONJzqSIJAgELpFUwiCubk5Jk+ejGnTpuH69esa9av2fviTJ0+qIjU1VW07GkF4OyzL4uLFiwgJCcG6deu0zk0jCPwjmCDIZDIUFBTUieLiYo1fLEeOHMG2bdtw584d3Lx5EzNnztR4+VQSBBIEQrdoCkGYOnUqCgsLUVJSovGufyzLwtfXFxcuXFDNYq+oqFDbzlAEgWVZBAcH87JOTXV1daMmFL5NEEQiESQSSSN6Vj8NeX8yFAQThLS0NHTo0AGrVq1C27ZtYWdnB3d39zcmsrwNlmUhlUpx9+5dPHnypEETR0gQSBAI3aIpBMHNzQ0LFy7EwoULcfv2bY37xrIsCgsLG/R4DEUQ+CQkJESruWe11CcI+fn52LdvH3bv3q3xe4mm2NnZabzfj6EgmCCEhYUhJSVF9ccXGhraoMRpaWkYMWIEBg4ciCFDhmDevHn1fiqovXf51SBBIEEgdIumEISQkBD069cPPXv2hK+vL6+PhwRBPWfPnoWLiwu8vLy0ipHB/bHokGOdn40dOxZeXl7w9PTE/Pnztc5dX/Tq1YsEgWPeKggSiQQDBw6EpaUlBg4ciPLy8gYltra2BsMwqjf9R48e1XvbklKphJ+fH3x9fVWxaNGiRj0oXYUEgdBXmmqSoouLC9LS0nDixAleHw8JgnrOnz+Px48fQyQSaRVOibNwNTekzs+2bduG0tJShIeHIyYmRuvc9cXUqVNJEDjmL/diEIlEuHXrFkpKShp8befo0aNYu3Yt7t27h7CwMIwdO1bjDZ9oBIEEgdAtmkIQbG1tcf36dbi4uOD48eO8Ph4SBPWEhYU1eHL6q9R3iUEul+POnTsaTSRtKCtWrGjyNXuERjBByM7Oxty5c9GjRw+sX7++wbs5siyLvLw8hIeHIzw8HKWlpRq3JUEgQSB0i6YQBIZhoFQqERYWxvn16dfRN0GYNWsWr/lZlkVGRoZGEzw1pT5BePDgAd3BwCGCCcL169eRkJCAXr16IT09vcFzEKKjo7Fjxw5s2LABgwYNwvDhwzV+8ZEgkCAQukVTCIKFhQWOHj0Kf39/moPwGgMHDuQ1/7p16yASiXDhwgXk5uZykrM+Qbh16xaioqI4yU8IKAiVlZUwMzPDv//9bwwdOrTBZmlrawuGYWBhYQGWZREXF4fTp09r1JYEwfAEYdOmTSgvL9c6mtvtS7pGUwjChAkTMGTIEERGRmr8v0Jb9E0QfvnlF8ydO5e36N69O+bOnYtp06bB0tKSk5x9/uyMca5j6vxszJgxuHnzptCn02AQTBAiIyNx584dVFZWanUv7KVLlzBnzhyMGzcOW7Zsgampqcbrb5MgGJ4gjBs3Dtu2bdMqnJ2deV27nVBPUwiCXC5HdXV1k2wMp2+CwPcIQmpqKo4cOQJvb2/OZJxGEPhHMEF4/vw5vvvuO0ydOhXTp09HRkZGg5PX1NTg4cOHePToUYOuKZIgGJ4gTJ8+vVF9z8nJEfrpa9Y0hSA0JbosCC9evHjjZyUlJQL0pHG8vpujSCRCTU2N1ns7EG8iiCAI/QSSIJAgkCDoFiQITcfIkSN5r8GyLBYvXoxTp07xdkvpq4KgVCqxZs0aXuo0ZwQRhClTpgAQ7o2aBIEEgQRBtyBBaDo6deqEGTNm8BqTJ0/GlClTMGPGDAwaNIiXGr8f/BljVo3EjBkzMH36dCxfvlzoU2twCCoIa9eu5a3wX0GCQIJAgqBbkCA0HU0xglBVVYW5c+eCZVnMnDmTlxo0gsA/ggiClZUVjh49CnNzcxw9ehRHjx5t0mtgJAgkCCQIugUJQtPh5OTUJHXEYjESEhIgk8l4yf+6IPj4+PBSpzkjiCA8efIEN27cqBNcLqChDhIEEgQSBN2CBEE/ycjIaPAid5qSk5OD8PDwty5v/LbdHDXFxcWlUbtJNgcEu4tBSEgQSBBIEHQLEgT9JDk5GTExMaioqOA0srKy4OXlhfLycjg7O6O8vPyNYxYnz0Zo/kWta9ja2pIgqIEEwYAgQSBB0FdIEPSTpKQkrFy5Ejt37uQ01q9fj3Xr1mHnzp0wMTGBl5fXG8eMDO6PxX6OWtfo27cvCYIa9FYQ5HI5jh49iuXLl2Pjxo2IiorSeAEOEgQSBBIE3UKXBUGpVEIqlaK8vBxyuVyj/zPNRRBSUlKQmJjIeV6WZeHn54cDBw4gJSWl3mMae4nB3t6eBEENeisIy5YtQ2JiIkpKSlBYWAhfX1/ExsZq1JYEgQSBBEG30FVBUCqV6N69O3x9fREcHAw7OzskJyerbddcBEGpVGq8SJ1SqURWVhZntRsrCDKZTOMPldevX+d9gy9dRG8FYfXq1cjJyUF1dTUkEgnOnj2La9euadSWBIEEgQRBt9BVQVAoFFixYoXq+/Lycmzfvl1tu+YiCA1BKpVi165dnOV7VRCmTZuGmJgYTvO/ym+//QapVMpLbl1GbwWhqqoKGzZsUC3VfPToUY0NjwSBBIEEQbfQVUFgWRbx8fFYvHgxZsyYAS8vL8jl8jeOi4+Px4kTJ1Th6OjY6NqGRnV1NYyMjGBqaspJ/OL9Hwxy6IPhw4dj2LBhMDU1Rc+ePTnL/2p8+umnb72bwpDRW0FgGAYeHh6wsLCAjY0Nbty4oXFbEgQSBBIE3UJXBUFbaAThTfgaQWAYBk5OTsjMzMTGjRs5y/8qNILAD7wJwooVKxAXF4cXL14gLy8Pvr6+iI6OfuM4lmVx9uxZBAUFqWLp0qWc9kVXIEEgQdBXdFUQFAoFvvzyS5iYmGDkyJEYOXIkQkJC1LZrroKgVCrfel2fYZgGfZBTx+ubNXGxbfvb+r9s2TLB9xASAr0VBBcXF9UchMrKSgQFBdU7B4FlWSgUijqxZcsWTvuiK5AgkCDoK7oqCABQVlaGs2fPNqhNcxWEJUuWoKysjJfcNTU1OHv2rOqDYGMnKdaHk5NTs7yU8Db0VhDkcjnWrVsHCwsLTJgwoUE7htElBhIEEgTdQpcFQRuaqyA4ODggOjoaSUlJnMekSZPw7NkznDlzBhEREZjzcCpOxPtzXqOqqkro06gz6K0gvMqlS5cgFos1Pp4EgQSBBEG3IEEwDBwdHRESEoJbt25xHgsWLEBYWBiOHDmCI0eOYFqkBXaH7+C0hpmZGY0gvILeCoK1tTV+/PFHDB48GD/99BP69++Pe/fuadSWBIEEgQRBtyBBMAwcHR0hEol4yS0Wi7F7927cuHHj5RsXD5cY5s6dS4LwCnorCAqFAqdOncLGjRtx6NChBr0oSRBIEEgQdAsSBOERiURIT09vVI7q6upGTxTUlNcnKV66dKnROZuy//qA3gpCLXl5eRg4cCDKy8s1bkOCQIJAgqBbkCAIz7NnzxAaGspLbnd3dzx+/BirVq3i7G6A17d7NtS704RE7wVBG0gQSBBIEHQLEgThiY6ORqdOndC/f3/Ow8jICP3790fPnj3RrVs3TnJ28PgW3ax/Qf/+/dGvXz/MmzdP6FNocJAgGBAkCCQI+goJgvDwOYKwc+dOxMbGYtu2bZxtkEQjCPxDgmBAkCCQIOgrJAjCIxKJkJmZ2eg8lZWVHPRGPa/PQdB0Lx5NkcvlzXKDplchQTAgSBC073tWVpZqZzptgmgcJAiGw5QpU3jNX1ZWhn379sEsZDDndzG8ysmTJ5Gbm8tbfn2ABMGAIEHQrq2bmxuGDx+OiRMnahV9+/YV+qnXe0gQDIexY8ciIiKCt3B0dER4eDisIy2w/Zo7b3XWrl1LgkCCYDiQIGjXdv369Th48KBWbc+ePYuRI0cK/dTrPSQIhsP48eMRHx/PW6xevRrx8fGwuz8Bh6L281bHw8Oj2V96JEEwIEgQSBD0FRIEw2HWrFm85heLxTh79ixsblvyeonh7NmzKCgo4C2/PqC3gsCyLCorK5GXl4eysjLU1NRo3JYEgQSBBEG3IEHQDcRiMYKDg3nLL5VKOVupsL6VFM+dO9csd13kC70VhHPnzmHu3LnYv38/vL29MWHCBLx48UKjtiQIJAgkCLoFCYJu8OLFC2zatImX3HFxcarr+w8fPmx0vvoEYdOmTZBKpY3OTbxEbwVhxowZdb5PTEzEyZMnNWpLgkCCQIKgW5Ag6AbZ2dno2LEjLCwsOI8uXbrA3Nwc5ubm+Pnnnxufb/cPGLqgf52fdezYkfZS4BC9FYSnT5/C1NQUdnZ2sLGxwaRJkzTe0VGXBYFhGK0jMDCQBIEEQS8hQdAN+BxBKCkpwe7du+Hn58fJp3waQeAfvRUElmVRXV2NjIwMlJaWQi6Xa9xWVwVBIpFg4sSJcHJy0ipGjBhBgkCCoJeQIOgGDMM0esMmTeBLEGrXM+EDmUzGS15dRm8F4cSJE5g1axaCgoIQEBCAYcOG1TvjlGVZZGdnIysrSxXr16/ntC9cUVFRgQ0bNmj9Rufg4ECCQIKgl+iqILAsi/v37wMANm/eDG9vb43egPRVEJqKX375pdE5XheEyspK7N27F25ubrxMVHRwcOA8p66jt4Jgb29fZ1vOx48f4/Tp028cx7JsHTkgQSBBIEHQPXRVEBiGgZWVFdzc3PD06VMkJibCz8/vjeNEIhHS0tJU4eTk1Ojahsx3332Hbdu2NSpMzvTFAp85qu8tLS3h4eGBLVu2wNbWttH5Xw87OzuhT1uTo7eCkJaWhr59+2LQoEHo168frKysUFVVpVFbXb3EQIJAgtBc0WVB+O9//wsHBwckJibi4sWLOHbs2BvHKZVKKBQKVdDGQX+NkZERxGJxo2JJsj1CCy6pvj906BBycnKQlJSEmzdvNjr/69Ecd4vUW0FgGAZPnz5FZmYmKisrUVFRAZFIpFFbEgQSBBIE3UJXBaF2rlNWVhbKy8sRFxdHlxg4gIu/mdcvMSiVSty/fx9PnjypM7rMFWvXruU8p66jt4KwadMmuLq6ok+fPsjIyEB4eDhCQkI0akuCQIJAgqBb6KogaAsJQuMJCAj4y9/XN0lRHUqlEqmpqcjPz29Ez+rn9u3bKCoq4jyvkOitIEyYMAEMw0CpVKJv3744evQoCQIJAgmCnkKCQLyOutsttREEFxcXSCQSXL9+nfNllIOCgpCVlcVpTqHRW0F4+PAhJkyYAODl5QZjY2NcvHhRo7YkCCQIJAi6BQkC8Tqurq6wt7d/a/Q+1AmWa03/8pjXo1+/frC3t8f06dMxcuTIBrVVF8OGDUNqaqrQp41T9FYQGgMJAgkCCYJuQYJAvA4fIwjZ2dnYv38/PD09G9Gz+qERhIZDgtAASBBIEJorJAjNg7KyMo2PLS8v/8vfayMIjUHdXj/V1dVQKBRN1JumgQRBhyBB0E9BGDZsGCIjI7WOhuxEaqiQIDQP1q1bx1muVwWhqKgIAQEBcHV15W0lxTFjxvCSV5chQdAhSBD0UxB+++03HD58WKvw8/PDiRMnhH7pCQ4JQvOgW7dumDVrFifRy9cIFi6jMWvWLPz000+YOXMmpk2bhtGjR3NWo069Xr2EPn1NDgmCDkGCoJ+C0KNHD61rBwUFabwLqSFDgtA84GsEYdeuXcjPz8fVq1eRnZ3NWY1XoREE7iFBaAAkCCQIzRUShObBvn37OMv1qiDU7rmj6Y6+2uDo6Mhbbl2FBEGHIEEgQWiukCAYFrm5ubh69Sqv+a1vWyKy7CYv+ZVKJUxMTHjJrU+QIOgQJAgkCM0VEgTDIiMjA0eOHEFFRQXnkZycDD8/PyxJno0ZO6bxUqOsrAxdunQR+jQKDgmCDkGCQILQXCFBMCwyMjIwY8YMeHt7cx5r166Fp6cnRp0biC5TjXipsWvXLvz0009Cn0bBIUHQIUgQSBCaKyQIhkVGRgZOnz7NS26lUgk/Pz+MPjcQofmarZ6rTY3ffvuNl9z6BAkCx6xevRpbtmzRKtasWQNnZ2cShGYkCKdPn8bUqVPh4uKiVSxYsEDjbc51GRIE3UQqlWq1ZwHDMJBKpTz06H9os1CSQqFARkaG2uNYluVlQyd9Q68FgWVZyOXyBm/tyacgrFy5Uus3Cz8/v0a1J0HQP0EIDAzEkiVLtG6/ceNGSCQS3l7PTQUJgm6SnZ2Nc+fO8VpDJpNhz549OHLkCBISEjRup40gVFVVwc/Pr2EdbMborSCkpaXBxMQEgwYNwpAhQ2Bvb6/xinR/JQhisRjnz5/HxYsXtQobGxut/9mTIJAgaNP3p0+fIi0tTauoqKjg6k+yUZAg6Cbp6eno2rUrRowYwVt069YNw4cPx4gRI2BkZKRxu05ebdHP/vcG1Ro2bBgv+zAYKnorCLa2tnWW1IyLi8P58+ffOI5lWYSEhODcuXOq2Lp1Kzw9PesNDw8P+Pr64siRI1qFt7c3jh49qlX4+/tj7969Wrc/cOAA/P39tW7fmL77+flh//79Wrffs2cPAgICGtVe27a+vr44dOiQ1u137NihdduAgIBGP+c+Pj7w9fXVKjZv3vzWvwVvb29O/2b/ChIE3aQpRhDKysoQHBz81v/hb4NGEPhHbwUhICAAa9asQVRUFMLDw2FhYYG0tDROaxAE0TSQIOgmIpEIsbGxvNeRy+WorKxsUBttBEEmkyEsrGFtmjN6KwjAywknjx49QnJyMm8bdBAEwT+6LAgsy6KmpgYlJSVgGEajOU+GIgi6TFPv5tgc0WtBIAjCMNBVQVAqlRgyZAhiY2ORmJiIEydOIDIyUm07EgT+IUHgHxIEgiAER1cFQaFQwMrKCi9evEBFRQXu3LmDgICAN46TSCQoKChQxYEDBxpdm/hrSBD4hwThNe7duwd3d3fs2rWryWPbtm1wcnISpPauXbswadKkZll7zZo1gj3nXl5ecHR0FOyxm5ubC/0nB0B3BQEAysvLceTIEbi7uyMsLEyjSwz+/v6cA8XUXgAACk9JREFU1CbeDgkC/5AgvEZ0dDQKCwsFqV1RUYFLly4JUhvgdivWhuLq6ipY7bi4OK0Wg+EChmEQGBgoSG0AsLCwEKz2q+iyIGgDCQL/kCDwDwnCa5AgCAMJgjCQIPADCQL/kCDwDwnCa5AgCAMJgjCQIPCDv78/lErlG6FQKPQiGIYRvA/qYkWaAyJENwTvhyGcS4VC8dbXKwnCKzx69AglJSWC1JZIJILeo+vl5SVY7Z07dwpWOyEhAUVFRYLUVigUuHiRnw1nNMHe3l6w2q9iaIKwc+dOrFq16o2YPXs2evXqhf79++t0fP/994L3QV10G/Ur+v7RR/B+qIv27dsL3gd10bVr13pfr6tWreJt0y1ADwWBIIimx9AE4W08f/5csBHKhqCrO96+SmZmptBd0AgfHx+hu6CW6OhoQeqSIBAEoRYSBN2CBIE7SBDeDgkCQRBqIUHQLUgQuIME4e2QIBAEoZbmIgg1NTWQy+VCd0MtQk3abQgymUzoLmiEUPObGkJD98HgChIEgiDU0lwEgSCI/6FXgiCRSODq6ootW7aAYZgmqSmXy7F27VrMnj0b2dnZUCgU2LVrF5ydnZvMkKOiohATEwOWZXH16lU4OjoiKSmJ97pFRUVYsGABfH19wbIsYmJisGDBAty+fZv32sXFxXB0dMTq1auhUChQXl6OlStXYv/+/RqtlKctDMNg8+bNAF6u879nzx4sWrQIZWVlkMvl2Lp1K1xdXXl77s+fP4+ioiIolUrs27cPM2bMQHR0NFiWxfHjx7Fw4UJBhsBJEAh1SKVSbN26FVu2bMGuXbvAsiwiIiKwZcsWbNmypUn+bxDcoleCsHLlSrx48QIhISEIDQ1tkpoPHjzAhQsXIJPJYGJiguDgYFy6dAmZmZlwcnLivb5cLkfXrl1x8eJFFBcXY/bs2WAYBqamprzukMmyLMzNzSGXy3Hy5Enk5OTA2NgYcrkcpqamvMvRsmXLkJKSgrNnz+LBgwewsLBAcXExfHx8EB8fz1vd8ePHo1OnTgCA2NhYnDt3DiKRCA4ODtixYwcSEhIQFRWFQ4cOcV5779696NChA7KyspCSkoItW7ZALpejc+fOSE9Ph6enJ8rLyzFs2DDOa6uDBIFQx6VLlxAQEACxWIzKykqwLIu+fftCJBJBLBbrzSUH4n/olSAMHz4cUqkUFRUV2LhxY5PWTkpKwooVK7Bq1SoUFhZCLBajffv2vNZkWRbLli1DaGgoLl68iNTUVNWEGisrK16vlTIMg1GjRsHc3By2trZgGAaLFy8GADg7O/M+ASkqKgpmZmZo3749ZDIZ+vTpAwC4f/8+fH19eavLMAzGjh0LANi1axdqamoAACNHjsTw4cNRUlKCmpoazJkzh/PaUqkUPj4+yMrKAvDy+a+srMTgwYNx7NgxPHjwAADwxx9/cF5bHc1NEPgcpTJU3Nzc8Mcff6B79+44fPgwWJbF999/j4EDB6J///7Izs4Wuot6yauvxaZ+XeqVIIwZM0YlCGvWrGmyuk+fPsXo0aMhlUrh6uqKoqIiiMVifP/997zWjYmJgbu7O44fP469e/ciJSVF9eY4YcIEXo1cLpejQ4cOUCqVOHjwICIiIlRb5Do7O+P58+e81QYAOzs7xMXF4dy5c7hw4QIGDRoE4KUg7N27l9fatYKwf/9+lSAMHToU5ubmKkGws7PjpfargiASifDzzz+jrKwMZ86cQWxsLABgyJAhvNT+K5qjIOiiJNSuoKeLXLt2DVlZWVAqlejduzekUinWrVsHhmFQU1ODoUOHCt1FFbXPry4+x6/zah+b+vnXK0FYvXo1iouLcenSJVy+fLlJahYXF8PU1BSVlZWQyWQ4d+6c6g/BwcGB19oFBQW4ffs2fHx84OHhgfz8fMybNw8KhYL3SwxKpRJDhw6FXC6Ht7c34uLiMHz4cDAMAzMzM9UbJ1+YmJiguroaBQUF8PT0hLm5OUQiEfz8/PDw4UNea9cKQlxcHK5cuYLy8nLY29vDy8sLSUlJiImJ4W274FpBYBgGffr0QVlZGWpqapCdnQ1vb29IJBIShGaMrsoBAAQGBqK6uhoAMHjwYNTU1GDr1q1gWRYKhUKQ1+3b0OXzqI6mlBq9EoSysjLMnj0brq6uTTZJ8dSpU7CysoK1tbVqYuLy5cuxdOnSJrumlpKSggcPHoBlWRw5cgQzZ87k9Tp8Lenp6bC1tYWHhweUSiVCQ0MxY8YM3Lhxg/faaWlpmD59Ouzt7VFTU4MXL17Azs4O3t7evP+B1N5jrlAosHz5cjg4OKC4uBhSqRTz58/ndYLqtWvXUFxcjOjoaIwfPx7W1tZwcHCAQqGAh4cH5syZg5ycHF5q/xUkCIQ6nj9/jh49eqBbt27YvXs3WJbFjh078Msvv6Br165ITk4Wuosq9GHkQBfQK0EgCEIYDFkQ9GWomSCaGhIEgiDUYsiCUEt1dTVYltXp6/y6jj5d29cXas+lEOeVBIEgCLU0B0F4FXqD0x4SBG4hQSAIQqdpboJAEAQJAkEQGkCCQBDNDxIEgiDUQoJAEM0PEgSCINRCgkAQzQ8SBIIg1EKCQBDNDxIEgiDUQoJAEM0PEgSCINRCgkAQzQ8SBIIg1EKCQBDNDxIEokGwLIvTp0+rvk9MTERxcTGOHz8uYK8IviFBIBoDLZykn5AgEA0iJyenznbLp0+fRkJCAoyNjQXsFcE3JAhEYzhz5ozq60WLFsHZ2VnA3hCaQoJAAAC8vb1hZWWFsWPHwtzcHIsXL0Z4eDiCgoLg7u6OYcOG4fz58zh37hzy8vKwfPlyHDp0CD/99BMJQjOABIGoD5lMhoiICAQGBiIiIgI3b94EANy6dQtBQUF4+v/btYOWROIwjuNvwtfQm+kYosgk5UFBhA6ePSVSwVz0IAqRSlARwQiKiEEHjxXEDKgxxBwshBJhECF0Zr4dll0QZLdYdgfp+cDvNJfnf/sexjDo9/s8Pz9jGAbn5+cEg0F2dnZ8vlx8hgSCACCfz6PrOnd3d1SrVV5fXzk8PCQQCOA4Dt1ul3q9TiaTwfM8IpEInudxcXEhgfANSCCIVWzbplKpkM1maTabJJNJdF0nl8txe3uLqqoUi0UWiwXpdJrBYCCBsEYkEATwIxAeHx95eHhA0zTG4zEHBwdsbGywWCxoNBpcXl6yt7cHwNbWFq7rUiqVJBC+AQkEsYpt2+i6ztXVFS8vL+zv76NpGvf398xmM1RVJRwO4zgOJycnACiKIoGwJiQQBAC1Wg3Lsuj1elxfXzOZTCiXy5imSSgUIpVKcXp6SrvdBqDT6aAoCvF4HNM02d3d9fkF4l+SQBCr2LaNYRhLgfD09MTm5iaxWIyjoyOOj4/xPI9oNEqhUCAcDksgrAkJBPFbiUSCm5sbtre3sSxr6W9k13V9vEz8TxII4rNGoxFnZ2d0u11arRaO4/z6Np/PfbxMfJUEgvij4XDI+/u732cIH0kgiK+YTqe8vb35fYb4S0uBIJPJZDKZTPZzH0G+AYDOnjFJAAAAAElFTkSuQmCC;" parent="1" vertex="1">
          <mxGeometry x="2790" y="482" width="520" height="198" as="geometry" />
        </mxCell>
        <mxCell id="K2KhxqsfXJvNr6pBZJx8-8" value="" style="shape=image;verticalLabelPosition=bottom;labelBackgroundColor=#ffffff;verticalAlign=top;aspect=fixed;imageAspect=0;image=data:image/png,iVBORw0KGgoAAAANSUhEUgAABBYAAAFFCAYAAABYAG5UAAAABHNCSVQICAgIfAhkiAAAABl0RVh0U29mdHdhcmUAZ25vbWUtc2NyZWVuc2hvdO8Dvz4AAAAqdEVYdENyZWF0aW9uIFRpbWUAU28gMjcgSnVuIDIwMjEgMTY6NTk6MDEgQ0VTVCiwxYUAACAASURBVHic7N1nQBTX1wbwh6WIdMGCiooFFWuixh4bEFtsWIJYQRD731hjSYwmJkaNGks0Nuw12HvH3juiYsGIgAgqHRbYfT/wOrCgsC67O8vy/D7tHffOHGRm2D1z77kGtyJuyUFEREREREREpAIjsQMgIiLShIBNAQi6HVSgfdiUsMGYaWPUFBERERGRfmJigYiI9NK1C9dwdM/RAu2jXIVyTCwQERER5UMidgBEREREREREVHhxxAIREeklt2/dULla5QLtw9LKUk3REBEREekvAxZvJCIiIiIiIiJVcSoEEREREREREamMiQUiHXbl7BV0adoFg7oMEjsUIiKiIicsNAwudV3g29MXMVExYodDRKSzmFgg0lGBRwMxuv9oRIZHYsiYIWKHQ0REVOQ4ODqgQ48OuH7xOrx7eCMyPFLskIiIdBITC0Q66OShk5jgOwEyuQx//PMHWrm1EjskIiKiImnirIlw7+eO/579B+9u3ggLDRM7JCIincPijUQ65vj+45gyYgoy0jMwY8EMdO/bXeyQiAqV0KehuHv9LuTyrD9v9RvVh2M1xwLtNzkpGcf2HVPYVr1WdTjXcy7QfolI98kyZBjvMx5njpxBKftSWLt7LRwcHcQOi4hIZzCxQKRDrl+8jhEeI5CWloZhE4bBb7yf2CERFUpta7fF+7fvhXZZh7I4cOUAJBLVB+rNmToH2/23C+1qNath5b8rUcKuRIFiJaLCITUlFX59/HDn2h2Uq1AO6/atQyn7UmKHRUSkEzgVgkhHPHn4BN97fY+0tDR06dOFSQWiAhgzdYxCOyIsApP9Jqu8v4P/HlRIKjjVcsI/O/9hUoGoCClmWgwL1i5AmbJlEP4yHCM9RyI5KVnssIiIdAITC0Q6ICYqBqP7jUZCXAKcajlh+tzpYodEVKh16dMl1zDls8fPIvhu8Gfva8+WPfh53M9C26mWE/7Z8Q9sS9oWNEwiKmRsS9pi/pr5MDExQUhwCGZPmi12SEREOsFw2IRhP4sdBFFRJpfLMd5nPB7efwgzczP8s/Mf2JWyEzssokJNYihBZafKOH/yPFJTUgEAGRkZiI+Lh+u3rjAwMFBqPwGbAjB3+lykSdMAAE7OHKlAVNSVLlsadqXtcPbYWYQEh8C+nD1q1q0pdlhERKLiiAUikW1auQmXAy8DAH6c9yMqVakkckRE+qFZ62Zo2a6lwrZj+47hechzpfr/u/Ff/DnjTyExITGUYPCowUwqEBHc+7mjTYc2AIA50+YgJDhE3ICIiETGxAKRiB4FPcKS2UsAAF2/64oOPTqIHBGRfuk3tB8srCwUtq35aw0y0jPy7Ldr8y78OeNPYf60sbExRk0ehU7unTQWKxEVLtPnToeNrQ1SU1IxyXcSkhKTxA6JiEg0TCwQiSQ1JRVThk9BWloaSpYpiQmzJogdEpHeca7njK9dv1bYdmjXIbwMffnJPoHHAvHH1D+QkpwCIDOpMHT8UHiN9tJorERUuNiVssPUOVMBZC5z++ukX0WOiIhIPEwsEInkz5//FIZkT/l9CiytLEWOiEg/eY3ygomJicK2VQtXQZYhy/XelOQU+C/1h1QqBQAYGRth2IRh8Pmfj1ZiJaLCxa2LG9p2aAsAOLzrMI7tOyZyRERE4mBigUgEgccCsXP9TgBA8zbN0a5jO5EjItJfTs5OaNdZ8Ro7tOsQ/gv9T2GbNFWKob2H4s61OwAAAwMDjJw8Et5jvLUWKxEVPt//9D2MjI0AAAtnLhRGOxERFSVMLBBpWXJSMn6Z+AuAzKehE3+dKHJERPpvzNQxubZ9qG8CAInxifDp6YN7N+4J2ybMnIDBIwdrIzwiKsQqVK4ADy8PAEBkeCTW/LVG5IiIiLSPiQUiLdu8ajNiomIAAN09usOxqqO4AREVAWXKlcGMP2cobDt74iyCbgch9l0sxgwYo5BUmDx7MjyGeGg7TCIqpHzH+cLaxhoAsGH5BoS9CBM5IiIi7WJigUiLYt/FYv3f6wFkjlZgMTgi7ZBIJOjo3hFVqlcRtqWnpWPeT/MwwWcCbl65KWzv7tkdfQb1gUTCP5EFFRUZhX3b9yH6dbTYoRBplJW1FfzG+wEApFIp5s+YL3JERETaxU9NRFq0ZvEaJMQlAAC69OmCchXKiRwRUdFRzLQYBo0YBAMDA2HbnWt3cP3idaFdoXIF+I3zg8SQfx4LKvZ9LDxcPTBj7AyMGzJO6X7nT55Hz9Y9MW3kNA1GR6R+vQf1RpmyZQAAgUcDcfH0RZEjIiLSHn5yItKSyPBIbPffDgAwNDKE92gWhCPStq7fdUVZh7If/bdKVSphxfYVsC9vr+Wo9NP+HfvxLuYdAECaIlWqT3paOn4e9zOePX6GQ7sO4dnjZ5oMkUitjIyN4OnrKbQXzlooYjRERNrFxAKRlqyYtwLS1MwP1517doZDJQeRIyIqmnzH+uYakeBY1RFLtyzlKCI1unb+mvD6y6ZfKtXn7s27Qg0aI2Mj3iep0OnZvyfMLc0BAE8ePuGoBSIqMphYINKC5yHPsX/nfqHN2gpE4rG2tYaRkZHCtoHDB/JLrBrJMmQKdSu+avGVUv1uXLwhvHau5wyTYiZqj41Ik8wtzdGzf0+hvX75ehGjISLSHiYWiLTAf6k/ZBkyAEDDZg25EgSRSORyOSb6ThRGD32wcsFKyOVykaLSP4+CHgn1ZAwMDNCwaUOl+l27kDXK4YuvvtBIbESa5unrCSPjzOTl1XNX8fD+Q5EjIiLSPCYWiDQsMT4Rx/cfF9rd+3YXMRqioistLQ1+vf2QkZ6R698iwyOxY90OEaLST9kLYlZzrgbrEtb59pFKpbhz/Y7QbvJ1E43ERqRpZcqWgUsnF6G9YfkGEaMhItIOJhaINOzw7sNISU4BkDlE0vVbV5EjIip6EhMSMXbgWIUn4nUb1FV4z4r5K7Qdlt7Knlho1LyRUn3u3bgnjCQxNDLEl02Uq8tApIs69+osvD627xgiX0WKGA0RkeYZ5f8WIiqIXZt2Ca87dOsA0+KmIkZDVPTEx8Vj2shpuHgmq4jayB9GwsPLA749fYVhynHv47Bt7TZ4eHuIFmfOKRqaYm5hrrF7kUymWF9B2cRC9mSEc11nmJmbqT02Im1p3qY5bGxt8P7te2SkZ2Drmq34/qfvxQ6LiEhjmFgg0qCH9x8i+F6w0O7Wt5uI0RAVPbHvYzFj7AycO3FO2DZi0gh4jfSCoZEhBg4fiKkjpwLI/EK8ZvEaNG7ZGFWqV9FqnH3d+mp9Hrb3GG+MnjJa7fvNWV+hQZMGSvXLPpqkYTPlajIQ6SpDI0O079ZeWGb6yO4j+N/0/0Ei4WBhItJPTCwQaVD20QoOlRxyDb0mIs2Ji43DjLEzEHg0EAAgMZTAe5Q3fMb6wMDAAADQ0rUl6nxZB/dv3QcARL+Oxuq/VmPWollC8TVt+KLJF8iQZSBNmqaV45lbmKNqjaoa2bdCfYWa1WBja5NvH2mqFPdu3BPajVs21khsRNrUuWdnIbEQFRmF21dvo0FT5RJtRESFDRMLRBqSkpyCw7sPC+2v3b4WMRqioiUxPhE/jv4RZ4+fBQBhdMLIH0YqvM/SyhJ9ffpi2shpwrbDuw7D538+Wh21MPnXyVo7lqZlXzKyYXPlRh7cvXEXUmnmNBAjYyPWVyC9ULdhXTg4OiAsNAwAcHTvUSYWiEhvcTwWkYacOXJGGA4MAK1cW4kYDVHRMslvkpBUAICKlStizNQxH31vi3YtUOfLOgrbVi1aJSwRS8qTyWS4eblg9RXqflkXxc2Kqz02IjF87Zr1UOH4/uO8rxCR3mJigUhDzp88L7w2MzdT+skdERXMjUs3cONS1lPzUval8OeaPz/5fmsba3gMUSzYeGT3Efz3/D+NxaivHgU9QnxcvND+srFyIw+yJyMaf81pEKQ/mrdpLrx+F/MOV89fFTEaIiLNYWKBSAPkcjkuBV4S2s1aN4OxsbGIEREVDTcu3YBvT1+kpqQCAMo6lMWqgFWo7FQ5z36t3VrDua6zwra/Zv+lsTj1VfaEToXKFWBb0jbfPlKpFHeu3xHaOQs3xkTFKKwyQVSYNGreSOHv/9G9R0WMhohIc5hYINKAh/cf4m30W6Hd0rWliNEQFQ2XAy9jRN8RkMvlAIDyFctj2ZZlqFSlUr59Laws4OnrqbDt/Mnz2LZ2m0Zi1VfZpzRUr1VdqT53rt0Rltk0NDLMNS1lu/92bF29VX1BEmmRaXFThZohZ46eEe5RRET6hIkFIg24dPqSQlvZecZEpJrzJ89jgu8E4QuqQyUHLN64ON+RCtl90/UbhYKN6Wnp2LFuB6JfR6s9Xn0kk8lw81LWyIJS9qWU6nf57GXhdfVa1XPVVzh/6jyXn6RCrVmbZsLr92/f4+mjpyJGQ0SkGUwsEGnAxTMXhde2JW3hUMlBxGiI9FvgsUBMGzkNifGJwrYF/gs+e1UHk2ImGDRikMI6889DnuP4/uNqi1WfPX7wWKG+gqmpab59Yt/FYvfm3UI752iFmKgYPLr/CG3at1FbnETa1qRVE4V29ilDRET6gokFIjVLTEhUmC9cr1E9EaMh0m+BxwIx438zEBcbJ2wb4DcAlaspP1Ihu67fdUVZh7IK27au3YrYd7EFirMoyD4NAgAiwyPzfL9MJsOU4VPwLuadsC3n7+1gwEHUb1Qf9uXt1RcokZY51XSCiYmJ0GZigYj0ERMLRGp27fw1pKelC+16DZhYINKEcyfO4acxPyH2feaXfolEgj6D+2Dcz+NgZGyk8n59xvpAYpj15/Hl85c4FHCowPHqu5yJhStnryAlOeWj75WmSjFj7AxER0XDa7SXsN3YJKvIXXpaOgI2BaB99/aaCZhIS4yMjVC9dlbNESYWiEgfMbFApGa3r91WaHPEApH6SaVSzJk6RxipIJFI4N7fHVN+n1LgfXfv2x325RSfkK9duhZSqbTA+9ZXMpkMty7fUtj2LuYd/pj2B9LS0hS2hz4NxeAug/Hi2Qss374c/Xz7wcbWBgAQEhwivG/J70uQnpaO7n27a/4HINIw53pZq868jX6L5yHPRYyGiEj9VH+kQ6QlgccC8f7te5X6Nm/THJbWljAtnv9cX3UJeZD1wVgikaBW/VpaOzZRUTFr3CyEvwwX2j0H9MTUOVPVtn+/8X6YMXaG0I5+HY1dG3fBY4iH2o6hT0KCQ4Qkj4GBARasXYDl85djz9Y9uH7xOup/VR9m5mZ4+vApnjx8Ak9fT3iN8oJJsczh4Ys3LsakoZOwa/MuJCcl49njZ4gIi8CK7StQzLSYmD8akVrk/Cxw49KNzyouS0Sk6wxuRdzimjek0wZ0GoD7t+6r3L9M2TLw9PVE/6H9FYY3a4prfVfERMUAyFzHfd/FfRo/ZmGTEJeAoNtBuQpaaZtMJkPkq0iFp6Smpqb4quVXCgX8Ckoul0MulyPoVhDexrxV+LdmrZvB2MQYBgYGajsekbZtXrUZ83+aDwBwquWEHSd3AMhMtN65cQdREVGwKWEDRydH1GtQDxZWFrn2IZVKcfbYWYQ+DYVtSVu4dXGDpZWlVn+OooL34Czaugc/DnqM71y/E9rdPLrh54U/a/SYRU1e55OBgYFof2e1dZ4TiY0jFkinhT4JxZvINwXax+uI11g4ayFWLlyJlTtXanQEwdvot0JSAchdiIyAvdv2Yu2StUiTpuHQNfHmrV+7cA1+vf0+up64iYkJfMf5wnu0d4H/6D8KeoT1f6/H4V2HP/me/kP7Y8DwAShtX7pAxyISS/b6CtmXhnSq5QSnWk5K7cPExASu37qqPTZSxHtwbtq4B1etURXGxsbC1KBnj59p7FhFUV7nEwA0bd0Uy7Ys0/oXeXWf5wlxCXjy6InK8VhYWqBazWoq9yfKCxMLpNOePn6K1xGvhbaZuRmO3T6Wb79bV27h3IlzOLzrsLD8WWJ8Iob2GoqV/2ouufA46LFCm8Mcs+zZugerF61GxKsIyDJkuSrva0tiQiLGDxmPm5dufvIDiFQqxbI5y3D3+l3MWzVP5aHYO9fvxLI5y4Tigp+yaeUmfNP1m0KfWJBKpTiw8wCO7D6CPoP78EtiESGXy3Hz0k2h3ah5IxGj0X1iXSe8B3+aNu7BhkaGKFehHF48ewGAiQV1UeZ8AoDLgZfRqkYr/Pb3b2jl1kon4lLlPH9w5wH8+vipHFfDZg2xetdqlfsT5YWJBSpUDAwMYG5hnu/7Wrq0REuXlvD5nw+W/bEMe7ftBZB5o/fr44dT90/B2Ng4n718vscPFBMLjtUc1X6MwuBR0CM8f/wcqampWDF/BQAgKiIKMplM1Lhi38di2shpuHL2isL2Vm6tYGZhBgC4ffU2Il9lLpN37sQ5TBk+Bb8s+UWp8+6D9LR0zJowC/t37FfY3qh5I5QsU1Jh26mDpwp9UcDEhEQEbAzAxn82Ivp1NACgQdMGTCwUESEPFOsrNGzaMJ8eRZM2rxPeg3XzHly+UnkhsZCYkIjXEa9RpmwZrRxbXy2atUjp8ykxIRFThk/BjlM7UL5ieY3FpK3znEjXMLFAOm3Lqi0KbU8fz8/qX8q+FCb9Ogn/PfsPt65mVixPiEvA5pWbMXjkYHWFKcg5YqGKUxW1H6MwOLL7CNYtWyd2GLlcOn0JF05dENrN2zSH33g/1KxXU1hjPCIsArs378aqRasAAKePnMbi2YuVXm0gNSUVf0z/Q+EDbYMmDTBo5CA0bNYw14eGp4+ewn+JPyytC99c8vdv32PL6i3Yvna78MWyboO68B7tjTYd2ogbHGlN9mkQ1WpWE1Z4oExiXCe8B+vmPbiCY4Vcx2ZiQXVnjpzB0b1HhXb5iuXx27Lf8jyfkhKTsOiXRfjpz580VsNFG+f5B5WqVEL5SsonSZyclZuaRqQKJhZIp0VHRSu0cz5pUIaZuRkGDh8oJBYAYNuabRg4fKDa59o9DlZMLFSsUlGt+y/MnOs54+mjp5CmivN0PvheMH6f8rvQti9nj6VbluYq5lTWoSyGTRiG9Ix0rFu6DnK5HMf2HcN3Xt+hSvX8E0VBt4Owe/Nuod1rYC9MmDnhk0Mcq9aoil+X/qriTyWOyPBIbFyxEbs27UJKcgoAoEmrJvAe7Y3GLRuLHB1p26fqKxR1unad8B4s/j3YwdFBof3s8TM0b9NcK8fWN4nxiVizeI0w3dW+nD1WbF+R6//4Y+fTiQMn8E3Xb+DWxU3tcWnrPP+g63dd4T3GW23xExUES5GSzkqMT0SaNGv9c0Mjw49WEldGzmxu9roN6hQRFiG8NjExKbJP7mxsbVCxSkU4OTth/pr5mL9mPtYfWA/78vaixbR19VbhaaFpcVMs37H8kxWiJYYSjJk6BrYlbQFkPnHcsW5HvscIexGGqSOyljxs06ENJv06SW+Wywt9EooZY2egS9Mu2LJqC6SpUrh0dsGWo1uwYvsKJhWKILlcjpuXWV8hO124TngPzqRr9+AKlXKPWCDVnD91XlgxTCKRYMjYIbmSCh/kPJ8AYMPyDULCT520cZ4T6SomFkhnHdt3TOGLemn70ujk3kmlfZUsXRI169RUV2gflZyUjIS4BKFdyr6URo+nywaNGIS9F/Zix6kdcOnkApdOLhqpaaGskOAQnDtxTmh36N4BjlUd8+03aMQg4fXJQyfx5GHelZj3bN2jkLTyHu0t6s+tLkG3gzBhyAS4t3LHvu2Zy6d28+iGgLMBmL96PpzrOYscIYkl5EGIUBhPIpGgUYuim1jQpeuE9+BMunYPzvnF99WLVyJFUvit/3u98NrMwgy9BvTKt0/28+n+rfu4cemGWmPS1nlOpKs4FYJ0lkyuWGSqINMWoqOi8fD+Q6GtibWMcy6LWapM0U0s6JrIV5F4//a90K79ZW2l+jVo2gDFzYojOSkZ0a+jEfkq8pPLNP337D8cCshauq1Fuxao82WdggUusqvnr2LtkrVCASrT4qZw7++OgcMHcl4wAYDCaIUadWrA2sZaxGjEweskf7wHZypZWnE6Z8ybmE+8k/KSc5WFli4tleqX/Xz62H4KShvnOZEuY2KBdNaS2UsU2qOnjFbbvj19PNVeX+HNa8XEQumyhXvpQH2S/clGuQrllHqyAQC1v6gN0+KmwoeQxb8t/uQHmP079gsjbExMTOA1yksjCSxNk8vlOH3kNNYuXoug20EAAGsba3zn/R08fTxhXaLofXGkTzMyzvoY0cOzh4iRaBevk8/De3AmS2tLSCQSYXWOmCgmFlRx8fRFBN8NFtrKrkTzOeeTKrRxnhPpMiYWqEhYMW+FQrtuw7pqP0ZURJRCmyMWipYLp7MqQJuYmhS6Inbpaek4vPsw/Jf643nIcwCZ03kG+A1AzwE9YWZuJnKEpIu69e0GKxsrlK9YHrW/UO7pXGHG60R3FYZ7sEQigaW1JWLfZU4fin0fi7S0NJ2arlHYmFuYo0oN5Ysd1m1QF2ePn9VgRERFFxMLpJNCn4QiLS2rcKOVtZXKRafu37qv8IGjWs1qcO2s/nXDc45YsLblEyt94DXKCwtmLsjzPdcvXseT4Kw5kd6jsio0nzp8CsF3gnEw4GCufqOnjIbLty7C8lNiSElOwZ4te7B++XphTe0KlStg8MjB6NKnCz/wUp6MjY3xTddvxA5D43idiEff7sElbEsIiQUgczqEfTnximoWRs9CngmvrUtYo0GTBkr3bduxrZBYiI+NR3JSMoqbFVd7jJ9LmfOcSNcxsUA6KfBYIJISk4R2WYeyqP9V/c/ez9vot1jy+xKkpqQCyKzA6zXaC4ZGhmqL9YOcNRYsLTW/JjZpXva1zf979h/eRL7JVZgzNSVVIRFmaW2J/579h3079mHdsnXISM/46L6njpyKbue64YfffoBpcVPN/ACfEBcbh+3+27Fl1RZhTmiN2jXgNdoLbl3c1D5ViKgw4nUiPn27B9vY2gDZFoOIiWJi4XMFHg1Uy34iX0XiXcw7nUgsKHOe5+fW1VvCdAoAqFK9Cs8t0iomFkhvvX/7HlOGT8HV81eFbR7eHiqvLJGfN1GKiQVVl8Yk3ZXzw+sH2Uer2JW2Q8XKFTHsu2EKq5qYW5rDwMBAYeUQANi7bS8MJAaYOGuiVoZRR7+OxqaVm/Dvhn+RmJAIILNw1JAxQ9C8LddTJwJ4negqfbgH29gpLkMdHRWt8WNS4fKp8/xTgm4H4Z8//8HV81eFB2kAUKlKJXTr2w0d3TsywUBawcQC6aSD/yoOWezcq7PSfWPfxeLM0TPY7r9dobhPpSqV0Ne7r9pizCnnesgWlkws6IPsVcY/5cDOA8LrxPhEzJowCxFhEbCytkILlxZw6eyCEnYlYGBggLfRb3Hq4Ckc2pW13z1b9qBdx3b42vVrjfwMABAWGob1f6/Hvu37IJVKYWBggFZureA92lul0UBE+ojXie7Rl3vwB1bWVgrtuPdxGj8m6T5lzvOP9tt1CEt+X/LRf3vx7AUWz16MPVv3YO7KuahavapCwV0idePZRTop5xq+ZR3KKsxJ/Jj4uHisXbIWwXeCFZaWNDI2Qt8hfdF7YO9ca0irkzRFqtDmiAXd0aJtC2G96th3sbhx6YbShb0+dz3plOQUvPrvFUyLm2LplqWo2yB3odDWbq0hlUpx4sAJYdvaxWvRrHUzjfzRXz5vOVb/tRqyDBkkhhJ0dO8Ir1FecHJ2UvuxiAorXieaU9TvwdnlrOcglUo/8U71eh3xGqP7jcbr8NdqX2YxP0bGRmjYrCHmrZqn1eNqmzbP8w+ePsqaV2NsbAwzi8xRN7IMGeLj4gFkTq3wcPXAmKlj4DXaS6XjECmDiQXSORdOXci1baLvRJX2Va1mNQwZMwQdenQoaFj5Sk1NVWjrwpw9ylS9dnXhdWJCIp6HPFfqj/3NyzcVan18jqHfD/3oB1og80PWvFXzMHbQWAQey5wrevvabVw+e1kjS0ydPnwasozM5c3qNqiLfr79+GWJKAdeJ5pT1O/BCsc2UfzonfOhhKakp6UjPjYe8XHxoiQWPnzJ1WdinOcAYGBggDpf1oHXaC+07dA28/jxidiyZguWz10u/L73bNuDDj06oKxDWZWPRZQXJhZI59y8crPAf/TqfFkHjb9ujP5D+6OEXQk1RZY3aarihwMON9Md5SuVh11pO2HN8L9m/4VeA/NfX3rdsnUK8xWVZWFlodRTgYEjBuLKuSvCNBpNrV29Zs8abPh7A7b7b8eda3fQv2N/NP66MYaMHoLGXzdW+/GICiNeJ5pT1O/B2eVcQSTnQwlNKV+xPA7fOKyVYxVV2j7PP1iyaQlatGuhsM3c0hy+Y30hTZFi9V+rAWSOXPhxzI9YvWu1ysciygu/+ZDOK21fGq2+aaX0+5u1aYYWbVugmGkxDUaVW84PB0ZGvLx0hWNVR7h2dsV2/+0AMjP5Pwz7Ab8v/x0GBgYf7XP/1v2Pjp5RxrAJw5R6X4MmDVDcrHiu+hzqZmlliZE/jMTgUYMRsDEAG//ZiKvnruLquauoVb8WvMd4o22HtqxwT0UarxPNKer34OxMiilOhUiTKl+kj3Sbts9zIHN0VV4FZX2/98X1i9dx+9ptAJkjc66cvYImrZqofEyiT+E3H9IpiQmJ2LFuh8K2GQtnoHkb3a/CnTPbrIklLT8mPi4+12gJTTG3MNf6sojq0nNAT5w4cAIxb2Igl8txdO9RmBQzwY/zf1R4gpSclIyTB09i7vS5kMlkKh2rWDHlk1qDRw7GwlkLAQChIaF4HfEaZcqWUem4+TG3MMfA4QPhMcQDB3YewLpl6/DgzgNMGDIBjlUdMXjUYHTq2SnXEzWiooTXiWbwHpxJrBELpB2aPs9LlCyB9t3aA8hMUk36ZdInkxYf3tOuUzshsZCRnoFVi1YxsUAawcQC6RS5TJ5rKaicFZR1Vc55ktoY/mJOBQAAIABJREFUsdDXra9CoUpt8B7jjdFTRmv1mOrg5OwEl84uComr/Tv24+H9hzCUGKKFSwtcOHkBaWlpQjGksg5l4fqtKzau2Agg8wtHfiNhStmXguu3rkrHZWWTdX6npaV9cr11dTIxMYF7P3d079sdJw+ehP8SfwTfC8bP3/+M5XOXY8DwAXDv566zdUJ6fN1DWAKQipaAwABYWlnm/0Y1KOzXia7hPThTruKNWqqxQNqh6fPcydkJc1bM+ayYyjqUhbGxsbCE5evw15CmSnONniEqKCYWSKe8jnit0Laytio0H9oyZIofRvLKIKvLF02+QIYsQ2tDKc0tzFG1RlWtHEsTxkwbg8T4RBwMyFrONORBCAAoJGgkhhI413XG7GWz8eOYH4Xt5SqWg10puzyPYWxsDBtbmzzfoyskEgncurjBrYsbLgVegv8Sf1y7cA3zf5qPVQtWwWOIB/oO6QvrEtZih6rgzes3SIxnYqEoUvUJdkEU1utEF/EenPmzZZeekS5SJKQp2jjPP4frt6747Yff8C7mHQAg7EUYoqOiUa5CObUdgwhgYoF0zLa12xTaX7X4qtB8kc35FCI9XfMfFib/Olnjx9An5hbmmDZ3GuRyOc6fPI+4WMX1w01MTFCmfBm4fuuKMVPHAMhc1z4/bTu2FZaYKqyatW6GZq2b4d7Ne/Bf4o8zR8/gnz//wYblG+Dezx0Dhg/Q6PDgz3HizgmtVzUn3SB2orkwXSe6iPfgzNUZsjM1LZzTC8WUfSRrRnoGEuMTYW5prlTf7EuXGxsba6TQtqbOcyJdx8QCkZqwIFPhUNysOGYvm42g20F4HPRY4d+sba3RrmM7oS1NlSo8IXXt/PHhtY5VHYXXn7t2ta6p26AuFvgvwPOQ51i3bB0O7TqEzas2Y/u67ejcszMGjxwMx2qOosZYWOt8kP4oDNeJrirq9+CcDx04HP3z9RzQE6ePnAaQOdL18O7DSq2+AADr/14vvHZ0ckRp+9IaiVET5zmRrmNigXRGXGwc7t24p7At5/I5uizniIUPc9lIN9X+ojZqf1E7z/ds99+u8HQjv/cDn7d2tS6r7FQZMxfNxPBJw7FxxUbs2rQLe7ftxb7t+9CuYzt4jfZS6v+DSJ/xOlFdUb0H56zhoM0VrMJehCEqMgpymXZHfBkbG6NS1UpFcrqQps5zIl3ExALpjIS4BDwKeqSwTVc/GHyMiWmOqRBSzpss7K5fvC68btis4ScTXS3atYBzPWcE3w0u0DFsS9rCwsri8wPVIPty9pg4ayKGfj8UW9dsxbY123Dy0EmcPHQSjb9uDO9R3qwuTUUerxPN0Md7cM4RC5+zgkVBPAp6BA9XD60c62Psy9nj8I3DatlX+UrlYVfaDjFRMQXaT6PmjdQST0Epe56riy5+1iD9wMQC6Yx7NxVHKzhWcyxUN75clZ6lrPRcmAXdDsL5k+eFdt0GdZXuu+LPFUoPy7x4+qLw2q60nc6ugmJdwhrDJgzDoBGDELApAJtWbMLVc1dx9dxV1KpfC96jvdG2Y1tIJJL8d0akp3idqI++3oNzLg+d86GEpjhUcoDHEA9EhUdpvUaNkbERvvjqC7Xtz7Fq5hSGD4kFZX/f29Zuw/u374V2i7bij4r9nPM87EUYNv2zCT/89sNnHSPnz63LnzWocGNigXTG6cOnFdpfNvkStiVtRYrm8+V86sAaC5oX+y4WFpYWMDQyVOt+M9Iz4L/EX5jzWNq+NHp49sizj9coL0waOgkAkBifiNAnofnOsd69eTdi32cNfxw8cnCB4taG4mbF0X9of3h4eeBgwEGsW7YOD+48wASfCXCs6ohBIwehc6/OudZqJypKisp1wnvw50uIV1xSW1vFG80tzPWq4HP1WtWFESrvot9h5/qd6D2od559Vi5YKSRVStiVQMkyJZU6lq6c5/u278OerXtQtUbVfH/W7IJuBykkk6o7V1c9aKI8MGVOpCY5q5UnJSWJFIn+e//2PXzcfdCmVhu0qtkKB3YeUNu+palSzJk2BycPnRS2/br0V1SsUjHPfs3bNheeNKQkpygUiPqUVYtWQZaR+YHCuZ4zWru1LkDk2mVkbIRuHt0QEBiA+Wvmo/YXtRH6NBQzx81E12ZdcfPKTbFDJBKdvl4nvAerLmdigcUbVeMxxAPWNpk1G2QyGVYvWp3nSIwd63YoPLVv06ENatSukecxdOk8T05Kxu4tu5GakooFMxdgx7odSh1nx7odOPhv1rKXVtZW6OvTt2DBE30CRyyQToiKjFKYYwYA7v3cRYpGNbalFEdXxL6N/cQ79d/riNd4++Ztru3SlKwhoGlpaR+dD1uiZAnYl7PPc//L5iwTlhZLSkzCrPGz0OTrJihlXyrPfn/9+hcqVa2E1t+0Rgm7Ern+PSU5BQtnLcS/G/4VtvXo10OpIbjmFubo79cfk/0ynwjt2boH5SqUg/do71xPOSJfReLgvwcR+SoSAGBpZQnf732VXi5Ll0gkErh0coFLJxdcPX8V/kv9cTnwMk4fOo0GTRqIHR5pSFJiEl48e6Hx45QsVTLf67ow0PZ1wnuw7t6DcyYWPnw5ps9Ts05NtG7fGvu27wOQ+Tly9aLVH/19//fsP6z/e72QeLC0soSnj2e+x9C187xM2TKIfh2NlOQULJi5AHK5HK6dXWFX2i7Xe9PS0hB0O0jh5waASbMnsTgkaQwTC6QTUpJSEPNGsQhPhcoVRIpGNSVLKw6py54ZL2q2rdmGdcvW5fme6NfR8Gyf+w97X5++mPTLpDz7Pg5WXLopLS0Nz588z/OPfUhwCPbv2I+YNzFwruuMPoP7oFGLrMJNYaFhWPf3Olw5e0XY1vW7rvjhtx9y1c/4lKatm6KVWyucPX4WAPD33L8RdCcIPv/zgY2tDQDg8O7D2Ld9n8Ka1a5dXNG2Q1uljqHLGrdsjMYtG+Pl85coX7G82OEUGnK5HDcv30SdL+totUK8qi6evojZk2cj/GW4xo81aMQgjP1xrMaPo03auE54D9bde3BifKJCWx8SZ2IZMGwAThw4gaTEzBGief2+s9+vXLu4olrNavnuX5fO8+JmxTF84nCM8xoHqVSK1JRUzJk6BwEbA1CpaiX4jfcTlmJ+8/oN1i5eq1C7AcgsctrSpWW+PzeRqphYIJ2Qs9ChSTETGBgYiBSNanJmjN+9fSdSJPqvYdOGuHv9rtA2tzRHjTp5D2n88IceAILvBWPm+JmffK+BgQG+6fYNfl7482edh1bWVvjt798waegkoSBY4NFABB4N/GSfJq2aYNxP45Q+RmFQ2JKCYgvYGIDZk2dj7I9jMWjEILHDyVNGeoaQVKhRp4bGC4Dp87lUmH823oNVFx8br9BmYkF11WpWw8xFMzFt5DThc6Q6f9+6dp63aNcCv6/4HasXrRZGG4UEhyAkOAQnDpz4ZD+TYiZo2LQh5iyfU6iKolPhw8QC6YRDAYcU2p4+noWuYm3JUoojFrKvSVzUFCQppExfv/F+eBfzDicOnkBp+9KY/OvkfIeT9h3SF+np6di6emu++3fr4oY5y+coHXN25hbmWLhuIUZ5jsK1C9fyfO+YqWPQ16ev8JSBiqb9O/cDAKpUryJyJPk7tOsQwl+Gw6mWE7Yd3yZ2OPQJvAfr7j04+k208LqYaTFYWllq7dj6yPVbV5hbmsN/ib/af9+6eJ6369gO9RvVx+aVm+G/1F+pPks2LkHjrxt/1nGIVGFwK+KWdtecIdJT92/dx4BOA4R2K7dW+GvDXyJGRB8T+z4W65auw43LN3DvRtYSp/bl7dGhewd07NER1Wurp2LyjUs3sHbJWoXlzCysLNBrQC80a9MMjVvyD31R9/L5S3Rt3hUl7Erg+O3jaq86rk4ymQw9W/VE6NNQzF05F25d3MQOiQqhonwPTkpMQotqWUscVqhcAfsu7tNqDPps8ezFeBT0SCd+39o4z1NTUrFi/grcv3U/V52y1u1bo3qt6hgxaUSBjkH0OZhYIFKTiLAIdPqqk9Cu26AuNhzcIGJElJePVY/W1PSbnMcqbNN8SHOWz1uOlQtWKjWvXWzH9h3DZL/JcKzmiIDAAEgkXFiKVFcU78GhT0PRo2XWcoINmjbAmt1rRIlFn+nK7xvQznmuzWuJKC+cCkGkJnal7SCRSIT1iMPDNF/YjFSnzT+6/ANPn/JhGti3vb4VOZL8rf5rNQBgyJghTCpQgRXFe/CbyDcKbdZX0Axd+X0D2olFl35eKtr4yYBITUxMTFCuYjmhHRMVg+SkZBEjIiJddvvabYS9CENlp8qoVb+W2OHkKfBYIEIehKB8xfLo2KOj2OEQFUpRkVEK7dJlSosUCRGR+nHEApEaVa1RVWEJq1f/vVJqSSMiTYqJisHTR0+RmpqqleNZWFmgVr1ahWLpRDEd3HkQQOEYrbDmr8zh2l6jvXS6DkRB8DohTYsIi1BoV3aqLFIkRETqx8QCkRpVqV5FYZmjsNAwJhZIdP079Ufkq0itHrPXgF6YNneaVo9ZmEilUhzbdwwGBgbo1LNT/h1EdOXsFdy7eQ+l7Uuj63ddxQ5HY3idkKaFhoQqtNVVpJKISBcwsUCkRlWrV1Vov3zxUqRIiLL4jfPDnet3kCZN08rxzCzMdP7LstjOHT+HuNg4fNXiK9iXtxc7nDx9qK0waMQgGBsbixyN5vA6IU17FvJMeC0xlPDBAxHpFSYWiNQo5zr02adFEImlu2d3dPfsLnYYlM2Bfw8AAL7trdvTIG5fu43rF6+jhF0JuPd3FzscjeJ1Qpr24ukL4XWlKpU4DYaI9AqLNxKpUWWnygrVeZ8+eipiNESki2LfxeL8yfMoZloMLp1dxA4nT6sXZY5WGDBsAEyLm4ocDVHhFRkeiaTEJKHNaRBEpG+YWCBSI9PipnBwdBDaD+89/Oj6wkRUdB3ZcwTpaelo16kdzC3MxQ7nk4LvBePCqQuwtLJEn8F9xA6HqFB7HvJcoV2jVg2RIiEi0gwmFojUrEGTBsLrxIREvHj2Io93E1FRc/DfwrEaxJpFmStBePp66nQChKgwCL4TrNDmiAUi0jdMLBCpWcNmDRXaD+48ECkSItI1L569wL2b92BX2g5NWzUVO5xPevb4GU4dPgUzczP09ekrdjhEhd7dm3cV2jXr1BQpEiIizWDxRiI1a9S8kUL7we0H6OTOyt9EBBzcmTlaoVOPTpAY6m5uf81fayCXy9FncB9Y21irtI+zx88KU8FK2JZAvUb1AAAZ6Rk4f+o8gm4F4eqFq8L7be1s0WdwHzRtrbsJFyJV3btxT3hdrWY12JW2EzEaIiL1Y2KBSM3KOpRFWYeyiAiLAAAE3w3OpwcRaUNKcgqO7j2KG5du4NWLVwh/GY60dOWWFpRIJChZuiSmz52OWvVrqXR8uVyOgwGZiYXOvTurtA9tCAsNw5G9R1DMtBj6+/VXeT9jB40VEgtftfgKC9ctxPmT57Fm8RqEPAj5aJ/zJ8/Dd5wvfMf6qnxcIl0TFhqGt9FvhXazNs1EjIaISDOYWCDSgEbNG2H/jv0AgPu370OaKoVJMRORoyIqmlJTUrFi/goEbAxAfFy8yvt5E/kGd2/cVTmxcOvqLYS/DEe1mtVQo7buFm5bu3QtZBkyuHu5w66Uep6qJiYk4rfJv+HQrkN5vi8tLQ0r5q9Am/Zt4OTspJZjE4ntzo07Cu0WbVuIFAkRkeYwsUCkAQ2bNRQSC9JUKW5evsnhvUQiCLodhOmjpiP0aajCdgsrCyQnJSMjPUNhu6GRIWxsbXLtx9zCHM51ndGxR0eVYzmw8wAA4Nveulu08XXEaxzYcQDGxsYYNGKQyvs5tOuQwoo4D+48wIM7D2BX2g6de3YWpkUAwIblG/Dw3kNIU6UAAFmGrEAJICJdc+daVmKhmGkxfNn0SxGjISLSDCYWiDSgSasmMDAwED5YXzxzkYkFIi27FHgJYweOhVSa+YW1UfNG6DWgF1q6toS5hTlkMhkeBT3ColmLcPV85lx/AwMDrNu7TmHZWHWQpkpxfP9xSCQSdHRXPTmhaev/Xo+0tDS493NHmbJlVN7P00dPc21zrOqIJZuXwKGS4v+tSycX+PX2E34HRPrm4umLwutGzRvBxIQjGIlI/+hu5SiiQsy+nL3CE7nLgZdFjIao6Ll67irGDspMKpgWN8XUOVOxKmAV2ndvLyydKJFI4FzXGUs2L0Hzts0BAOlp6fhnwT9qjyfwWCAS4hLQ+OvGKG1fWu37V4e30W+xa9MuSAwl8BrlpfJ+pKlSXLtwTWGbg6MDlm5Zmiup8MHQcUNVPh6RLnse8hyv/nsltJu3aS5iNEREmsPEApGGtO/aXngdEhyCN5FvRIyGqOh4E/kGk4ZOgjRVCgMDA/z+9+/oPaj3J99vYmKCUT+MEtpnjp7JNUWioArDNIhN/2xCakoqOvboWKARG9JUqUIFfADo2qcrylcsX9AQiQqds8fPKrSbt2NigYj0ExMLRBri1sUNEknWJXYp8JKI0RAVDXK5HD+N/Qmx72MBAMMmDEObDm3y7edcz1koVJgQl4BnIc/UFtO7mHe4cPoCipsVR7uO7dS2X3WKi43DjnU7YGBggCFjhqh1362/aa32fRIVFtkTC1VrVIVjVUfxgiEi0iAmFog0pGSZkmjQtIHQPr7/uIjREBUNpw6dEqYeOTg6wOd/Pkr3tS1pK7xW5wijo3uOIiM9Ay6dXVDcrLja9vsu5p3a9rV19VYkJiTCpbMLKjtVLtC+/Jf5K7Rr1a8FiWHeHzf8l2b1KW5WHHW+qFOgGIh0QVxsHG5fuy203fu5ixgNEZFmMbFApEHtu2dNh7gUeElhHWsiUi+5XI6VC1cK7UEjBuX7hTY7hZUIDNQX14F//38aRC/1TINIS0vDvJ/mwbWeK66eK3jBw8SERGxZtQUAMOR/BR9ZEPc+TqHdoXuH/PvEZvUxMDDg8rykF84dPwdZhgxA5pSrzr06ixwREZHmMLFApEGunV1haGQIAMhIz8CxvcdEjohIf107fw2Pgx4DyHzq3bVPV6X7ymQyvH2TlfgryIoI2YU+CUXQ7SCUti+Nr1p+VeD9hb8Mh3c3b2xZtQUymUwhkaKqnet3Ii42Dl+7fo2adWoWaF9SqRTvorNGUpSwKwET07yTBHGxcUhOTBbapcvqZnFLos+1d9te4XW7zu1gXcJaxGiIiDSLiQUiDbKxtYFrZ1eh/eHJJRGp3+mjp4XXTVs1/ayn3k8fPRWWpQTU9+X2wzXfqWcnhZorqgg8Foi+bn3x5OETYduNSzfw4M4DlfeZmpKKTf9sAoDPmjbyKdGvo3Hy0Emh3aZDG9iXs8+zz/WL1xV+Jg9vjwLHQSS2sBdhuH7xutDu4dlDxGiIiDSPiQUiDRs0YpDwOuh2EEKfhooXDJEeO3/ivPC6hUuLz+p798Zd4XXVGlVhaWVZ4HjkcjkOBRwCgAINgZbJZFj0yyJMHz0dP/35E0ZNGaXw7xtWbFB537s370bMmxg0/rqxwhK5RFQw+7btg1wuB5BZ7+WrFgUfsUREpMuYWCDSMOd6zmjUvJHQ3rNlj4jREOmnjPQMhL8MF9q1v6j9Wf3PHT8nvG7XST0rN9y4dAMRYRGoWacmqtWspvJ+Th48iXs372Hrsa1w6eyCHp49FBIfx/cfR0RYxGfvNy0tDev/Xg9APaMVAODCqQsK7Rbt8k/wXDiZ1cfSypIJDir0ZDIZ9m3fJ7TdPd1hYKDGwi1ERDqIiQUiLcg+aiFgUwASExJFjIZI/7yJegOZLLNImsRQgirVqyjdN/Z9LC6czvxyK5FI0LFHR7XEdPDfgwCAzr0LVrDNrYsb1uxeA4dKDgAAM3Mz9BrUS/h3WYZMKL74OQ7sOIDI8EjUa1RPbU9Tb1y6odDOnlRVpo+5hTmc6zqrJRYisVwOvIzXEa8BAMVMi6Hrd8rXeyEiKqyYWCDSghbtWghfdBLiErBr8y6RIyLSL9nrF9iUsIGJifL1FfZt24f0tHQAwLe9vy3wcotAZu2C4weOQ2IoQcfu6klUZOc5xBPGxsZCe9fmXYqrWuRDliHD2qVrAQBDvx+qlpjev32Pl6EvhXb12tXz/T2EPg1FQnyC0K7TgMtMUuG3eeVm4bWnjyfsStuJGA0RkXYwsUCkBQYGBhg4fKDQ3rJyCzLSM0SMiEi/2NrZCl9iDSTKDzlOTEjE2iWZX7DNzM0wYvIItcRz5sgZJMYnolnrZhr5UlGyTEl06tlJaCclJiFgY4DS/Y/sPYKw0DA413VWarqCMiJeRSgUkmzWuhmKmxXPs8/tq7cR8yZGaLfrqJ5pKERiuX/rPi6euQggc2rP4FGDxQ2IiEhLmFgg0pJOPTuhfMXyAIDI8Egc28elJ4nUxcjYCF80+QIAEBMVg6TEJKX6LZ2zFO/fvoeBgQF+WfKL2paZ/LAaRJfeXdSyv48ZOHygwrztrau3CiMv8iKXy7F2cWYyZcjYIRqLj6goWrkgawlYr9FesLK2EjEaIiLtYWKBSEuMjY0xfuZ4oe2/1F+YE05EBTdkdNaX5If3Hub7/r3b9mLbmm0AgBGTR6jtafnb6Le4FHgJ5hbmaNOhjVr2+TFVqldRGG0QFRmFo3uP5tvv9JHTeProKapUr6LWEQK7NilO8XLv555vn91bdguvHSo5oHHLxmqLh0jbgu8F49yJzEKwpexLwdPHU+SIiIi0h4kFIi1q26EtmrVuBgAICQ7Bvm378ulBRMpq/HVjfNP1GwDA8nnL83zvnq17MHvSbEgMJZg6Z6raVkUAgCO7jyAjPQNuXdxQzLSY2vb7MdkLwwLA+uXr8+2zetFqAJkrQaizUn32+goAUKFyhfz7PM/qU9y8OOeiU6GWfbSC33g/jV//RES6hIkFIi2b9OskGBkbAQCW/rFU6SHbRJS/Sb9OQv2v6uP6xev4Y9ofkEqlCv8eFhqG6aOmY+a4mShXoRyWb1uO3oN6qzWGAzszp0F07lWw1SCU0ah5IzjXy1pFIeRBCC4HXv7k+y+evojgu8FwcHRA+27t1RaHXC5XqBujzBcqaapUYdSWqamp2uIh0raH9x8i8GggAKBSlUro7tFd5IiIiLSLiQUiLXOs5igMj4yJioH/En+RIyLSH3al7LB291oMnzgcOzfsRNemXfHDsB/w2w+/wcfdB91adMODuw8wfuZ47DyzU+1D7589fobge8GwL2+Phs0aqnXfn5Jz1MLGFRs/+d5VC1cByJw2IjFU30eAuNg4XL94XWj7jfPLdzTEdv/tiH0Xm9VnvJ/a4iHStrnT5kIulwMAxv08DoZGhiJHRESkXQa3Im7JxQ6CqKhJTEhEtxbdEBMVA5NiJth7YS/sy9uLHRaRXol9H4vLZy4j/GU4MmQZKFu+LJycnVC9dnWNHXPxb4vhv8QfQ/43BKN+GKWx42Qny5ChS7MuCH8ZLmzbcWoHnJydFN5349IN+Lj7wL6cPfZf3i+MnCKigjkYcBDTR00HAPQa2AvT/pgmckRERNrHEQtEIjC3MMfkXycDyBwOPHf6XJEjItI/1jbWaN+9PbxGe8Hnfz7o3KuzRpMKMpkMh/49BAD4tte3GjtOThJDCfoP7a+w7WOjFlYtyhytMGjkICYViNQk9n0sFs5cCCBzROKEmRNEjoiISBxMLBCJxK2LmzC3+/SR0zi065DIERFRQVy/eB2vI16j9he14VjNUavH7u7ZXWFZuyO7j+BN5Buhff/WfVw5ewV2peyUWq2BiJQzb/o8xLyJgbGxMX5f/jsLNhJRkcXEApGIJsyaAOe6mYXX/pj6h8IXASIqXA7+exCAdkcrfFDcrDh6D84qQpmWloata7cK7dV/Za4EMXD4QJgUM9F6fET66OTBkzgYkHndj546GjXr1BQ5IiIi8TCxQCQiExMTzF05F+aW5oiLjcOsCbPEDomIVJCSnIKTB0/C0MgQ7burb7WFz9HXuy9MTLKSBv+u/xdJiUkIeRCCs8fOwtrGGr0G9hIlNiJ9E/YiDD+P+xkA0KRVE/T36593ByIiPcfEApHIHBwdMHPhTADA+ZPnuUoEUSF0+vBpJCYkomW7lihhV0KUGOxK26Fz76wlLuPj4rFnyx6sWbwGcrkc/Yb2g5m5mSixEekTqVSKSUMnISEuATa2Nvjlr1/yXQWFiEjfMbFApANcOrugr09fAMDSOUtxKfCSyBER0ec48O8BAMC3vbU/DSK7gcMGKnzBWbtkLY7vPw5zS3N4DPEQMTIi/fHnjD8RfDcYJsVMsHDdQpSyLyV2SEREomNigUhHjPtpHJq3aQ6ZTIYpw6YgLDRM7JCISAkxUTG4fPYyLK0s0eqbVqLG4ljNEa3csmKIeRMDmUwGD28PWFpZihgZkX7Y7r8dO9btgEQiwW9//4YvvvpC7JCIiHQCEwtEOsLI2Ajz18xHvUb1EPs+FiM8R+Bt9FuxwyKifBzafQiyDBm+6fqNQo0DsQwcPlChbVrcFP18+4kUDZH+CDwaKCwPPXHWRLh0chE5IiIi3cHEApEOKW5WHMs2L0PdhnXx8vlLjOo3CokJiWKHRUR5OLgzsyp89voGYmrQtAHqfFlHaPca0Eu0ug9E+uLu9bv4YfgPkMlk+P6n7zm1iIgoByYWiHSMhZUFVmxfgUbNGyH4bjDG9B+D5KRkscMioo94HvIcj4IeoXzF8jo1JHrwyMEAMkcr5BzBQESf58GdBxjZbyRSklMwcdZEXlNERB/BxAKRDjIzN8PSzUvRol0L3LxyExN8JogdEhF9RHp6OoyNjdHXp69OVYV36eyC73/6Hgv9WViOqCAiwyMx/LvhSEpIwtQ5U+Hp6yl2SEREOsngVsQtudhBENHHyTJkOH7gOEyLm6L1N63FDoeIPiI1JRXFTIuJHQYRaUByUjKO7TuGKtWroG6DumKHQ0QL1jkVAAAgAElEQVSks5hYICIiIiIiIiKVcSoEEREREREREamMiQUiIiIiIiIiUhkTC0RERERERESkMiYWiIiIiIiIiEhlTCwQERERERERkcqYWCAiIiIiIiIilTGxQEREREREREQqY2KBiIiIiIiIiFTGxAIRERERERERqYyJBSIiIiIiIiJSGRMLRERERERERKQyJhaIiIiIiIiISGVMLBARERERERGRyphYICIiIiIiIiKVMbFARERERERERCpjYoGIiIiIiIiIVMbEAhERERERERGpjIkFIiIiIiIiIlIZEwtEREREREREpDImFoiIiIiIiIhIZUwsEBEREREREZHKmFggIiIiIiIiIpUxsUBEREREREREKmNigYiIiIiIiIhUxsQCEREREREREamMiQUiIiIiIiIiUhkTC0RERERERESkMiYWiIiIiIiIiEhlTCwQERERERERkcqYWCAiIiIiIiIilTGxQEREREREREQqY2KBiIiIiIiIiFTGxAIRERERERERqYyJBSIiIiIiIiJSGRMLRERERERERKQyJhaIiIiIiIiISGVMLBARERERERGRyphYICIiIiIiIiKVMbFARERERERERCpjYoGIiIiIiIiIVMbEAhERERERERGpjIkFIiIiIiIiIlIZEwtEREREREREpDImFoiIiIiIiIhIZUwsEBEREREREZHKmFggIiIiIiIiIpUxsUBEREREREREKmNigYiIiIiIiIhUxsQCEREREREREamMiQUiIiIiIiIiUhkTC0RERERERESkMiYWiIiIiIiIiEhlTCwQERERERERkcqYWBDRlbNX0KVpFwzqMkjsUIiIiIiI6DOEhYbBpa4LfHv6IiYqRuxwiETFxIJIAo8GYnT/0YgMj8SQMUPEDoeIiIiIiD6Dg6MDOvTogOsXr8O7hzciwyPFDolINEwsiODkoZOY4DsBMrkMf/zzB1q5tRI7JCIiIiIi+kwTZ02Eez93/PfsP3h380ZYaJjYIRGJgokFLTu+/zgm+01Gelo6ps+djnYd24kdEhERERERqWjaH9PQpkMbRIRFwLsHkwtUNDGxoEXXL17HtJHTkJGegWEThqF73+5ih0RERERERAUgMZRgzvI5qP9VfbyJfAO/Pn54E/lG7LCItIqJBS158vAJvvf6HmlpaejSpwv8xvuJHRIREREREalBMdNiWLB2AcqULYPwl+EY6TkSyUnJYodFpDVMLGhBTFQMRvcbjYS4BDjVcsL0udPFDomIiIiIiNTItqQt5q+ZDxMTE4QEh2D2pNlih0SkNUwsaJhcLsf0MdMRGR4JM3MzzFs1DybFTMQOi4iIiIiI1KzOl3Uw+bfJAICDAQexZ8sekSMi0g4mFjRs08pNuBx4GQDw47wfUalKJZEjIiIiIiIiTXHv5442HdoAAOZMm4OQ4BBxAyLSAiYWNOhR0CMsmb0EAND1u67o0KODyBEREREREZGmTZ87HTa2NkhNScUk30lISkwSOyQijWJiQUNSU1IxZfgUpKWloWSZkpgwa4LYIRERERERkRbYlbLD1DlTAQChT0Px66RfRY6ISLOYWNCQP3/+E89DngMApvw+BZZWliJHRERERERE2uLWxQ1tO7QFABzedRjH9h0TOSIizWFiQQMCjwVi5/qdAIDmbZqjXcd2IkdERERERETa9v1P38PI2AgAsHDmQqQkp4gcEZFmMLGgZslJyfhl4i8AACNjI0z8daLIERERERERkRgqVK4ADy8PAEBkeCTW/LVG5IiINIOJBTXbvGozYqJiAADdPbrDsaqjuAEREREREZFofMf5wtrGGgCwYfkGhL0IEzkiIvVjYkGNYt/FYv3f6wFkjlbwGu0lckRERERERCQmK2sr+I33AwBIpVLMnzFf5IiI1I+JBTVas3gNEuISAABd+nRBuQrlRI6IiIiIiIjE1ntQb5QpWwYAEHg0EBdPXxQ5IiL1MrgVcUsudhD6IDI8Et2ad4M0VQpDI0PsOb8HDpUcxA6LiHRYSnIKju49ihuXbuDVi1cIfxmOtPQ0pfpKJBKULF0S0+dOR636tTQcKRERkebp+9/FDcs3YOGshQCAajWrYefpnSJHRKQ+RmIHoC9WzFsBaaoUANC5Z2cmFYjok1JTUrFi/goEbAxAfFy8yvt5E/kGd2/c1dkPUERERMooKn8Xe/bviZULVyIxPhFPHj7BxdMX0bxtc7HDIlILJhbU4HnIc+zfuV9os7YCEX1K0O0gTB81HaFPQxW2W1hZIDkpGRnpGQrbDY0MYWNrk2s/5hbmcK7rjI49OmoyXCIiIo36v/buOyyKs2sD+A3SlKZiQ1GxYMSWWKKCXTCxJMYuYkVUbBijxljyJtFEY6KxtygKdiWx9y52sRdExYIRBVEUEBQWWL4/+BwY6rLM7izL/buu93r3WXZmDhOZM3vmKUUpL5pbmqPngJ5Yv2I9AGDdinUsLJDeYGFBAr5LfaFMUQIAGjs15koQRJStCwEXMH7QeCgUab2bmjg3Qa+BvdDStSXMLcyhVCpxP+g+Fs5ciMCzgQAAAwMD+O32g509e0EREZF+KYp50X24Ozb7bEZyUjICzwTi3p17qF2vttxhERUYJ28soPh38Ti696jQ7tavm4zREJGuCjwTiPGD026ezIqbYdqcaVi9fTW+7PYlzC3MAaSND3Ws74glm5YITzCSk5Lx9/y/5QydiIhIckU1L5a3LQ+Xzi5C+2PvBaLCjoWFAjq48yASPiQASOve5PqVq8wREZGueRXxCpNHTIYiUQEDAwP8vvx39B7cO8fPm5iYYOyUsUL71OFTWbqCEhERFVZFPS926dVFeH1kzxFEPI+QMRoiabCwUEA7Nu4QXnf8piPMipvJGA0R6ZrU1FT8NP4nxETHAABGThqJth3b5rmdYwNH2JS1AQDExcbhcchjTYZJRESkFcyLgHNbZ2GeiJTkFGxZs0XmiIgKjoWFArh35x6CbwcL7W/6fSNjNESki04cOIGLARcBAHb2dhj27TCVty1dprTw+lXEK8ljIyIi0jbmxbQJKL/85kuhfWjnISiVShkjIio4FhYKIGNvBbuqdqjfqL6M0RCRrklNTcWqBauE9uDRg2FYTPXLrmjJLQMpIyMiItI+5sV0XXqmD4eIjIjEjcAbMkZDVHAsLKgp4UMCDu48KLRbdWglYzREpIsun72MB0EPAADFSxRH1z5dVd5WqVTizas3Qru8bXnJ4yMiItIm5sV09RvXF61scXj3YRmjISo4FhbUdOrQKcTFxgnt1q6tZYyGiHTRycMnhdfNWzeHiamJyts+uv9IWH4LAMrZlpM0NiIiIm1jXhRr5Zr+YPLo3qPC8vVEhZGR3AEUVmePnxVelzAvgcbOjbV6/O0btyPoRlCB9lGyVEmMmz5OooiIKLOzx9KvEy1cWuRr21tXbwmva3xSA5ZWlpLFRaSPmBeJdB/zophzW2ds8UmbuPFt1FsEng1E8zbNZY6KSD0sLKghNTUVFwIuCG2nNk4wNjbWagyXz13G4V0F6zJVsXJF3kARaUhKcgpePHshtOt+Vjdf2585ekZ43b5ze8niItJXzItEuo15Masmzk1gbGyMpKQkAGnDIVhYoMKKQyHUcO/OPbx5nT7Gq6VrSxmjISJd9CrylTDDs2ExQ1SvVV3lbWOiY3Du5Lm0bQ0N0al7J43ESEREpC3Mi1mZFTdDw2YNhfapw6eQmpoqY0RE6mOPBTVcOHlB1G7i3ETrMXT4qgOq1axWoH3oQxcyIl1laJhety1ZqiRMTFQfR7pn6x4kJyUDAL7q/RWqORTsb52oKGBeJNJtzIvZc2rrhMCzgQCA6DfReHT/EWrWrilzVET5x8KCGs6fOi+8Ll2mNOyq2uXyac1w6eICly4uWj8uEammtE1pmJiYQKFQwMBQ9TWx4uPisXbJWgBp87eM/mG0pkIk0ivMi0S6jXkxe81aNxO1r164ysICFUocCpFP8XHxuHnlptBu0KSBjNEQka4yMjbCZ80+AwBERUbhffx7lbZbOmcpot9Ew8DAAL8u+bXQL6dFREQEMC/mxKG2g6j3xtULV2WMhkh9LCzk0+Wzl4WuWADQoBELC0SUPU9vT+H1vdv38vz87q27sXXNVgDA6B9Go30n/ZicioiICGBezI6RsRFq1a0ltFlYoMKKhYV8unH5hqjNHgtElJOmrZrii65fAABWzF2R62d3bdmFWZNnwbCYIabNmYZh3w7TRohERERaw7yYPccGjsLrN6/f4EnIExmjIVIPCwv5FHI3RHhtaGiIOp/WkTEaItJ1k3+bjE8//xRXzl/BH9P/gEKhEP08LDQMP479ETMmzEDFyhWxYusK9B7cW6ZoiYiINIt5MavM3yfYa4EKI4Pr4ddlXdMk4EgAot9Eq7Wtc1tnWFpbwqy4mcRR5cz1U1dERUYBACpXq4w95/do7dgAEPooFLeu3BItRfNpk09hX9O+QPv98P4Djuw5InqvVp1aogoqEalHmaKEzyIfrFqwCmXKlsFnTT+DVUkrPH7wGNcvXUfVGlXRY0AP9PXoC2NjY7nDJSpUmBeJCh/mRbEHQQ/Q17Wv0P7G7Rv8suAX+QIiUoPshYWBnQfizvU7am9f3rY83Ie7Y8CIATAsptkOGG9ev4FL/fQZp1t3aI1F6xdp9JjZaVe3nagYY2tni32X9omW8cmvOdPmYJvvNqFds3ZNrPp3FUrZlCpQrEVFXGwcgm4EZZnZV5uUSiUinkcgJDi9V42ZmRk+b/l5gf5tZJaamorU1FQEXQ/Cm6g3op85tXGCsYkxDAxUn+25KImJjsHFUxfx4tkLpChTYFvJFg6ODqKxlUSUf8yLuod5MQ3zYu6YF9OkJKfAqboTkpKSAAD1G9XH+v3rZY5K/+R2TTAwMJDt71Rb1ypNk7WwEPowFCP7jMTL8JcF3pe5pTlW/bNKo0MTLgZcxCi3UUJ78OjBGP+/8Ro7Xk52btqJmZNmit5z/coVc1fPVWt/+//djx+9fxTaDnUcsHLbSpQuU7pAcRYVu7fuxtola5GkSMKBywdkieHyucvw6u0lemL3kYmJCYZPGI6h3kMLfHG6H3Qf65avw8EdB3P8zIARAzBw1ECUq1CuQMciIlIV86JuYV4UY14kVXRr0Q1PHz8FAJhbmONsyFmZI9IvuV0TAKB5m+ZYtnmZ1r/IS32tiouNw8P7D9WOx8LSQu3lTmUtLBw/cByTPCcJ7RLmJXDkxpFctkhz/dJ1nDl2Bgd3HMS72HfC++YW5lj1r+aKC+tXrMeCmQuE9s/zf0a3ft00cqzcJCclo3vr7ggLDRPeMzE1gd8ev3x30dy1eRdmTZklrHThUMcBf/v/zScyKti1ZRd8Fvog/Hk4lClK2NrZav0GKj4uHhM9J+LahWtClTsnrVxbYe7quTA1M1XrWP+s+wfL5ixDTHRMnp9dv2896jeur9ZxiKSgUCiw7599OLTzEPoM6QPXr1zlDqlIkOu8My/qBubFnDEvUl7GuI/B+ZPnhfaha4f0bmlNOeTnmmBuYY7Zy2ejdYfWOhVXfq5VgWcC4dXHS+24Gjs1hs8OH7W2NVL7qBpgYGAAcwvzPD/X0qUlWrq0xLBvh2HZH8uwe+tuAGn/gbz6eOHEnRMaGY/1IOiBqF3dobrkx1CFkbERps2ZhqmjpiLmbVoyUyQq4LfMD3NWzlG5G8/2jdsx939z02+eHHnzlJP7Qffx5METJCYmYuW8lQCAyPBIKJVK2WKKiY7B9DHTcen0JdH7rTu0RgmLEgCAG4E3EPE8AgBw5tgZTB01Fb8u+VWlv7OPkpOSMXPSTOz13yt6v4lzE5QpX0b03on9J7JMwkSkTfFx8di+YTs2/L0Br1++BgA0at6IhQUNk/u8My9qH/Mi8yJJq7J9ZVH70f1HLCxIYOHMhSpfE+Lj4jF11FT4n/BHpSqVNBaTtq5V2iZrYWHz6s2itvsw93xtX7ZCWUz+bTL+e/wfrgdeB5DW/WPTqk0YMmaIVGEKHgSLCwtVqleR/BiqcmrjhJbtW2L/9v3Ce0f2HIHXRC9Ur5V3wePfDf9i/i/zkZiQCAAwLGaIIWOH8OYpB4d2HoLfMj+5wxC5cPICzp04J7Sd2zrDa6IXajeoDRMTEwBAeFg4dm7aidULVwMATh46icWzFmPq71NVOkZiQiL++PEP0c1To2aNMHjMYDR2apzl4vbo/iP4LvGFpbVlQX89onyJfhONzT6bsW3tNsTGxAJIG6M61Hso2nZsK29wekyXzntRyIuhj0JhZW2lE0MymBeZF0ladvZ2ovbjB4/h3NZZpmj0w6lDp3B492GhXalKJcxeNjvXa8L7+PdY+OtC/PTXT7C00szfrTauVR9VrV4VlaqqXiRxcHTI1/4zkrWw8DrytaiducqrihLmJTBo1CChsAAAW9dsxaBRgyQfIxMeFi68NjExQcnSJSXdf371H9EfAUcDEBcbJ7y3ZtEazFw0E8WMiuW43Y5NO/DXz38h4UMCAMDY2Bijvh+Fzj06azxmfeLYwBGP7j+CIlH7TyKCbwfj96m/C+0KFStg6ealWZ7K2drZYuSkkUhOSYbfUj+kpqbiyJ4j6OvRV6Ub7aAbQdi5aafQ7jWoFybNmJRjV6wan9TAb0t/U/O3Isq/iBcR2LByA3Zs3CFc05q1boah3kPRtGVTmaPTX7p63vU5LypTlHBzdUOjZo2wfOtyucPJFvNiVsyLpKrKVbP2WCD1xb+Lx5rFa4Rh8xUqVsDKbSuzFHCyuyYc23cMX3T9Ah2+7iB5XNq6Vn3UtW9XDB03VLL4cyPbNJPx7+KRpEgfT1LMqBgsrCzU2lfmKowUk0Fm9uH9B9GNStkKZSU/Rn45NnBEK9dWovcO7DiAZ6HPctwm4EgA/pj2h+jmacTEEfDw9tBorIVdydIlUaV6FTg4OmDemnmYt2Ye1u1bhwqVKsgSzxafLcLTQbPiZljhvyLHrr6GxQwxbto44QlX9Jto+Pv553mMsKdhmDZ6mtBu27EtJv82We2xqERSCn0Yip/H/4yvm3+Nzas3Q5GogEsXF2w+vBkrt61kUUFDdP2863NejH4bjcSERES8iJA7FADMiwDzIkkr8xfe50+fyxSJfjh74qyw8qChoSE8x3tmOccfZb4mAGlz633MC1LSxrVKLrIVFo7sOSLqAVCuQjm1nwyUKVcGtevVliq0bL2KeCVqly0vf2EBADzGeghdZj5avWA1lClZxzgmfEiA71JfYayfkbERRk4aiWHfDtNKrIXZ4NGDsfvcbvif8IdLZxe4dHaRbV3lkOAQnDl2Rmh37NYR9jXs89xu8OjBwuvjB47j4b3cZ4zdtWWXqEg31HtokVhLmnRb0I0gTPKchB6te2DPtj0A0tb73n56O+b5zMv3RH2kmsJ03vU1L36cMTynGc21jXmReZGkVaacuOd21KsomSLRD+uWrxNel7AogV4De+W5TcZrwp3rd3D1wlVJY9LWtUoushUWlKniBF+QYQuvI1/j3p17QlsTa5C+eikuLJSz1Y0lgxwcHdC+S3vRewd2HMB/of+J3lMkKjCi9wjcvHwTQNo5GvPDGK11jSHpRDyPEK3XXrdhXZW2a9S8EYqXKA4AeP3ytTAhTHb+e/wfDmxPn8m7RfsWqNewnpoRExVc4NlAjOw7EgM6DcDxA8dhamYK9+Hu2HdpH35Z8ItKiZnyrzCed+bFood5kfSBpbWl6PtQVCQLC+rKXIBt6dJSpe0yXhOy209BaeNaJSfZCgtLZi0Rtb2neku2b/dh7pLPrxAZHilq60qPBQAYN21clvcynt/4d/EY1nMYbl+9Lbw3acYkjUxwSZqXsQJbsXJFlSqwAFD3s7owK24mtBfPXpzjZ/f67xV6FJmYmMBjrIdGCnZEuUlNTcWJgycwoNMAePX2wqXTl2Bd0hojJozAoauH8P3M7zljtgbow3lnXixamBdJHxgaGoom+YyJjslzGULK3vmT5xF8K1hoN27eWKXt8nNNUIc2rlVy0qnlJtW1cu5KUVsT6wRn7rFgXdpa8mOoq3zF8vj5r58xY+IM4b3Tx04j6EYQ7KraYYLHBNHN0w+zfkCfIX3kCJUKiXMn02eqNTEzQWMn1S7IRFJITkrGwZ0H4bvUF09CngBIm9dmoNdA9BzYEyXMS8gcoX7Sp/POvEhSY14kbShVupSwZC6QNhyiQkV55i3RF+YW5qj+ieqTHdZvVB+nj57WYET6S5bCQujDUFEFzsraSu3Jfu5cvyO62NesXROuXaRfNzvzHAuWlrqzbJChoSE69eiEDX9vwOMHjwGk3SDO/WkujI2Nce3SNeGz3dy7oc/gPpL36KDCwWOsB+bPmJ/rZ66cv4KHweljt4aOTe8WfOLgCQTfDBYt5/aR91RvuHzlkmVsM5GqEj4kYNfmXVi3Yp3Qza9ytcoYMmYIvu7zdaEYyxwZEYmLARfh3NZZrZWO5KAP5z0z5kVSFfMi6ZKSpUsCGRaDiIpkYUEdj0MeC6+tS1mjUbNGKm/brlM7obDwLuYdPrz/IBoeIRdVrlVyk6WwEHAkAO/j3wttWztbfPr5p/nez5vXb7Dk9yWiNac9vD1yXVJKXa8ixYUFdVew0BRTM1MMHj0Yv3z3izAe6OO40Y8qV6sMrwleMCzGm6eiKmMXu/8e/4dXEa+yrHCSmJAoKvxZWlviv8f/YY//Hvgt80NKckq2+542Zhq+OfMNpsyeIuquRZSX2JhYbPPdhs2rNwtjDz+p+wk8vD3Q4esOheYLX0x0DNxc3fA26i3qN66P9fvWq7Td2eNnsWDmAtSuVxuzls3ScJTp9OW854R5kVTBvEi6pKSNeCn715GvZYqkcAs4HCDJfiKeR+Bt1FudKCyocq3Ky/XA6/jw/oPQrl6ruqSFq0I7FCL6TTSmjpqKwLOBwntuQ900tuZ05uVGLCx1q7AApK1T+vdff+PFsxdZfla1elUs37pctmWgSPdkvlH6KOOwH5tyNqhSrQpG9h0pWsXF3NIcBgYGoiVYAWD31t0wMDTA9zO/L1Tdpkker1++xsZVG/Hv+n8RHxcPIG2CIs9xnnBu5yxzdPm3138v3ka9BQAoEhQqbZOclIxfJvyCqMgoPH7wGJ7feuZrfWp16Nt5zw3zIuUH8yLJzcraStSOjY6VKRLSZTldq3ISdCMIf//1NwLPBgoP5IG0PPhNv2/QqUcnSQoMshQW9v8r7i7WpVcXlbeNeRuDU4dPYZvvNtGkHFWrV0W/of0kizGzzDeJutZj4aPh44fj18m/ipbVsq9hjyWblqBi5YoyRka6IOOM1jnZ988+4XX8u3jMnDQT4WHhsLK2QguXFnDp4oJSNqVgYGCAN6/f4MT+EziwI32/uzbvQvtO7bOsJU/0UVhoGNYtX4c92/ZAoVDAwMAArTu0xlDvoWr1XtMVl89eFl43bN5QpW1uXbslzPxtZGwEu6rZr7EtBX0973lhXqTcMC+SLsk8bObjUrhEqlyrst1uxwEs+X1Jtj97+vgpFs9ajF1bduHPVX+iRq0aMDJWvzwgS2Eh89qbtna2oolKsvMu9h3WLlmL4JvBoqUljYyN0M+zH3oP6g07e83dkCUmJorautAlJjvWpa1hZGQERUr6hWjQqEEavVkl7WrRroWwrm7M2xhcvXBV5Umk8rvubcKHBDz/7znMipth6ealqN8o68SobTq0gUKhwLF9x4T31i5eC6c2TgW6OJF+WjF3BXwW+UCZooRhsbRx8B5jPeDg6CB3aAWiTFGKxu1/3uJzlba7ej59jWzHBo4wMdXMWGx9Pe+qYF7Uf8yLpC+MTMT/PlTt/SaFl+Ev4d3fGy9fvJR8mcW8GBkbobFTY8xdPVerx9U2bV6rPnp0P33SDmNjY5SwSOs5pUxR4l3sOwBpQyvcXN0wbto4eHh7qHUcQIbCwrkT57K89/3w79XaV83aNeE5zhMdu3csaFh5UiSK/7B1MTGkpqbi++HfZxnrt2r+KnRz78ZlkfRErbq1hNfxcfF4EvJEpYvStYvXRHOb5MeI70Zke/MEpP0tzF09F+MHj0fAkbQxbTcu38DF0xdVXjeYio6TB08KT47rN6qP/sP768WX2/tB94Uu0AYGBiovbXX5XHovh88+/0wjsQH6e97zwrxYNDAvkr7IPFlu5gebmpSclIx3Me/wLvadLIWFj19y9Zkc1yog7b6kXsN68PD2QLuO7dKO/y4em9dsxoo/Vwj/vXdt3YWO3TvC1s5WreNo/dvxtUvXCvyPtV7DemjaqikGjBiAUjalJIosd5n/sI2MdKuwkJSUhDH9xmQ7gVDEiwj4+/mjr0dfGSIjqVWqWgk25WyE7tOLZi1Cr0F5r4Prt8xPNK5KVRZWFipVLweNHoRLZy4J85Esnr2YN1CUxZpda7B++Xps892Gm5dvYkCnAWjaqik8vT3RtFVTucNT25XzV4TXNR1rwrpU3ksSKxQK3LySPplgs1bNNBIboL/nPTfMi0UH8yLpi8y91pIUqo+jL6hKVSrh4NWDWjteUaTta9VHSzYuQYv2LUTvmVuaY/j44VAkKOCzyAdAWs+F/437H3x2+Kh1HNmnQS5XoRx6Deql8v/+WvsXfHb4wHuqt9aKCgCy/MfUxMoT6oqPi8f4QeNFT74yV9FXzlup7bBIQ+xr2IuWVI1/F48pI6fkWrC7c/1Otr2FVDFy0kiVPteoWSONDhE6degUfhz7IxbPXpzn0CnSXZZWlhgzZQwOXj2I7376DmXKl0HgmUB49fFC/479cfzAcSiVyrx3pGMyFhaaODdRaZvbV28LveGKGRVDw2aqzcugDn097zlhXixamBeZF/WFnD0WSPO0fa0C0nJfbhMzD/9uuKjH5I3LN3Dp9CW1jqXVx+7xcfHw9/MXvffzgp/h3Fb3Z6HOPMZJV3osvGCU2pkAACAASURBVIt9h+ljpuP8qfPCe2OmjIGbhxuG9xwuzEcRGx2LrWu3wm2om2xxZh5OoinmFuZ6v6xTz4E9cWzfMUS9ikJqaioO7z4ME1MT/G/e/0RJ6cP7Dzi+/zj+/PFPtb80mJqaqvzZIWOGYMHMBQCA0JBQvAx/ifK25dU6bkb7t+/Hj2N/FNpnjp7BliNbJB2SFB8XL/pyWJS1cmml8eX3zC3MMWjUILh5umHfP/vgt8wPd2/exSTPSbCvYY8hY4egc8/OWW6ydJFSKZ5fQdXCQsZ/b471HbUyY7w+nfec6HpeVKYoEf02Ot+9N9+8fgMASElJQdSrqHwf18jYCNYl8+5JU1gxL0qfF5UpSpw5fkay/RVmTZybwNzCXOPHyTJ5oxbnWCDt0PS1qlSZUvjymy8BpPWAmfzr5FyH/ZmYmqB95/a4cfkGACAlOQWrF65Gs9b570Wp1W/HqcrULMvwZF5WRVelKMVdKXVhXGZMdAx+Hv8zzhxLv+iPnjwaHmM8UMyoGAaNGoRpY6YBSLvxXbN4DZq2bKrxpcwy69ehn2jCTW0YOm4ovKd6a/WY2uTg6ACXLi6iQt1e/724d+ceihkWQwuXFjh3/BySkpKESVts7Wzh+pUrNqzcACDtC4apWe43R2UrlIXrV665fiYjq5Lpf89JSUk5ru2dX7s27xK1H957iDs37kg6Jj08LBzjB4+XbH+F2bmH57S2LJqJiQl69O+Bbv264fj+4/Bd4ovg28H45btfsOLPFRg4aiB69O+hsxPmAlnnV2jUrJFK22V8mq7q5E1S0Yfznh1dz4uhj0Lh5upWoC6tz548g2sD1a/LGTnUcYD/cf+8P1gIMS9KnxcTEhKYF/+f/wl/rcxLk7mon5ySrPFjknZp+lrl4OiAOSvn5CsmWztbGBsbC0tYvnzxEopERb4nlNZqYeFl+EtR28raqtDctGSuICYny/uHHhsTi5/H/4yAw2mTAhkWM8TQsUMxbPwwoejR0rUl6jWshzvX7wBIW7vcZ5EPZi6cqdXJJz9r9hlSlClaGydmbmGOGp/U0Mqx5DRu+jjEv4vH/u3py7eG3A0BAFEhx7CYIRzrO2LWsln437j/Ce9XrFIRNmVtcj2GsbExSpYuKXHk+ZfdUwJzc2mfHFhaW6JLT9WXvtVnckxOa2hoiA5fd0CHrzvgQsAF+C7xxeVzlzHvp3lYPX813Dzd0M+zn0pzF2ibaH6F2jVV+ptRJCpw++ptod20pTzzHBTm855ZYciLVtZWaNisoVqzrqekpODZk2cwNjZGpaqV8n1sY2NjlYtehRXzorR50cjYiHnx/2UsEGlScpL4+4WZmX73wC2qtHGtyg/Xr1wxe8psvI16CwAIexqG15Gv870ks1bvHreu3Spqf97i80LzBVDOyVQyi38Xj/95/w+nj54GAOEpzJgpY0Sfs7SyRL9h/TB9zHThvYM7DmLYt8O02mvhh99+0NqxihJzC3NM/3M6UlNTcfb4WcTGxIp+bmJigvKVysP1K1eMmzYOQNo69nlp16mdsBSOrhj+3XBcPndZmBG3Y/eOcKgj7ZOD8rbl8dvS3yTdJ6nHqY0TnNo44fa12/Bd4otTh0/h77/+xvoV69Gjfw8MHDVQkq7EUsm4ZGRjZ9V6Hty6ektYn9zI2Eij8yuoqrCd94wKS14sXaY0Vmxdoda2Ua+i4NrAFZWqVsLOMzsljkw/MC9KmxdNTEyYF7Us84NLTS1BrO8y9ohPSU5B/Lt4mFuqVnjLOF+JsbGxRorOmrpWyU03JgooBDL3WPjYVUQOk70m4/zJ9LGjVapVEf7RZdaifQvR0xkAWL1wNWYtmaXxMdSkecVLFMesZbMQdCMID4IeiH5mXdoa7Tu1F9qKRIVojFbGyWMysq9hL7zO7xq7mlL3s7rYfno7Lp66iHK25eDU1knWeEg76jeqj/m+8/Ek5An8lvnhwI4D2LR6E7b5bUOXnl0wZMwQ2Ne0lzVGpVKJaxcLNr9C/Yb1dar3XmE475kxL9JHzItUmGUeKpPX0BzKXs+BPXHy0EkAaT3mD+48qNLqCwCwbvk64bW9gz3KVSinkRg1ca2Sm9YKC7ExsaJunwCyLHuhy0zMMg2FUMgzFOLqhauiqnnZCmXx15q/cvy8dUlruHm6iSb4ObTzELwmeOncjSGpr+5ndVH3s7q5fmab7zZRFTavzwP5W2NX0ypUrIBu7t3kDoNkUM2hGmYsnIFRk0dhw8oN2LFxB3Zv3Y092/agfaf28PD2UOnfsybcD7ovWnu7YVPVeh5kLEbo6nKPunzeM2JepOwwL1JhlLnHQn4mCpVC2NMwREZEIlWZv6FaBWVsbIyqNaoWimF3UtPUtUoOWissxMXG4X7QfdF7unBRVlWWWVoV2p+l9eqFqxjec7gwLtPWzhYrtq1A1epVc92uTYc2cKzviODbwcJ7i2YtwgLfBRqNl3RLxiekjZ0a51jYa9G+BRwbOCL4VnC2P1f1GKXLlIaFlUX+AyXKQYWKFfD9zO8x4rsR2LJmC7au2YrjB47j+IHjaNqqKYaOHarWLMYFkfELbeVqlVG6TOk8t1EoFLh55abQzpwLoyKj8PTJU50ZD6+L5/0j5kUqCOZF0jWZV1DL/GBTk+4H3YebqzyrxwFpuebg1YOS7KtS1UqwKWeDqMj8r6CTkaq9EDVN1WuVVNS9VmmtsHD7mri3gn1N+0J1cc1cMdT2HAsXAy7i28HfCjdPlapUwpKNS/K8eQIACysLuA93F036cfb4WVmXnyTtCroRhLPHzwrtzOu552blXytV7j6WsSuyTTmbQrPqCxUu1qWsMXLSSAwePRjbN27HxpUbEXgmEIFnAlHn0zoY6j0U7Tq1g6Gh5ru1Z0z2terUUmmbm5dvCjePxYyKoV7DeqKfb/PdhicPn+hMYeEjXTrvAPMiFQzzIumiuHfi1fO0OXmjXVU7uHm6IfJFZL4nly0oI2MjSVc0sa+RNoThY2FB1b/ZrWu3IvpNtNBu0U7+3vX5uVaFPQ3Dxr83YsrsKfk6RubfW91rldYKCycPnhS1GzZrqNKTHV2Refzr+/fvtXbss8fPYsqoKcKNqF1VOyxavwjVHKqpvI8vun4B36W+ePzgMYC0WWf9/fzh2sUVZcqX0UjclH8xb2NgYWmBYkbFJNtnSnIKfJf4CmOzylUoh+7u3XPdxmOsByaPmAwgbVK00IeheXYR3rlpJ2Ki07tpDRkzpEBxE+WleIniGDBiANw83LB/+374LfPD3Zt3MWnYJNjXsMfgMYPRpVcX0brQUlIqlbh2IX1IQ9kKZVXa7uLpi8LrWnVqZckvZ0+cRde+XaUJUgPkPu8A82JRwrxIRUnmwoI2J280tzDXqwnXa9WpJfQyevv6Lf5Z9w96D+6d6zar5q8SiiqlbEqpnAs0cZ0C8n+t2rNtD3Zt2YUan9TI83fNKOhGkKiYVMtRtQclmXGWIhWVLisugsS8icnhk9IKOBKA6WOmI/5dvPDefN/5+Z692sTUBINHDxY9SXoS8gRH9x6VLFZSX/SbaAzrMQxt67RF69qtse+ffZLsV5GowJzpc3D8wHHhvd+W/oYq1avkup1zO2ehIprwIUE0kU1OVi9cDWVK2oXPsYEj2nRoU4DIiVRnZGyEb9y+wfaA7Zi3Zh7qflYXoY9CMWPCDHR16oprl67lvRM1PLj7QDS/gipPlmLexmDnpvQZ/TP3VoiKjML9O/fR9su2ksWpKXKdd+bFooF5kYqizIUF65JFb84Bqbh5ugnnT6lUwmehT649Mfz9/EVP7dt2bItP6n6S6zE0dZ0C8n+t+vD+A3Zu3onEhETMnzEf/n7+Kh3H388f+/9NX/bSytoK/Yb1UytmrfRYiIyIFHUXBYAe/Xto49CSKVNOXLHK+A9PUwKOBODnb38WLUEy0GsgqtVU/YlMRl37dsWq+avw/L/nwntb1m5B556di+RkKfnxMvwl3rx6k+V9RUL6WLikpKRsx1+WKlMKFSpWyHX/y+YsE8Zqv49/j5kTZ6JZq2a5PgFd9NsiVK1RFW2+aINSNqWy/DzhQwIWzFyAf9f/K7zXvX93lbp7mluYY4DXAPzglVa53rVlFypWroih3kOzVGMjnkdg/7/7EfE8AkDacm7Dvxuu8rI+pJrzJ8/jp/E/oVGzRrC0stTosX6Y/UOWeWUKA0NDQ7h0doFLZxcEng2E71JfXAy4iJMHTmpkWEHmvBbxIiLXzyuVSkwdNVVYJxpAluv5/u378WmTT1GhUu7XDF2izfPOvKg7mBeZF+V2/uR5zJg4A582+VTjedFrkpfGVgfIKGPBFFC9JxxlVbtebbT5sg32bNsDIO37qM9Cn2z/Zv97/B/WLV8nFB4srSzhPsw9z2Ooc50CNHetKm9bHq9fvkbChwTMnzEfqampcO3iCptyNlk+m5SUhKAbQaLfGwAmz5qs9uSQWiksJLxPQNQr8eQZlatV1sahJZP5P8jbN29z+KQ0zhw7g5/G/STcPBkaGqLXoF6Y8MuEAu132Phh+PX7X4UK+rMnz3Bg+wG1K1NFxdY1W+G3zC/Xz7x++RruX2a9CPUb1g+Tf52c67YPgsXLzCQlJeHJwyc5XphCgkOw138vol5FwbG+I/oM6YMmLdInmAkLDYPfcj9cOn1JeK9r366YMnuKyl8Ym7dpjtYdWgvrwi//czmCbgZh2LfDULJ0SQDAwZ0HsWfbHtHauq5fu6Jdx3YqHYNUk5Kcglk/zEJUZJRWnqZOnDGxUBYWMmrasimatmyKZ0+eoVKVSho5RubCwqXTl5DwIQFmxbP2XFAkKvDr97/ideRreHh7wHeJLwDA2CR9uEByUjK2b9yu0s2MrtLkeWde1C3Mi8yLcvqYFyPDI7WSF9083bRSWHgX807UZmGhYAaOHIhj+47hfXzaEPbc/mZfPHshbOf6tStq1q6Z5/7ze50CNHetKl6iOEZ9PwoTPCZAoVAgMSERc6bNwfYN21G1RlV4TfQS7k9evXyFtYvXiuZuANImqm3p0jLP3zsnWiksZF5BwcTUBAYGBto4tGTKlBX3WMi45IfUFAoF5kybI7p56jGgB6b+PrXA++7WrxtWL1gt+uNZu3Qteg7qWei/SBRmjZs3xq0rt4S2uaU5PqmXc/erjxckAAi+HYwZE2fk+FkDAwN88c0X+GXBL/n6u7OytsLs5bMxeUT6+vABhwMQcDggx22atW6GCT8V7Cafsjqw4wBePHsBO3s7eE/11vjxtL28lSZpqoitVCpx/eJ10Xtvo97ij+l/YNof00TzC4Q+CsW0UdNgZGKEFdtWAEgbex39JhohwSHC55b8vgTJScno1q/wLx8n9XlnXix6mBcpNx/zYuVqlTF2yliNH8+2kq3GjwEAr1+9Fl6bmplqvCeGvqtZuyZmLJyB6WOmC99Hpfybze91CtDstapF+xb4feXv8FnoI/QWCwkOQUhwCI7tO5bjdiamJmjcvDHmrJhToMUVtFJYOLD9gKjtPsy90M2Km7nHgiaHQsycMFN0g9NzYE9MmzNNsv17TfTCz+N/FtqvX77Gjg074ObJmbBzUpBCmCrbek30wtuotzi2/xjKVSiHH377Iddxdf08+yE5ORlbfLbkue8OX3fAnBVz8hXzR+YW5ljgtwBj3cfi8rnLuX523LRx6DesX7ZPa0l9SqUSaxevBZB2jjt83UHmiAhIS9Qfv+QaGBhg/tr5WDFvBXZt2YUr56/g088/RQnzEnh07xEe3nsI9+Hu8BjrIUzEtXjDYkweMRk7Nu3Ah/cf8PjBY4SHhWPltpUwNdOfwo5UmBd1D/Mi86JcMuZF76neepMX38e/Fw2FKGer+R4SRYHrV64wtzSH7xJfyf9m83udAjR/rWrfqT0+bfIpNq3aBN+lvipts2TDEjRt1TRfx8mOwfXw69pdT6SQCg8LR+fPOwvt+o3qY/3+9TJGRATERMfAb6kfrl68ittX05d0rVCpAjp264hO3TuhVl31ZnbN7OqFq1i7ZK1o6SwLKwv0GtgLTm2d0LRlwS9IlNWRPUfwg9cPsK9pj+0B27W2lB/lbtPqTZj30zwAgEMdB/gfT5skKeRuCG5evYnI8EiULFUS9g72aNCoQbZPABQKBU4fOY3QR6EoXaY0OnzdgU+nKEdRr6Lg2sAV9jXtsfPMzrw3KKKYF/WfvubF0Eeh6N4yfcb/Rs0bYc3ONTJGpH8Wz1qM+0H3deJvVhvXqsSERKyctxJ3rt/JMnyzzZdtUKtOLYyePLpAx8hIa8tNFnY25WxgaGgoLPfxIuxFHlsQaZ51SWt8++O32c5yK/Vwo8ZOjdHYqXGWYxW2YU2Fjc8iHwCA5zhPvbl50gcZE3Rjp8bCa4c6DnCo46DSPkxMTOD6lavksREVZcyL+k9f8+KriFeiNudXkN646eMAQCf+ZrVxrTI1M9Xa9RDgcpMqMzExQcUqFYV2VGQUPrz/IGNEROkMDAyy/E9bxyLNCTgSgJC7IahUpRI6de8kdzj0/1JTU3HtQvpSik2cm+TyaSJpGBkZif6fcse8qJ/0OS9GRkSK2uXKcyiEpujS36w2rlXauh6ysJAPNT6pIWpnXJ6KiEhqaxaldYH08PbIsjQSySfkrnh+hcbNG+exBVHBWZeyhl1VO7WXASPSB/qcF8PDwkXtag7qLaNLJBeWvfOheq3qollEw0LDVFqKhIgovy6dvoTb126jXIVy6Nq3q9zhSCYqMgqP7j9CYmKiVo5nYWWBOg3qSDohYsZhEDVr1xSWrNJl+nDeCdh7ca/cIRDJRl/z4kehIaGitlRzgRBpCwsL+VCjlrjHwrOnz2SKhIj03ccxpINHDxYtXVjYDeg8ABHPI7R6zF4De2H6n9Ml219O8yvoMn0470RUtOlrXvzocchj4bVhMUM+vKRCh4WFfKheq7qoHRYaJlMkRKTPbly+gSvnr6CUTSn0GNBD7nAk5TXBCzev3ESSIkkrxythUQKde3bO+4MqSk1NxbWLhW9+hcJ+3omoaNPnvPjR00dPhddVq1dljy8qdFhYyIdqDtVgYGAgzKz56P4jmSMiIn3kszDtqczAkQP1bv3zbu7d0M29m9xhqC3kbghiomMAAIaGhmjSonAUFgr7eSeiok2f8yIARLyIwPv490KbwyCoMOLkjflgVtwMdvZ2Qvve7XvZLt9BRKSu4NvBOHfiHCytLNFnSB+5w6FMMvZW+KTeJ7AuaS1jNERE+q8o5MUnIU9E7U/qfCJTJETqY2Ehnxo1ayS8jo+Lx9PHT3P5NBFR/qxZmDbjtftwd5hbmMscDWVmZJze0a+7e3cZIyEiKhqKQl4MvhksarPHAhVGHAqRT42dGmP31t1C++7Nu7CvYS9fQESkNx4/eIwTB0+ghHkJ9BvWT+5wKBvf9PsGViWtUKlKJS77R0SkYUUlL966dkvUrl2vtkyREKmPPRbyKfNEXXdv3JUpEiLSN2sWrUFqair6DOnDLvY6ytjYGF90/YJFBSIiLSgqefH21dvC65q1a8KmnI2M0RCphz0W8snWzha2drYIDwsHAATfCs5jCyKivIWFhuHQ7kMwNTPFAK8Bau3j9NHTwrwvpUqXQoMmDQAAKckpOHviLIKuByHwXKDw+dI2pdFnSB80b9O84L8AERGRhIpKXgwLDcOb12+EtlNbJ60dm0hKLCyooYlzE+z13wsAuHPjDhSJCpiYmsgcFREVZmuXroUyRYkeHj1gU1a9JxXjB48XbqA+b/E5FvgtwNnjZ7Fm8RqE3A3Jdpuzx89i+IThGD5+uNqxExERSa2o5MWbV2+K2i3atdDKcYmkxqEQamjs1Fh4rUhUiGYJJyLKr5fhL7HPfx+MjY0xePRgSfYZHxeP2T/MxpSRU3K8eQKApKQkrJy3EiHBOX+GiIhIm4pSXrx5Ob2wYGpmiobNG2rluERSY48FNTRr3QwGBgZCBfT8qfPsSkxEalu3fB2SkpLQo38PlLctr9Y+Duw4IFr+9u7Nu7h78y5sytmgS88uQvdPAFi/Yj3u3b4HRaICAKBMUeJd7LuC/RJEREQSKUp58fzJ88LrJs5NYGLCXtBUOLGwoIYKFSugQZMGQoXxYsBFmSMiosLqzes32LFxBwyLGcJjrIfa+3l0/1GW9+xr2GPJpiWwq2onet+lswu8ensh8Gxglm2IiIjkVJTy4pOQJ3j+33Oh7dzWWavHJ5ISh0Ko6cuuXwqvQ4JD8CrilYzREFFhtfHvjUhMSESn7p1gZ2+X9wbZUCQqcPncZdF7dvZ2WLp5aZabp49GTBih1rGIiIg0qSjlxdNHT4vazu1ZWKDCi4UFNXX4ugMMDdNP34WACzJGQ0SFUWxMLPz9/GFgYADPcZ5q70eRqBAtVQUAXft0RaUqlQoaIhERkdYUtbyYsbBQ45MasK9hL18wRAXEwoKaypQvg0bNGwnto3uPyhgNEWnL26i3ku1ri88WxMfFw6WLC6o5VJNsv22+aFOgGzIiIiJVMS+qJzYmFjcu3xDaPfr3kDEaooJjYaEAvuyWPhziQsAF0Rq0RKRfkpKSMPenuXBt4IrAMwUfgxkfF4/NqzcDADy/LdjNju8yX1G7zqd1YFgs98u779L0bYqXKI56n9UrUAxERFS0MC8WzJmjZ6BMUQIATExM0KVXF40ej0jTWFgoANcurihmVAwAkJKcgiO7j8gcERFpwotnLzD0m6HYvHozlEolVi1YVeB9/rPuH8TGxKKVayvUrle7QPuKjY4VtTt265j3NjHp2xgYGMDElLNQExGRapgXC2731t3C6/Zd2sO6lLVGj0ekaSwsFEDJ0iXh2sVVaO/7d5+M0RCRJgQcCUC/Dv3w8N5D4b2rF67i7s27au8zMSERG//eCAAY9u2wAsWnUCjw9nV6N9RSNqVgYpb7zVBsTCw+xH8Q2uVsyxUoBiIiKjqYFwsu7GkYrpy/IrS7u3fX6PGItIGFhQIaPHqw8DroRhBCH4XKFwwRSUapVGLhrwvxo/eP+OmvnzB26ljRz9evXK/2vndu2omoV1Fo2qqpaB1tdbx++RrHDxwX2m07tkWFihVy3ebK+SuiG0K3oW4FioGIiPQf86J09mzdg9TUVABpq1V83uJzjR6PSBtYWCggxwaOaOLcRGjv2rxLxmiISCrH9x/H7Wu3seXIFrh0cUF39+6wtLIUfn5071GEh4Xne79JSUlYt3wdgII/lSEiItIW5kVpKJVK7Nm2R2j3cO8BAwMDGSMikgYLCxLI2Gth+8btiI+LlzEaIpJCh687YM3ONcJ61yXMS6DX4F7Cz5UpSmGSqfzY578PES8i0KBJA0meUJw7cU7UbtG+Rd7bHE/fxtLKssBPh4iISP8xL0rjYsBFvAx/CQAwNTNF175dNXYsIm1iYUECLdq3QPVa1QEAcbFx2LFph8wREZEmuHu6w9jYWGjv2LQD72Lfqby9MkWJtUvXAgBGfDdCkpiuXrgqamfsQaXKNuYW5nCs7yhJLEREVLQwL+bfplWbhNfuw9xhU85GY8ci0iYWFiRgYGCAQaMGCe3NqzYjJTlFxoiISBPKlC+Dzj07C+338e+xfcN2lbc/tPsQwkLD4FjfUaUnKHmJfhONZ6HPhHaturVgYpL7BFWhj0IR9y5OaNdrxGUmiYhIPcyL+XPn+h2cP3UeQFrPiCFjh2jsWETaxsKCRDr37IxKVSoBACJeRODIHi49SaSPBo0aJBoLucVnC5KTkvPcLjU1FWsXpz2V8RxfsPW5Pwp/Hi6ahdupjROKlyie6zY3Am8g6lWU0G7fqb0ksRARUdHEvKi6VfPTl+X08PaAlbWVxo5FpG0sLEjE2NgYE2dMFNq+S32hVCpljIiINKF6reqipyqREZE4vPtwntudPHQSj+4/QvVa1fllnoiI9AbzomqCbwfjzLEzAICyFcrCfZi7zBERSYuFBQm169gOTm2cAAAhwSHYs3VPHlsQUWGUccJWAFi3Yl2e2/gs9AGQNuO1VLM/79gons+lR/8eeW6zc/NO4bVdVTs0bdlUkliIiKjoYl7MW8beCl4TvWBqZqqR4xDJhYUFiU3+bTKMjI0AAEv/WIr38e9ljoiIpNbEuQkcG6RP7BRyNwQXAy7m+PnzJ88j+FYw7Ozt8OU3X0oWR8ZxpABQuVrlvLd5kr5NcfPinDSKiIgKjHkxd/fu3EPA4QAAQNXqVdHNrZvkxyCSGwsLErOvaS90bYqKjILvEl+ZIyIiTcj8dGbDyg05fnb1gtUAAE9vTxgWk+aym5qaKpokVpUnH4pEhWiIlpmZmSSxEBERMS/m7M/pfyI1NRUAMOGXCShmVEwjxyGSEwsLGjBiwgih2rl+5XpEPI+QOSIiklqHrzqgYuWKQvv8qfMICQ7J8rmrF67ixuUbqFCxAr7q/ZVkx4+NicWV81eEttcErzy7km7z3YaYtzHp20z0kiweIiIq2pgXs7d/+35cD7wOAOg1qBdad2gt+TGIdIHB9fDrqXIHoY+O7j2KySMmA0ibe2G+73yZIyIiqW3x2YI///en0P66z9eYuWim6DMj+47EpdOX8MOsH+A21E3bIRIREWkN86JYTHQMerbuiahXUbCvaY+tR7dybgXSW+yxoCEdvu6A3oN7A0ib9fbAjgMyR0REUuvm3k20VNShnYfwKuKV0L5z/Q4unb4Em7I2Kk0gRUREVJgxL4rN/XEuol5FwdjYGL+v+J1FBdJrLCxo0KSZk+BYP20imz+m/SG6sBJR4Ve8RHH0HtJbaCclJWHL2i1C22dR2ozXg0YNgompidbjIyIi0ibmxXTH9x/H/u37AQDe07xRu15tmSMi0iwOhdCwsNAwuH3hhvh38Wjp0hJLNi6ROyQiklBUZBQ6f94ZCoUCAGBpZYlD1w7h+dPn6OvaF1bWVjhw5QBKmJeQOVIiIiLNm9+v8gAAA85JREFUY14Ewp6God8X/RAXG4dmrZthxdYVki2pSaSrio2cNPIXuYPQZ1YlrVC1elUc2XME/z35D6ampmjYrKHcYRGRREqYl0D483Dcu30PQNoM0zZlbHBo1yE8vPcQnuM80bx1c5mjJCIi0o6inhcVCgXGuI/Bi/9eoGTpklixZQXMLc3lDotI49hjQUv+/N+f2OKzBYaGhli6eSmc2jjJHRIRSST0YSh6tO4hLCVlU9YGb6Peorh5cRy8chCWVpYyR0hERKQ9RTkv/j71d/j7+cPE1AR///M3Pvv8M7lDItIKzrGgJRN+mgDnts5QKpWYOnIqwkLD5A6JiCRiX9NetHxU1KsoKJVKuA110+ubJyIiouwU1by4zXcb/P38YWhoiNnLZ7OoQEUKCwtaYmRshHlr5qFBkwaIiY7BaPfRePP6jdxhEZFEBo0aJGqbFTdD/+H9ZYqGiIhIXkUtLwYcDsCfP6Yttfn9zO/h0tlF5oiItIuFBS0qXqI4lm1ahvqN6+PZk2cY238s4uPi5Q6LiCTQqHkj1GtYT2j3GtgLpWxKyRgRERGRfIpSXrx15RamjJoCpVKJ7376Dm6ebnKHRKR1LCxomYWVBVZuW4kmzk0QfCsY4waMw4f3H+QOi4gkMGTMEABpT2UyP6khIiIqaopCXrx78y7G9B+DhA8J+H7m93r7exLlhZM3yiQxIRETPSfi3IlzcG7njGWbl8kdEhFJYP2K9ahVpxaat9HfGa+JiIhUpc95MeJFBPq274u4d3GYMnsKeg/uLXdIRLJhYUFGyhQlju47CrPiZmjzRRu5wyEiIiIiIhV9eP8BR/YcQfVa1VG/UX25wyGSFQsLRERERERERKQ2zrFARERERERERGpjYYGIiIiIiIiI1MbCAhERERERERGpjYUFIiIiIiIiIlIbCwtEREREREREpDYWFoiIiIiIiIhIbSwsEBEREREREZHaWFggIiIiIiIiIrWxsEBEREREREREamNhgYiIiIiIiIjUxsICEREREREREamNhQUiIiIiIiIiUhsLC0RERERERESkNhYWiIiIiIiIiEhtLCwQERERERERkdpYWCAiIiIiIiIitbGwQERERERERERqY2GBiIiIiIiIiNTGwgIRERERERERqY2FBSIiIiIiIiJSGwsLRERERERERKQ2FhaIiIiIiIiISG0sLBARERERERGR2lhYICIiIiIiIiK1sbBARERERERERGpjYYGIiIiIiIiI1MbCAhERERERERGpjYUFIiIiIiIiIlIbCwtEREREREREpLb/AzAnM6JL5haCAAAAAElFTkSuQmCC;" parent="1" vertex="1">
          <mxGeometry x="2893.1" y="700" width="313.8" height="97.5" as="geometry" />
        </mxCell>
        <mxCell id="K2KhxqsfXJvNr6pBZJx8-9" value="" style="shape=image;verticalLabelPosition=bottom;labelBackgroundColor=#ffffff;verticalAlign=top;aspect=fixed;imageAspect=0;image=data:image/png,iVBORw0KGgoAAAANSUhEUgAAAvUAAACHCAYAAACWN6ZuAAAABHNCSVQICAgIfAhkiAAAABl0RVh0U29mdHdhcmUAZ25vbWUtc2NyZWVuc2hvdO8Dvz4AAAAqdEVYdENyZWF0aW9uIFRpbWUAU28gMjcgSnVuIDIwMjEgMTY6NTk6MzEgQ0VTVBlY3xgAACAASURBVHic7d15XBT1/wfwF6cgyCGKiKh4YOGVqWlKqQmUV+adaIIHiImSmWmiZZGWpeWtJIr49UAt7yNvQ8WbNBWPSOUnKhiigKKwC8vvDx4Obgh7787uvp6PR492hvnMvO2R83ozO/MZi/MZ50tARERERERGy9LQBRARERERkWbY1BMRERERGTk29URERERERo5NPRERERGRkWNTT0RERERk5NjUExEREREZOTb1RERERERGjk09EREREZGRY1NPRERERGTkrFUdEBQYhLu37yq9fU2PmticuFnVwxARERERmZzEfYn4MvJLlcZETovEgOABlW6jclOfn5+Px3mPld6+qkNVVQ9BRERERGSSioqKVOqlAUBSKFG4jcpN/XMOjg5o3rq5wu1cqruoewgiIiIiIpPiWsMV7Tu1V7jdk7wnSLmQovR+1W7q6zeqj5iNMeoOJyIiIiIyO63bt1aqh7705yUE9wxWer98UJaIiIiIyMixqSciIiIiMnJs6omIiIiIjBybeiIiIiIiI8emnoiIiIjIyLGpJyIiIiIycmzqiYiIiIiMHJt6IiIiIiIjx6aeiIiIiMjIsaknIiIiIjJybOqJiIiIiIwcm3oiIiIiIiPHpp6IiIiIyMhZG7oAIjI9Bc8KsG/7PiSfTMbd/7uLe+n3IC2SKjXW0tISNdxrYPqP09H0taY6rpSIiEwBc4dNPRFpUWFBIWLmxmDzms14nPdY7f1kZWbhYvJFoz65EhGR7jF3yrCpJyKtSLmQgunjpiPtRprcekcnRzx7+gzFRcVy662sreBS3aXcfhwcHeDbwhfd+3bXZblERGTkmDvy2NQTkcZOJp7EhOAJkEgkAIC2HdtiwLABeCvgLTg4OkAmk+F6ynXMj56PM8fPAAAsLCwQvz0eXt5ehiydiIiMEHOnPD4oS0QaOXPsDCaElJ5Y7eztEDU7CrGbY/Fen/fg4OgAoPR+Rd8Wvli0bhE6vtMRAFAkLcIvP/9iyNKJiMgIMXdejk09EaktKzMLk0dPhqRQAgsLC3y/9HsMDBlY4fa2trYY98U4YfmPfX+U+3qUiIioIsydirGpJyK1lJSU4KsJXyE3JxcAMGbSGHTp1kXhON+WvnCr6QYAeJL3BDdTb+qyTCIiMhHMncqxqScitRzecxinEk8BALy8vRD6SajSY6vXqC58zsrM0nptRERkepg7lWNTT0QqKykpwfJ5y4XlkLEhsLRS/nQiN+2YhTYrIyIiU8TcUYxNPRGp7Ozxs/g75W8AgH1Ve/Qe1FvpsTKZDA+zHgrLtWrX0np9RERkWpg7irGpJyKVHdl3RPj8Zqc3YVvFVumxN67fEKYgAwD32u5arY2IiEwPc0cx0c1Tv3ntZqRcSNFoHy6uLoicFqmliojov44fPC589vP3U2nsxeSLwudGrzRCNadqWquLSB3MHSLxY+4oJrqm/mzSWezbtk+jfXjW9eTJlUhHiouKcS/9nrDcrFUzlcYfO3BM+Ny1R1et1UWkLuYOkbgxd5TD22+ISCVZ/2ZBJpMBACytLNGwSUOlx+bm5CLpSFLpWEtLo38lNxER6R5zRzmiu1If2CsQDRo30Ggfpvq1CpEYWFqWXQtwcXWBra3y9zXu2LADRdIiAECvgb3QwEezv+tE2sDcIRI35o5yRNfU+/f0h39Pf0OXQUQVqO5WHba2tpBIJLCwVH5esPwn+YhbFAcAqOpQFWOnjNVViUQqYe4QiRtzRzm8/YaIVGJtY41W7VsBALL/zcbT/KdKjVs8ezFyHubAwsIC3y761mSnFCMiIu1i7iiHTT0RqWzU+FHC52uXrincfvuG7diwcgMAYOyUseja3XQfVCIiIu1j7ijGpp6IVNbu7XZ4t/e7AIBlc5ZVuu22hG2YNXkWLK0sETU7SqXXehMREQHMHWWwqScitUyeORmvvfEazp04hx+m/SD3Yg8AuJN2B9PHTcc3E7+BZ11PLNuwDANDBhqoWiIiMnbMncqJ5kHZtBtpuHjuIkpKSoR1r7V9Dd6NvTXa77Onz7B/x365dU2aNoFvS1+N9ktk7txquiFuaxxWLFiB5fOW48jvR9CqXSs4uTjh5t83cf70edRvVB+fffMZPhzxIWxsbAxdMpEc5g6RcWHuVM7ifMb5EsWblendsTfSb6Wj6WtNsW7vOq0W806zd5DzMEdYru1VG7tO75KbykhVs6NmY+OqjcJy41cbY/lvy+Hq5qpRrebiSd4TpFxIQftO7Q1Wg0wmQ+bdTKReTRXW2dnZ4Y233tDo/42XKSkpQUlJCVLOp+Bh9kO5n3Xo3AE2tjawsFD+yXtzkZuTi1N/nMK99HsolhWjdp3a8PH1QZNmTQxdGlGlmDviIobMAfSXO8wc9ZlD7lz68xKCewYDAD6P/hxDwoZUur1ortQDQGRUJKInRQvLGXcyMCV8CubEzlFrf7t/2y13YvVp6oOYjTE8sSpp+4btiFsUB6lEij1n9xikhrNJZxE+MFzuStpztra2CJsYhpHjR2rlJHs95TpWL12N37f8XuE2H43+CMM+HgZ3D3eNj2dKnF2c8V6f9wxdBpHKmDviIYbMAfSXO8wczTB3yhPVPfXvD3ofXt5ecuuOHjiKqxevqryvbeu34euJXwvLPk198MumX1C9RnVNyzR52xK2oVf7XoieFI3bN28bpIb8J/kY8+EYRARFvPTECgASiQRLZi/BhJAJKCwo1Oh4v67+FeEDwis9uQLA2uVrcf/ufY2ORUTiwdwxPDFkDqDf3GHmkC6I6kq9tY01omZHYerHU5H7KBcAICmUIH5JPGbHzFb6K6jNazdjzpdzhDeI+fiWnlh5paS86ynXcevvWygsLETM3BgAwL8Z/wqvYzaE3JxcTIuYhtNHT8ut7xTYCVUdqwIALpy5gMy7mQCAYwePYerHU/Htom/h4Oig0rGKpEWInhSNnZt2yq1v27EtatSqIbfu8O7D5R7KISLjxtzRLzFmDqC/3GHmkC6JqqkHSu8he6vrW9i9ebewbv+O/Qj/LBwNmzRUOP63Nb/h569/Fn6DtrSyxPBxw3lircDerXsRvyTe0GXIOXnkJJIOJwnLHbt0RPhn4Xi15avCq6Ez7mRg67qtiJ0fCwA4svcIFs5aiKnfT1X6OIUFhfhh+g9yJ9fW7VsjJCIEbTq0KXeivnH9BlYtWoVqznwdPJEpMYfcSbuRBidnJ4N/ayDGzAH0kzvMHNI1Ud1+89zQ0UPh6OQot27lgpUoLiqudNyWdVvw04yf8OzpMwCAjY0Nxk0Zhx79euisVlPk29IXtlVsDXLsq5eu4vup3wvLHp4eWLx+MVq2bSmcWIHSh9nGTBqDEeNHCFfS9u/Yj5t/31T6WCkXUrB13VZheUDwACzdsBSdAju99MpLo1caYebimRrPjEFE4mPKuSMrlmFwwGBMHzfd0KW8lCEzB9Bf7jBzSNdE2dT7tvTF2wFvy63bs2UP0tPSKxyTuD8RP0T9gIJnBQBKT6yjPxuNEeNH6LRWY+dS3QX1GtaDj68P5q6ci7kr52L1rtXwqONhkHoSViQgLzcPAGBnb4dlm5ZV+PW3pZUlIqMihStPOQ9zsCl+k1LHufN/dxA1NkpY7tKtCybPnIwqdlU0/BMQkTEy5dzJeZSDwoJCZN7LNHQposscQD+5w8whfRBlUw8AI8aNkPsNGQBi58VCVlz+vruCZwVYtXiVcO+ZtY01xkwaYzZvENNEyNgQbE/ajk2HN8G/hz/8e/gbbF7X1KupOHbwmLDcrU83eDfyVjguZGyI8PnQnkP459o/CsdsS9iG+xllDx+NHD/S7OazJSJ5ppo7zx/6rOjhT30SU+YA+ssdZg7pg2ibeh9fH3Tt2VVu3Z4te3A7Tf7JeEmhBKMHjsZfZ/8CAFhYWCBiSgRGRo7UW62kHZl3M+Xmi272ejOlxrV+szXsq9oDAB7cfyA8yFSR2zdvY8/msunS/Lr6ofnrzdWomIhMCXPH/Ogjd5g5pC+ibeqB0vmD/2vRrEXC5/zH+QjtH4pLyZeEdZO+mYThEcP1UR5p2eqlq4XPnnU9MWDYAKXGNWvVDHb2dsLywu8WVrr9zk07kXEnA0DpnMMjxo3gyz2ICABzx9zoI3eYOaQvom7qa3nWwoyfZsitO3rwKFIupCD3US4ih0XKnVinzJqCwaMG67tMMjJJR8pmOLC1s0WbDm0MWA0RiQlzh7SNmUP6IropLV9kaWmJ7v26Y80va4Sny4ukRZjz1RzY2Njgz9N/Ctv2GdIHg0IGafX1zWQ8RowbgZ+/+VnhdudOnMM/V8vufRw5ruzr8sO/H8bVv67KTWv33Pip4+Hfy7/c/bZEYpT2Txp2bNohLNfzroc+Q/oYsCLjwdwhZSmTO8wc0idRN/UAUMWuCkLGhuDrT78WHvJ5fh/jc3Ub1EX4xHBYWvHEaq5enMf39s3byMrMQk2PmuW2KywohFQqlRt3++Zt7Ni0A/FL4iucvi4qIgofHPsAX3z3hdxXrkRilJ6WjlWLVgnL7Tu1Z1OvAuYOKUOZ3GHmkD4Zxdmo94e9Udur9kt/Vr9hfcRsjDHodFgkLv89ib4o636W8NnN3Q31GtTDmA/HyM1H7VDNodx81QCwfcN2/DD9BzzNf6qbwolINJg7pIqKcoeZQ/ok+iv1z4VNCMO3k7+Vm1rMu5E3Fq1bBM+6ngasjMTgxZkFKrPr113C5/zH+YieFI2MOxlwcnaCn78f/Hv6w9XNFRYWFnj44CEO7z6MPVvK9r1t/TZ07d613HzWRGR6mDtUGWVyh5lD+mQ0Tb1zdWdYW1tDUiwR1gV/HAyv+l4GrIq0ye8dPySfTAYA5D7KRfLJZKUfKFJmbvr/KnhWgLu378LO3g6L1y9Gi9Ytym3TObAzJBIJDu46KKyLWxiHDp07wNrGaP76kJnxbuSNiC8ihGU2oOph7pg+feYOM4d0zShuvykpKcHnYZ9DUiiRW7/85+WieJkGaUeTZk2Ez/lP8nEr9ZZS4/489adGX0+O/nT0S0+uQOkLZebEzkHndzsL6y6cvYBTR0+pfTwiXavboC5CPwkV/unRr4ehSzI6zB3zYIjcYeaQroi+qZdKpQgfGP7Sh0ky72Uq9XpmMg516teBm7ubsLxg1gKlxsUviUdhQaFax3R0clTqle7BY4NVmgufiIwXc8d86Dt3mDmkS6Ju6vOf5GNC8AScTTorrPvvb7cxc2P0XRbpiHcjbwT0DBCW8x/n44sxX1R6Vezy+ctIOpxU4c8VGTNpjFLbtW5f9vZAbftj7x+YPm46Fn63ELmPcnVyDCJSDnPHvOg7d8SQOQBzx1SJ9gatx3mPMS1iGk78cUJYF/FFBAaPGIyw/mG4dvkaACAvJw8b4jZg8EjDvPzjcd7jcl/P6oqDo4PJT23Vf1h/HNx1ENlZ2SgpKcG+7ftgW8UWX879EjY2NsJ2z54+w6Hdh/Dj9B8hk8kq2WPlqlSpovS2wyOGY170PABAWmoa7mfcR63atdQ+NgDs3rwb08dNF5aPHTiGhP0JWr938sWX5Zizxr6NdRqUZNzEnjuyYhlyHuWofPvPwwcPAQDFxcXIzspW+bjWNtZwdnFWeZyx0GfuGDpzAP3kTua9TGRlZCne0MQ5uTqhfsP6ejueKJv63JxczJgwA8cOHhPWjZ08FiMiRsDK2grBHwcjKiIKACCTybBy4Uq0e6sdGjZpqNc6gwKDhJO8voyMHInxU8fr9Zj65OPrA/+e/nJfb+/ctBPXLl+DlaUV/Pz9kHQoCVKpFDeu3wAA1PaqjYBeAVgTswZA6S8/VewUnzhretREQK8Ahds95+TiJHyWSqUVzi+sim3rt8kt/3PtH1y+cBmt3mil8b6fKy4qRnCvYK3tz5it/X0tmrVqZugySITEnjtpN9IwOGCw2rcaAkD6rXQEtFT+nPcin6Y+2HTING870lfuiCFzAP3kzqZVm7Bq8SrFG5q4Lt26YN6qeXo7nuia+rzcPMyYMAOJ+xIBAJZWlhg5biRCJ4TCwsICAPBWwFto/npzXD5/GQDw4P4DrFiwAtHzo/X6dHir9q1QLCuGVPLyOdG1zcHRAY1eaaSXYxlS5LRI5D/Ol3vLXuqVVACQ+yXK0soSvi18MWvJLHwZ+aWw3rOeJ9xqlt0jWREbGxu4VHfRYuWqc3B0KL/Oofw6TVhYWqBjl45a3aexetlc0ETGkDtOzk54vf3ruH/vvspX6ouLi5F+Kx02NjaoU7+Oyse2sbFB6/atVR5nTPSRO2LIHEA/uVO/UX3mDgDfFr56PZ6omvr8x/n4cvyXOHrgKAAIV0denJoNAKo5VUNQaBCmRUwT1v2+5XeEfhKq16v1U2ZO0duxzImDowOm/TgNJSUlOH7oOPJy8+R+bmtri1p1aiGgVwAioyIBAHfS7ii173e6vyNMXyYGYZ+G4WzSWWEWhW59u8GnqY9Wj2FpaYklCUu0uk8iU2EsuVO9RnUs27BMrbHZWdkIaBmAOvXrYOuxrVquzDToKnfEljmAfnLng8Ef4IPBH2h1n6SYqJr6yeGTceJI2b2M9RrUE/7y/JdfVz+5qyYAEDs/FrMWzeJru02AfVV7zFoyCykXUvB3yt9yP3Ou7oyu3bsKy5JCidz9jS8+9PRf3o28hc+qzkmsC81aNcPmo5tx6o9TcK/tjg5dOhisFiJzxNyh53SRO2LLHIC5Y8pE09Qnn0yW+222pkdN/LTypwq3d3ZxxuBRg+Ue9ti7dS/CJ4bDu7G3LkslPWrWqpnCe6A3rtoo9/S+svdMP5+T2NAnWA9PD/QZ0segNRCZI+YOvYyuckcsmQMwd0yVKC4tJJ9MRlj/MOEBoNpetRG7ORYNfBpUOq5zYOdy9yspO8csmY5zJ84Jn9t0aAO/rn4VbuvX1Q++LdW7x+3F41SvUZ33ZxMZMeYOaULZ3GHmkD4ZvKk/lXgKY4PGCg/+1KlXB0vWL1FqCiBHJ0cMCRsit+74oePYELdBJ7WS+KRcSMHxQ8eF5Yre0leRmJ+Un2/6xa/o3dzd4OTsVMnWRCRWzB3ShCa5w8whXTJoU3/80HFMCpskzPPuVd8LC9csVHil5EXv9n5X7iGlImkRNsVvwoP7D7ReL6kv91Gu1qbjeq64qBirFq0S7mt093BH3yF9FY4bMa7sbX75j/OR9k+awjFb121Fbk7ZV63DI4arXC8RGR5zxzzoInMA9XKHmUP6YrCmPnF/IqZFTEP+43xh3c+rflZ5FgHbKrYIGRsCS8uyP8qt1Fs4sPOA1mol9eU8zEFov1B0adoFnV7thF2/7tLKfiWFEsyeNhuH9hwS1s1cPBP1GtZTOLbjOx2FKysFzwqweulqhWNi58dCVlx6Evdt6YvOgZ3VrJxI92QyGSQSifBPkbTI0CWJAnPH9OkqcwD1c4eZQ/pikAdlE/cnYsYnM+SmjBoWPgwNGit/peRFvT/sjeU/L8fd23eFdQlxCejRvwecXU33LXjacD/jPh5mPSy3XlJQ9pZcqVSKqxevltvGtYYrPDw9Kt3/ktlLhAfRnuY/RfRn0Wj/dnvU9KhZ4ZgFMxegfqP66PxuZ7i6uZb7ecGzAsyLnoff/vebsK7v0L5KfwXq4OiAj8I/wpTw0ilJtyVsg2ddT4wcPxJW1lZy22bezcTu33Yj824mgNJp7cI+DYNDNe3O6WvOThw5gZmTZ8Kvqx9cXHU7h/PA4QPh7uGu02OIQdLhJEQOK5vBpX2n9ojZqPzX/qaIuSMOYswcQLe5w8wRlxNHTmDujLlo06GNzjOnYZOG6N6vu06P8SK9N/XHDh7DV5FfCSdWS0tLDAgegIlfT9Rov6ETQvHt598Kv9mm30rHns17EBQapHHNpmzDyg2IXxJf6TYP7j/AkPeGlFsfFBqEyd9OrnTs31flpwWTSqW49c+tCk+wqVdTsXPTTmRnZcO3hS8GDR+Etn5thZ/fSbuD+KXxOH30tLCu94e98cV3X8DW1rbSWl70Zuc30SmwkzA39dIflyLlrxSEfhIqvBzk962/Y8fGHXJzEQe8H4B3ur2j9HGocsVFxZg1ZRYy7mTIhaWudOnWxSyaepLH3BEPsWUOoJ/cYeaIw/PMuZd+D7dSb+n8eF26dTHdpl4ikWB21Gy5E2u/j/ph6vdTNd53n6A+iJ0Xi3vp94R1cYvj0D+4v0rNHmlXmzfb4OK5i8KyQzUHvNL8lQq3f35iBYCrl67im8++qXBbCwsLvPvBu/h63tfCWx+V5eTshO+WfofJo8vmqE7clyi8UfJl2ndqj4lfadYEkLw9W/bgXvo9eHl7YWjYUJ0fr7ZXbZ0fg8SFuWNeVM0cQD+5w8wRh+eZ0/jVxug/rL/Oj+dV30vnx3iRXpv66InRcie//sP6I2p2lNb2H/5ZOGZMmCEsP7j/AFvWbMHgUYO1dgxTo2ozrOrY8M/C8Sj7EQ7uPgh3D3dMmTkFzi4VfzUdNCoIRUVFSFiRoHDfge8HYvay2SrV/CIHRwfMi5+HcUPG4WzS2Uq3jYyKRFBoEOzs7dQ+HsmTyWSIWxgHoPS/b+D7gQauiEwRc0dcxJY5gP5yh5ljWC9mzuiJo00ycyzOZ5wvUWVA7469kX4rHU1fa4p1e9fpqi4yc7k5uYhfHI/kU8m4lHxJWO9RxwPd+nRD977d0aRZE60dL/lkMuIWxclNIebo5IgBwwagQ5cOaPdWO60di0rt37EfU8KnwLuxNzYnbpZ76JA0l3olFYP8BwEAho0ZhokzeMXPXGVnZSOgZQC8G3tj67Gthi5HtPSZO8wc/TPGzLn05yUE9wwGAHwe/Xm56XT/SzRvlCV6kbOLMz6Z/okwj/SLNLnSU5E2HdqgTYc25Y6ni2NRqRULVgAARkWOMoqTq7G5cvGK8NkUr0gRaZs+c4eZo3/mkDls6knU9H2C4wlVPxL3JyL1Sirq1KuD7n319xCROXk+e4hHHQ80f725gashQ7K2tpb7N1VOnznAzNEPc8kc0/xVhYhEbeWClQCAEeNHlJvSjbTjyl+lV+oDewWycTBzzq7O8KrvhWatmhm6FCKDMJfM4a/tRKRXp4+exqU/L8Hdwx29P+xt6HJMUnFRMa6nXAfAW2+o1M5TOw1dApFBmFPm8Eo9EenV8/saQ8aGwMbGxsDVmKYb129AUiiBh6cHmrfmrTdEZL7MKXN4pZ6I9ObC2Qs4d+IcXN1c0e+jfoYux2Q1eqURjl0/BitrK956Q0Rmy9wyh009EenNivmlV0yGjRnG+Zd1yMraCo5OjoYug4jIoMwtc3j7DRHpxdVLV5F0OAnVnKph0PBBhi6HiIhMmDlmDpt6ItKLlfNLZx8YEjYEDo4OBq6GiIhMmTlmDpt6ItK5m3/fxOHfD6OqQ1UEhQYZuhwiIjJh5po5bOqJSOdWLliJkpISDBo+CM4uzoYuh4iITJi5Zg4flCUinbqTdgd7t+9FFbsq+Cj8I7X2cfTAUeF16q7VXdGybUsApfOxHz98HCnnU3Am6YywfXW36hg0fBDe7Pym5n8AIiIyGtrIHMA4c4dNPRHpVNziOMiKZeg3oh/carqptY8JIROEk+sbfm9gXvw8HD90HCsXrkTqldSXjjl+6DjCJoYhbEKY2rUTEZFx0UbmAMaZO2zqiUhn7mfcx65Nu2BjY4OQsSFa2Wf+k3x8N+U77Nmyp9LtpFIpYubGoMt7XeDj66OVYxMRkXjpInMA48kdNvVEpDOrl66GVCpFv6H9UKt2LbX2sWfLHuFqCQBc+esKrvx1BW7ubujZv6fwlSgA/G/Z/3Dt0jVICiUAAFmxDI/zHmv2hyAiIqOgjcwBjDd32NQTkU48fPAQW9ZugaWVJUaMG6H2fm5cv1FunXcjbyxatwhe9b3k1vv38Ef4wHCcOX6m3BgiIjJd2socwHhzh7PfEJFOrP1lLQoLCtG9b3d4eXspHvASkkIJziadlVvn5e2FxesXlzuxPjd64mi1jkVERMZLG5kDGHfusKknIq3Ly83DpvhNsLCwwKjIUWrvR1IowaXkS3Lreg/qjTr16mhaIhERmQhtZQ5g3LnDpp6IAACPsh9pbV8JKxKQ/yQf/j390cCngdb22/ndzhqfsImIyPCMIXMA48odNvVEZk4qlWLOV3MQ0DIAZ45pfk9g/pN8rI9dDwAY9YlmJ8JVS1bJLTd9rSksrSo/ba1aXDbGvqo9mrdqrlENRESkPWLOHMC4c4dNPZEZu5d+DyM/GIn1seshk8mwfN5yjff56+pfkZebh7cD3sarzV/VaF95OXlyy936dFM8JrdsjIWFBWyr2GpUAxERaYfYMwcw7txhU09kphL3JyIoMAj/XPtHWJd8MhlX/rqi9j4LCwqx9pe1AIDQT0I1qk8ikeDRg7KvZ13dXGFrV/mJMi83D8/ynwnL7rXdNaqBiIi0Q+yZAxh/7rCpJzIzMpkM87+dj+njp+Orn77CuKnj5H7+v5j/qb3vreu2IjsrG+3ebic3j686Htx/gEN7DgnLXbp1gYenR6Vjzp04JxcYg0cO1qgGIiLSjLFkDmD8ucOmnsjMHNp9CJf+vISE/Qnw7+mPvkP6oppTNeHnB3YeQMadDJX3K5VKsXrpagDauWJCRETGj5mjP2zqicxM4PuBWLl1pTDfblWHqhgQMkD4uaxYJjx0pIpdm3Yh814mWrZtiTf83tC4zqTDSXLLfl39FI85VDammlM1rVy5ISIi9RlL5gDGnzts6okIQ0YNgY2NjbC8Zd0WlV5zLSuWIW5xHABg9KfaeQlH8slkueW2HduqNMbB0QG+LXy1UgsREWmPGDMHMP7cYVNPRKhRqwZ69O8hLD/Nf4rNazYrPX7v9r24k3YHvi18lbqyoUjOwxykp6ULy02aNYGtbeUPK6XdSMOTx0+E5eatOZUlEZEYiS1zANPIHTb1RAQACP445/9M6QAABANJREFUGBYWFsJywooEFEmLFI4rKSlB3MLSKyajJmjnBR0ZdzPkZkTo0LkD7KvaVzrmwpkLyM7KFpa7du+qlVqIiEj7xJQ5gGnkDpt6IgIANGzSUO6Kx7+Z/2Lf9n0Kxx3ZewQ3rt9AwyYNDX5CIyIi48DM0T429UQkCBkbIre8etlqhWNWzF8BoHT2gRevumhiy9otcsv9hvZTOGbr+q3CZ6/6Xmj3Vjut1EJERLohlswBTCN32NQTkaBtx7bwbVn2kE/qlVScSjxV4fYnjpzA1YtX4eXthfc+eE9rdbx4XyMA1G1QV/GYW2Vj7B3s4ebuprV6iIhI+8SSOYBp5A6beiKS898rJ2ti1lS4bey8WADAqPGjYGmlndNJSUkJiouKheUqdlUUjpEUSiCTyYRlOzs7rdRCRES6ZejMAUwnd9jUE5GcwF6B8KzrKSyf+OMEUq+mltsu+WQyLpy9AA9PD/Qa2Etrx8/LzcO5E+eE5fCJ4Qq/Yt24aiNyH+WWjfksXGv1EBGR7hg6cwDTyR1rQxdAROJiaWWJj0Z/hB+//FFYtyZmDaIXRMttFzu/9IpJSEQIrG20dypxdnHG+YzzKo0ZNmYYho0ZprUaiIhIPwydOYDp5A6v1BNROX2G9IGTs5OwvHfrXmRlZgnLl89fxumjp+FW002ph4mIiIgqwszRDjb1RFSOfVV7DBw+UFiWSqVIiEsQllcsKJ19IPjjYNhWqfzlHERERJVh5mgHm3oieqmgkUFyb9P7bfVveJr/FKlXUnF0/1E4uzhjQPAAA1ZIRESmgpmjOTb1RPRSbu5u6Dmwp7D8OO8xtq3fhpULV6KkpARDRw9FVYeqBqyQiIhMBTNHc2zqiahCwWPkX+MdtygOB3YegEM1BwweNdiAlRERkalh5miGTT0RVci7sTc6BXYSlrOzsiGTyTB45GBUc6pmwMqIiMjUMHM0w6aeiCoV/HGw3LKdvR2Ghg01UDVERGTKmDnqU3uiz6dPniL5ZLLC7WxtbdGiTQt1D0NEBtb6zdZo/npzXD5/GQAwYNgAuLq5GrgqIiIyReaQOTkPc3Dj+g2F2938+6ZK+1W7qU+7kYbQfqEKt6tVuxb2/rlX3cMQkQgMjxiOSaGTYGdvV+4qChERkTaZeuYkn0zGpNBJWt8v3yhLRAr59/THp199iiZNm6CmR01Dl0NERCaMmaMei/MZ50tUGbB36148efJE6e3tq9qjZ/+eijckIiIiIjJxd/7vDk4dPaXSmNfavgYfX59Kt1G5qSciIiIiInHh7DdEREREREaOTT0RERERkZFjU09EREREZOTY1BMRERERGTk29URERERERo5NPRERERGRkWNTT0RERERk5P4fltTc9N2s7K8AAAAASUVORK5CYII=;" parent="1" vertex="1">
          <mxGeometry x="2930" y="820" width="224.3" height="40" as="geometry" />
        </mxCell>
        <mxCell id="K2KhxqsfXJvNr6pBZJx8-10" value="&lt;div&gt;Normality assumption not necessary due to CLT.&lt;/div&gt;&lt;div&gt;Then this holds only asymptotically, if data normal,&lt;/div&gt;&lt;div&gt;holds all the time. Assumes variance known.&lt;/div&gt;&lt;div&gt;&lt;br&gt;&lt;/div&gt;&lt;div&gt;Otherwise empirical variance estimate can be used, &lt;br&gt;&lt;/div&gt;&lt;div&gt;in which case the quantiles of the corresponding &lt;br&gt;&lt;/div&gt;&lt;div&gt;\(t_{n-1; 1- \alpha/2}\) distribution has two be used&lt;/div&gt;&lt;div&gt;&lt;br&gt;&lt;/div&gt;&lt;div&gt;The higher the n the closer the t dist to to normal. &lt;br&gt;&lt;/div&gt;" style="text;html=1;align=center;verticalAlign=middle;resizable=0;points=[];autosize=1;strokeColor=none;" parent="1" vertex="1">
          <mxGeometry x="3225" y="667.5" width="290" height="130" as="geometry" />
        </mxCell>
        <mxCell id="K2KhxqsfXJvNr6pBZJx8-11" value="" style="shape=image;verticalLabelPosition=bottom;labelBackgroundColor=#ffffff;verticalAlign=top;aspect=fixed;imageAspect=0;image=data:image/png,iVBORw0KGgoAAAANSUhEUgAAA/UAAACFCAYAAAAacdilAAAABHNCSVQICAgIfAhkiAAAABl0RVh0U29mdHdhcmUAZ25vbWUtc2NyZWVuc2hvdO8Dvz4AAAAqdEVYdENyZWF0aW9uIFRpbWUAU28gMjcgSnVuIDIwMjEgMTc6MDg6MDEgQ0VTVEJHVu0AACAASURBVHic7d15WFRl/wbwewaGfUcQBQUXTFzL17TMrFzeVMoMzRQVRVFTBM0Wc8vWN99WTUtT0azcczczlwwXNHHNLVMUBQUUlH2ZYWZ+f/BzcF62GWY5c2buz3VxxTmc5auX8dzPM+c8j+R0xmk1iIiIiIiIiEh0pEIXQERERERERET1w049ERERERERkUixU09EREREREQkUuzUExEREREREYkUO/VEREREREREIsVOPREREREREZFIsVNPREREREREJFLs1BMRERERERGJlL0xLjKszzDcunlL5+P9AvywKXGTMW5NREREREREZDESf0vEnPg5ep0TPyseg6MG1+t+RunUFxUVoSC/QOfjXVxdjHFbIiIiIiIiIotSXl6uV/8YAORl8nrfzyid+gdc3VzRrlO7Oo/z8vEy5m2JiMjCZWdlQ61W48DuAygqLNL62SPtHkFo61A4uTjB3cNdoAqJiIhIbCw1X3g38EbXHl3rPK4wvxAXzlww+H5G7dQHtwjGkvVLjHlJIiISKZVShbt37mLJZ0uwbd02qNXqWo9v2rwpOnXthCGjhyA0LBT2MqM2UURERGQFxJAvOnXtpFO/+Nypc4gKjzL4fpwoj4iIjE6lVGHjDxvRt1NfbF27tc4GFwBuXruJrWu3IvL5SPyw+AczVElERERiwnxRPX4MQkRERpWRnoHXXn0NN6/d1Nrfqm0r9OjdQ2vfkQNHcOmvS1Wu8WjXR01aIxEREYkL80XN2KknIiKjSb+RjsmRkzUNrr3MHhHDIxA3Iw4Ojg5wcHTQOn7c6+OgUCiwaN4ibFm9BWWlZfAL8IOfv58Q5RMREZEFYr6oHTv1RERkFOmp6YgbGYcb124AAJxdnPH+/PfR58U+NZ7zoCGe/tF0dO3eFbPjZ6NJSBM0adbEXGUTERGRBWO+qBs79UREZBQbf9iI1KupAABXd1fM+XROrQ3u/3q277N4f/77nAGfiIiINJgv6sZOPRERGSw7KxubV2/WbE+ZNQXPD3xe7+v06t/LmGURERGRiDFf6Iaz3xMRkcFWL1uNwvxCAICjkyNahrUUuCIiIiISO+YL3bBTT0REBlv17SrN9x3+1QGPdXlMwGqIiIjIGjBf6IadeiIiIiIiIiKRYqeeiIiMKiM9A+k30oUug4iIiKwI80XN2KknIiKjSr+Rjl2bdgldBhEREVkR5ouasVNPRERGt23dNiTuSRS6DCIiIrIizBfVY6eeiIgMFhkTqbV9O+023op5C1HhUUj6IwmpKanCFEZERESixXyhG65TT0REBhsxYQS2rtuKooIizT6FQoFzp84hdlgsAgID0CSkCVq0boHwQeEIaRECNw83ASsmIiIiS8d8oRt+Uk9ERAYLCAxAZEwk7GXVjxVn3spE8pFkrEtYh5H9RyJuRBz27tirWXuWiIiI6H8xX+iGn9QTEZFRTHp7EgBgxcIVUJYraz32TPIZnEk+g8efehwLf1oIRydHc5RIREREIsN8UTd+Uk9EREYz6e1JeP+r9xHSIgQSiaTO45OPJGPiqxPrbKSJiIjIdjFf1I6deiIiMqrwweHYcngLEv9OxJj4MRgTPwZSac3NzenjpzH/w/lmrJCIiIjEhvmiZuzUExGRSbh7uCNuRhziZsQh8VIilqxfgsFRg+Hr51vl2A3fb8D9nPsCVElERERiwnxRFTv1RERkcm4ebujaoytm/XcW1u1dh2Exw7R+LpfLseLrFQJVR0RERGLEfFGBnXoiIjKrBg0bIDImEr7+2iPq+Xn5AlVEREREYmfL+YKdeiIiMrug4CB06d5F6DKIiIjIithqvmCnnoiIBNE/or/QJRAREZGVscV8IYp16jf9tAkXzlww6Bpe3l6InxVvpIqIiMhQQSFBWttOzk4CVUK2ivmCiMj62GK+EEWnPvlIMn7b+ptB12jcpDEbXSIiC7L0y6Va2+OnjReoErJVzBdERNbHFvMFH78nIiLBtX20LZxdnIUug4iIiKyIreQLUXxS3+eFPmjWsplB13D3cDdSNUREdO7UObTv1L7e56dcTsG+Hfs02491eQwuri7GKI1IZ8wXRESWhfmifkTRqe8V3gu9wnsJXQYREQE4k3wG8SPiMTp2NMbEj9H7/Ps59/Hp7E+hUCgAAC1bt0R0XLSxyySqE/MFEZHlYL6oPz5+T0REerl66SoK8guw5PMlWLlwpV7n3su+hxmTZuD44eMAAKmdFNFx0fBp4GOKUomIiEgkmC/qj516IiLSmUKhwJrlazTff/PpN5gwZAIunr0IZbmy1nP/ufAPZkycgT8P/gkAkMlkiH071iaXniEiIqJKzBeGEcXj90REZBny7+fj1o1bmm1luRLHDx3H8L7D8czzzyCsfRjCB4drnXP0j6M4fvg4Du45CLlcDqCiwR3/xvh6PV5HRERE1oX5wjDs1BMRkc58/X3xyZJPsHz+clz665LWzxJ/S0Tib4lY8vmSWq/Rqm0rjH99PN9lJiIiIgDMF4ay6E59akoq/jrxF9RqtWZfx84dEdIyxKDrlhSXYM/2PVr7WrVphbAOYQZdl4jIFvTs1xMdO3fE6qWrsXKRfu+8RU2MwojxI+AX4Gei6ojqxnxBRGR5mC/qz6I79SEtQhA9IBq593I1+xoFNcLOP3dCKq3/dAALPlqA9SvXa7Zbtm6JpT8vNahWIiJb4uvni/hZ8YifFY+kA0lIPpKMfy7+g6QDSVWO7dS1Ezp07oDx08bbxFqxZPmYL4iILBPzRf1YdKceAOJnxuODNz/QbGekZ2D6hOn4bNln9breLz//otXghrYJxZL1S+Dt621wrUREtqjbc93Q7bluAKD1yefDJBKJOUsiqhPzBRGRZWO+0J3Fz37/4pAXERQSpLXv4N6DVd610MXWNVvx3rT3NNuhbULx3YbvbGapAyIiU5NIJNV+EVka5gsiIvFgvqidxXfq7WX2mDlvJjy9PTX75GVyfP/N9zWO2FRn00+bMG/WPJQrygEAoWEVDS5H0ImIiGwP8wUREVkLi+/UA8CTzzyJ7j27a+3bs30Prl+5rtP5P//4M76Y+wXKSssAAFI7KUZPHs0Gl4iIyIbZQr5ITUnFvex7QpdBREQmJIpOPQAMHz8cbh5uWvsSFiRAWa6s9bzNqzfji7lfoKS4BEDF2oWTp09G/4j+JqvVWl256IzP3w3UfJ1JdhW6JCIiIoNYc75QKVUY2nsoZk+eLXQptWK+ICIyjGg69WEdwvB076e19u3avAtpqWk1npO4JxH/nflflJaUAqhocMe/MR7RcdEmrdVa/XXKBauX+WH1Mj+sW9kAt9MchC6JiIjIINacL3Lv56KstAyZtzOFLqVWzBdERIYRTaceAKInR8PBQfsX/bKvlkGlVFU5trSkFCsXrYRcLgdQ8e7ca2++hpgpMWap1Rr9sNhf871/gAL9I+4LWA0REZFxWGu+eDA3gD5zBAiB+YKIyDCi6tSHhoWiZ3hPrX27Nu/CzdSbWvvkZXKMf2U8ziafBVAxW2Ls9FiMiR9jtlqtjVpd8fWAAcv4EhERWRTmC+EwXxARGU50vzrjZ8ZX2bfw44Wa74sKihAzKAbnTp7T7Hvz/TcxOna0OcqzWlvX+CLtuqNmO25GhoDVEBERGRfzhTCYL4iIDCe6Tn3Dxg0x94u5WvsO7juIC2cuIO9+HuJHxms1uNM/no6hY4eau0wiIiISEeYLIiISK3uhC9CXVCpFv4h++PG7H3Htn2sAgHJFOT579zPIZDKc+vOU5tiBkQMxZNQQSPksl97OJrsi81bl+4XnT7to//yky/+eAgDo/UIu7Owt+909IiJrlXo1Fds3bNdsNw1pioGRAwWsSDyYL8yD+YKIyPhE16kHAEcnR4yaNArvvf6eZvKXB++3PdCkWRNMmDYBUjs2uPWxNsEPv23zqvnny/2wdnnV/Uf65MGFjS4RkSDSUtOwcuFKzXbXHl3ZqdcD84XpMV8QERmfaFukAa8OQKOgRtX+LLh5MJasX4KAwAAzV0VERERixnxBRERiI8pP6h8YN3UcPnz7Q60lZ0JahGDh6oVo3KSxgJWJW7lCgnvZ9mjavAwAkJ9rh9x7lf9U/AIUcHapusxPi1alcHTkKDoREYkb84VpMF8QEZmGqDv1nj6esLe3h1wp1+yLmhiFoOAgAasSP3uZGkt/vqrZXvWtP+Z/WBli3vvqJro9WyBEaUREVIuQFiGIfSdWs80OaP0wX5gG8wURkWmItlOvVqvx1ri3oCxXau1f+uVSDIwcCIlEIlBl1ufwfg/N90EhZQj+/xF2Ikv362ZvBDaVo0PnIqFLITKLJs2aIGZKjNBliBrzhfkwX5BYMV+QpRHlO/UKhQITXplQpcEFgMzbmdjw/QYBqrJeJ4+6ab5vFKhAYFN5LUcTWYbsLBnmTGmKret8hC6FiESC+cK8mC9IjJgvyBKJrlNfVFiEqVFTkXwkWbOvfaf2Wscs+XyJucsiIguzY6M3lOUS9I+4L3Qptfpj9x+YPXk2vv7P18i7nyd0OUQ2i/mCiHTBfEGWSFSP3xfkF2BW7Cwk/ZGk2Rf7TiyGRg/FuEHj8Pf5vwEA+bn5WLdiHYaOGSpYnfIy84w2u7q5wsnZyWTXX/WtP9QPzU0zenKWye4lFjNjgyEvleLzhOtWfU+x27bWF4FN5fjXk4W1Hvf7r55YubCh1lrJLR4pRd+X76PvwPsICjbd/8u/bPoFsyfP1mwf2nsIa/eshb3MeL+aS0tKUVbKR1plDjK4uFa//jWRpecLlVKF3Pu5mmX2dHUv+x4AQKlUIudujt73tZfZw9PLU+/zdMF8URXzhTgwX1QoKS4xW3/Hkjk4OsDZxVnoMsTTqc/LzcPcqXNxaN8hzb5Jb09CdGw07OztEDUxCjNjZwIAVCoVEr5OQJfuXdC8VXOz1jmszzBN428uY+LHIG5GnEmunZ9np7Xt4Vn1kURbcPKoG1IuO2HhJ41QVGCHnv1MP+IpxD2txenjrrhxzRGTpmegptdfszJkeH1Uc/xzyQnKcu2DUi474Zt5jbB8fkMMGZWDae/dMkmdW9ds1dq++vdVnD9zHo8+/qjR7rH4s8X4YfEPRrueWPXs1xNfrPhC6DLIAll6vkhNScXQ3kMNGpxLu56G3h161+vc0Dah2LDf+K8dMF9UYL4QF+aLSvNmzsP29duNdj2xihgegTmfzxG6DHF06vPz8jF36lwk/pYIAJDaSTFm8hjETI3RTFjTvXd3tHusHc6fPg8AyM7KxvIFy/HB/A+MOipVl0e7PgqlSgmFXGGW+7m6uaLFIy1Mcm2VUoLsLJlm28NTWe1SM9YoO0uGkeGhmu38XHsUF5n2bRUh7mmttq31hVQKvDjkXrU/z7wtw7TRzXHpXMXIattHi9GkWUVgTk911Iyql5VKsSahAQCYpOF1dXOtus+16j5DePl4ccZuAL7+vkKXQBZIDPnCw9MDj3V9DFm3s/T+pF6pVCLtehpkMhkCgwP1vrdMJkOnrp30Pq8uzBfMF2LFfFHJp4EP8wUq/h4sgcV36osKijAnbg4O7j0IAJpR84eX7AEAdw93DIsZhlmxszT7ft38K2KmxJj10/rpH003271MrbhIiu3rK/+hPv5UIVo8UipgReajVAGZtxw02y0eKUVZqRTpNxxqOUt897RGxUVS7NnuhSd6FCCgcfWDazs3+uDSOWe4uisx4z+30L1XPjy9ywEAebl2yLrlgKVfNcT+X7ygLJdg9TI/hISWImK4/o+v1mbc6+OQfCQZxUXFAIC+L/dFaJvQOs7ST/TkaERPjjbqNYmsgVjyhU8DHyxet7he5+bczUHvDr0RGByILYe2GLmy+mO+YL4QI+YLbVNmT8GU2VOMek2qP4vv1L894W0kHah8x61ps6aInxlf7bFP9XxKazQdAJbNX4aPF34MqR1HJEl33r7lWLapci3d4OZlWP99AyQsaGhV97RGe7Z7oaRYipeGVd9AlpVKsfH7itHxqbMzED5Ye7Td00sJT68SzP0yDVm3HXD+tAtUKmDF1w0xcFgOpEb8VdL20bbYdHATjv1xDP6N/PHks08a7+JEVCvmCxIC84V4MV+QJbPolujk0ZM4efSkZtsvwA9fJNT8TqSnlyeGjtWevGb3lt24ef2myWq0Zkd+99DafqpnvkCVmJ+DgxqduxVqvvwCTP86hRD3tEZb1/rC00uJZ/tW/47g3Sx73MuxR2ibEvTsn1vjddw9lBgWc1ezfeumA0qK7Go8vr4CGgdgYORAdHuuG9e/JjIT5gthMV8wX4gR8wVZMovt1J88ehLjBo3TTAzTKKgRlm1ahmahzWo975k+zyCsfZjWvgUfLzBZndbsxFHtd2/qmuWTSGipKY44m+yK/oPvwcGh+ndPg4LlaNayDENG5cCnQXmt12vVpkTrOieS3Go5mojEgPlCeMwXJDbMF2TpLLJTfyzxGCYNm6SZECawaSC+WfMNgpsH13mum4cbIsdFau07vP8w1q1YZ5JarVVRoRTX/qlcKi+kZSncPPSfmValqvx6QK0Gzp1ywcG9HpovlZIjiGS4bWsrJkN7aWj1E9g88Omy63iuX82j6A+0bF2KnuF1H0dE4sB8ITzmCxIj5guydBb3Tv3h/YfxzsR3NOseBgUHYcEPC+ocQX/Yvwf8GysXrcS1f64BAMoV5djw/Qb0Du+NBg0bmKRua5N33x6njlWOGj7WtajOUcf/dTvNAeFd2mi2D1w4j307vZCwoCEyb8uqHD9vSSqef8n6fsEd+d0DP37nBwBoEizHrE/TBK7IvIoKpTi8zxPXrjjiXrY9GgUq0DKsBE89VwA7e/1mcq6NslyCHRu9Eda+BI+0Lan12JAWui0NlXPXHimXneo+kIgsHvOFZWC+MB7mC+YLogcs6pP6xD2JmBU7C0UFRZp9X678Uu/ZZR0cHTBq0ihIH5px4vqV69i7Y6/RaqUKadcdceOao07HfjIjCJ/MCKq2wQWA2XHBuJtZ/c/E7G6mDH8edMefB91x7pSL0OWYzf0ce3z8dhP0bNcOiz8LgFoNPNKuBHcyZXhrXAhe6NoGSX+4G+1+h/d7IOeOrMYJbOoj544MVy46a7YbBcmNdm0iU1CpVJDL5ZqvcoV+nSVrxXwhPswXdWO+YL4gesBiPqlP3JOIuVPmIj+vcrKUkRNGollL3UfQHzbg1QFY+uVS3LpZufbj2hVr0X9Qf3h6expcr605st8DdzJl8P//yVXSbzhg+zpf/LLJG73CczFt7u0q56xcqD2r6p7tXni6dz6i47I0S4Hs2+mFL99vDAAoV0iw/xcvDB17t8q1SFwO7fPArNhglJVJ8PqcDLw65i4enqNlYGQORr0QiviRzfHliuvo0Ud7kqTvv/GHs4sKr0Zn63zPret84OCgRr+I+8b6Y+Cfhxrc0LBStAyrfYSe9FdWWoY92/eY/D6Nghqhc7fOJr+P0I78fgTxIytncO/aoyuWrF8iYEXCY76wbMwXpA/mC9JVfl4+En9LNPl9gpsHo0PnDia/T10solN/aN8hvBv/rqbBlUqlGBw1GNPem2bQdWOmxuDDtz6ESlnxwlXa9TTs2rQLw2KGGVyzrbmTKcP705rAxbXi7/L8KdcaR8QfKMjXnslzdOwdTHw7Q2tikIgR2ZpGF6hYA9TatH2sSBNKvH2t/1OzLat98dHbTQCJGl8mpOKZ56vOEtu6XQlGvnYXCQsa4oM3mmJb0kW4ulX821KrgfUrG2D2p+k63zPnrj0O7fNAnxdz4eGp/7uZ1bl41gXzZgUCAOzs1RgTl2XU5WYISDqQhE/nfIobKTdMfq+e/XraRKeetDFfWD7mi/pjvmC+oOolHUjCvJnzkJZq+ldSIoZHsFMPAHK5HPNmztNqcCNGRGDGJzMMvvbAYQOx7KtluJ1WOcq7YtEKDIoaBAcHB4Ovb82k0oolUOTyyuHPpAMeVY5zdFKhV/+qv1RLS6TIy61sdP89IBex0zNgL6v9HScvK2yUQsNKERpWKnQZZpH0hzs+mh4ElQqImXKn2gb3gf4R95GwoCFy7tpj50Yfzaj5qWNukJdJ8USPAp3vu3OjD5TlEgysYwIbXeXn2WHZ/IYoKrCDTKbGxLcz0Pdl443QE6AsV+Lj6R/jdtpt9OzfEw0bm3a95FZtWpn0+mR5mC8sE/OF8TBfVI/5wraZO1907NzRpNfXleCd+g+mfaDVKA4aOQgz58002vUnvDEBc6fO1WxnZ2Vj84+bq6w3S9oCAuX473epeD26+scTPTyViI7LQqeuRejQuajKz1NTHHEssfJ9prHxWXU2uADQvZftrFVrbYoK7PBufDBUSgm8fMoxOvZOrcc3b1UKmUwNhUKCg3s9NI3utnU+eHHIPb0mudm61gcBgXI83l33hromRQV2mBMXjIN7PeDgoMaENzIRPbn2Pwvpb9fmXbiddhuhbUJrXR+cqL6YLywT8wXpi/mC9GGr+ULwTv1Hiz7CR4s+Mtn1B7w6AANeHWCy61uzZ/vmYcvhS0hPrZyoxtO7HO07Fet9rZat6z+SvHFVA5w86galcZ560mgUqMDUObchtTPeDKmWxNx/bwkL/ZFzt+JXyiujsuHqXveNfRqUIytDhutXKmaATbvuiAO7PbH18CWd6/nrhCtSrzphwhuZBj++Ji+T4u0JwUg64AF7mRqvvZmJ6Lgswy5KVahUKqz4egUAYNzUcQJXY12e7v00NuzfgCG9hgCw7ScUmC8sF/OFuDFf6I/5wjxsOV8I3qknyxbSokzn5Tkednh/5aN03Z7Lh0RafcP28HFtOhbDrZpf1CePueLIAXejrzXbsLEck6ZL4ORsnY2uOf/eVEoJtq/30Wz/e4BuSwf5+CmQlSFDdlbF+5PffBqAV6Jy4Oun+2OSW9b6QCIBBrxq2KNxajUweXhzJB+pWGpp8jsZGDWJI+imsG/nPqSmpCKkZQh6hfcSuhyrc/Gvi5rv+7zYR8BKiGrGfCFezBf6Yb4wH1vOF+zUk0mcOlq5Bm2nrkVaM5NqHffQWrWhYaWaiXIeNm+x6SfRskbm/Hu7cMYFOXcqGs6AQLnOn5w8aFwVCgkSf/PE2eNumDnvb53vW1IsxZ5t3ni8ewEaN6n/cjBJBzywcpE/TiS5oVXbEoyadAf9jTjLLWlbvmA5AGBs/FitpcHIOC79VfFJVEBgANo91k7gakhI9vb2Wv+1BswXwmO+0B3zhXnZcr6wnt/yZDHuZMo0M9fKZGqEdah+mY7iIilSLjtpttt1qvruHIlD+o3KiaHadtR9WZaHQ9bc15tg/qrres0uu3eHF4qLpHh5WP1H0fds98LsycFQKCRo1bYE321IgZeP9U2oZCkS9yTiysUrCGwaiH4v9xO6HKt08WzFJ/V9XugDSU09HrIJnt6eCAoOQttH2wpdilEwX9ge5gvSla3nC3bqyehSrzhp3mFydFah23PVT06Tn2uPkw+NuPfsV/NMpmTZHp7FOCRU9/cbHRwrG91RE+/i0cf1C17b1vrC3UOJntXMkKyL3Vu88cGbTaBQSBAaVsoG1wwSFiQAAKLjomFnb1fH0aQvZbkSly9cBsBH76nCjmM7hC7BaJgvbA/zBenK1vOFbT2XQEQm8fDjcK5uuo+EOzpWvjf34hD9RsNvXHPEqT9d0S/ivlbjratdm73x0fQglBRL0bpdCRavY4Nran8e/BPnTp2Df4A/JxgzkZTLKZCXyRHQOADtOvHReyISN+YL0gXzBT+pJxPYvNpX8/3LkTm1HFc58UnvF3LhrsdjUWKSl2uHrFsVj485OqsQ3Fz/iYEsXYtHSuHopEJZqRS303Rbozn1qhNOJFV+klJYYIcGDRU633Pbuop/PwPr8Wjcr5u98Z93gqAsl2Dae7fw/Eu58PXX/d5UPw/edRs1aRRkMpnA1VinFo+0wKHLh2Bnb8dH78nqMF9oY76oHvOF7WG+YKeeTODm9cpfuk2b1Ty5SNpDS9k0ClRApsM6s+aUlSGD4qHHvvJzKx/lKSmWar3nZWcHNAqq/s96YJcX3n+jCQDgkbYlWLfvssnvaW5Oziq89mYmFnzUGMmH3VGukNS4brBKKcHWdT74+qPG6N4rHzeuVfw7uJNpj5CWFcfs2OCDx58qREBg9X8+lVKCHRt8EBpWirAO+i2BdCdThg/faoKSYincPZT464Qr/jrhqtO50ZPvoE1H/ZdcIuBM8hmcSDoBb19vRIyIELocq2Vnbwc3D7e6DyQSIeYLbcwX2pgvbBPzRQV26smoVCpoljiRSlHjY0sqpUSrcXFy1v/xJlN7fXQzXPrLpdqfJf3hjhefaKPZ9vVXYN/ZC6K8p7GMnHAXRxPdcfyQOz57NxBvvH8LDg6VDe+9bHsc2O2JVd/6w8+/HCu2XUHzVqW4ftURF8+64OJZF3TpXoizya74ZEYQNh+seZbaIwfckZ0lQ3Ss/kvCFBfaoaS44s2jgnw77NvppfO5Lwy+D3TU+5YEYPn8ilH0ka+NhJOzUx1HExFpY74Q3z2NhfmCasN8UYGdejKqu1kyXL7gDKBilLemtT2v/u2E/b9U/rIbPy3TLPXpQ58nV431lKsQ9zQWO3s1Fq9LwfoVflj8WQAO7PZEWPuKmWoz0h2QdVuGrj0K8P78m3isS+WENZ98ewOxw5sj4euGOJPsivOnXPHhwhs1jqIDwNY1vpDJ1Og/iMvCiMGlc5dw5PcjcPdwx5DRQ4Quh4hEiPlCfPc0FuYLqgnzRSV26smoGjZS4HTGmTqPa9W2RKfjhLR69z9Guc7AyBxk3JJh6ZcBaN2+9uVYjHVPoUilwLCYuxg69i5upzng6iVnSO3U8AtQoFVYKaR2VR+Za9q8DFsO/o0TSW5QqYEPv74Jd4+a33+8n2OPg/s88FzfvHpNPBPSstTi/+1ZfH/uUQAACdBJREFUm4T5FTPSRo6LhKubbo8iEhE9jPmiKuYL5gtbx3xRiZ16IjM4+//vVPUfVP/1TsVEIgECm8oR2FS3d/LsZWo88UyBTsfu/Nkb5QpJvSawIfO79s81/P7r73BxdcGwmGFCl0NEZFWYL2rHfGG9mC+0sVNPZGIqpQTnT7nCP0CBzt0KhS5H9Lat9YV/gAJP9NCtkSZhJSxIgFqtxpDRQ+Dp5VmvaxzcexBqdcWnMN4+3ujQuQOAijXZD/9+GBdOX8DxI8c1x/v4+mDI6CF44pknDP8DEBFZKOYL42K+EBfmC23s1BOZ2JW/nVBUKMUro7IhlQpdjbidO+WClMtOiJmSVe2jdmRZ0lPTsXvbbjg6OWLEhBH1vs7UUVM1je7jTz2Or77/Cof3H0bC1wm4cvFKtecc3n8Y46aNw7ip4+p9XyIiS8Z8YTzMF+LCfFEVO/VEJqZWA9FxWXiZj3MZbNvaijWKa5ogiSzLikUroFKqEBEdAV8/37pP0EFRYRH+M/0/2LV5V63HKRQKLPl8CZ59/lmEhoUa5d5ERJaE+cJ4mC/EhfmiKnbqiUysdbsStG5X+wQ2VLfSEil2b/PCv54sRJNmZUKXQ3XIysjCzg07IZPJMGrSqHpfZ9fmXZpRdAC4ePYiLp69CF9/X4QPCtc8KgcAPyz+AX+f+xvysop3LVVKFQry+RglEVkn5gvjYL4QF+aL6rFTT0SisG+nF4oK7PByJEfRxWDVt6ugUCgQMTwCDRs1rPd1Ui6nVNkX0iIEC1cvRFBwkNb+Xv17YcIrE3D88PEq5xAREVWH+UJcmC+qxzdwiEgUtq3zgau7Er3Cc4UuhepwL/seNv+0GVI7KaInR9f7OvIyOZKPJGvtCwoJwqI1i6o0uA+Mnza+3vcjIiLbw3whHswXNeMn9UQkCs1CS/HM83lwclYJXQrV4afvfkJZaRnCB4cjKKT6xlEX8jI5zp08p7VvwJABCGwaaGiJREREAJgvxIT5ombs1BORKMycly50CaSD/Lx8bPh+AyQSCcbGjzXqtZ/59zNGvyYREdk25gtxYL6oHR+/JyKycfdz7hvtWmuXr0VRYRF6hfdCs9BmBl1r5TcrtbbbdGwDqV3tzdbKRZXnOLs4o92j7QyqgYiIiOqH+cJ82KknIrJRCoUCn737GXp36I3jhwyf/KWosAhrlq0BAIydYviId35uvtZ234F96z4nr/IciUQCB0cHg+sgIiIi3TFfmB879URENuh22m2MeWkM1ixbA5VKhaVfLTX4mhtXbUR+Xj6e7v00WrdrbdC15HI57mdXjvB7+3rDwan2BjQ/Lx8lRZXLO/k38jeoBiIiItIP84Uw2KknIrIxiXsSMazPMFz9+6pm38mjJ3Hx7MV6X7OstAw/ffcTACBmSozBNWZnZWP/rv2a7Wf7PouAxgG1nnMi6YTWn2nomKEG10FERES6Yb4QDjv1REQ2QqVSYf6H8zE7bjbe/eJdTJ4xWevnPyz5od7X3rJ6C3Lu5qDL013QoXMHQ0slIiIikWC+EB479URENmL/L/tx7tQ5rN2zFr3Ce+HlyJfh7uGu+fneHXuRkZ6h93UVCgVWfbsKgHFG0QHgyO9HtLaf6vlU3efsrzzH3cOdjT8REZEZMF8Ij516IiIb0efFPkjYkoCg4Iq1XV1cXTB41GDNz1VKlWYiGn3s3LATmbcz0aFzBzz+1ONGqfXk0ZNa2527ddbrHFc3V4S1DzNKLURERFQz5gvhsVNPRGTDIsdGQiaTabY3r96MgvwCnc9XKVVYsWgFAGD86+ONUlPuvVykpaZptlu1bQUHh9onsUlNSUVhQaFmu10ny1pqhoiIyJYwX5gXO/VERDasQcMG6D+ov2a7uKgYm37cpPP5u7ftRnpqOsLah+n0CJsuMm5laE2q8+QzT8LZxbnWc84cP4Ocuzma7Z79ehqlFiIiItIf84V5sVNPRGTjoiZGQSKRaLbXLl+LckV5neep1Wqs+LpiFH3sVMPXjSUiIiLrwXxhPuzUExHZuOatmmuNgt/JvIPftv1W53kHdh9AyuUUNG/V3Kgj15t/2qy1HTE8os5ztqzZovk+KDgIXbp3MVo9REREpD/mC/Nhp56IiDBq0iit7VWLV9V5zvL5ywFUzEj78Ei8oR5+3w0AmjRrUvc51yvPcXZ1hq+/r9HqISIiovphvjAPduqJiAidu3VGWIfK2VyvXLyCY4nHajw+6UASLv11CUEhQXj+peeNVodarYayXKnZdnRyrPMceZkcKpVKs+3k5GS0eoiIiKj+mC/Mg516IiICUHU0/cclP9Z47LKvlgEAxsaNhdTOeE1Jfl4+TiSd0GxPmDahzlH69SvXI+9+XuU5b0wwWj1ERERkGOYL05OczjitNvQiA7oNQNr1NLTp2Aard682Rl1ERGRmKqUKLz75Im6n3dbs2/D7BoSGhWodd/LoScRExCCgcQB2HNsBe5m9uUslIiIikWC+qNm5U+cQFR4FAHjrg7cQOS6yXtfhJ/VERAQAkNpJMWL8CK191Y2mL5tfMYo+KnaUTTS4REREVH/MF6bHTj0REWkMjBwID08PzfbuLbtxN/OuZvv86fP48+Cf8PXz1WnWWCIiIiLmC9Nip56IiDScXZzxyuhXNNsKhQJrV6zVbC9fUDEjbdTEKDg4Opi9PiIiIhIf5gvTYqeeiIi0DBszDA4OlQ3qz6t+RnFRMa5cvIKDew7C08sTg6MGC1ghERERiQ3zhemwU09ERFp8/X0R/kq4ZrsgvwBb12xFwtcJUKvVGD5+OFxcXQSskIiIiMSG+cJ02KknIqIqol6L0lrqZcXCFdi7Yy9c3V0xdOxQASsjIiIisWK+MA126omIqIqQliHo0aeHZjvnbg5UKhWGjhkKdw93ASsjIiIisWK+MA126omIqFpRE6O0tp2cnTB83HCBqiEiIiJrwHxhfEZdALC4sBgnj56s8zgHBwe0/1d7Y96aiIiMrNMTndDusXY4f/o8AGDwyMHw9vUWuCoiIiISM1vIF7n3cpFyOaXO4679c80o9zNqpz41JRUxETF1HtewUUPsPrXbmLcmIiITGB07Gm/GvAknZ6cqI+tERERE9WHt+eLk0ZN4M+ZNs93PqJ16IiKyLr3Ce+H1d19Hqzat4BfgJ3Q5REREZAWYL4xLcjrjtNrQi+zeshuFhYU6H+/s4ozwQeF1H0hEREREREQkIuk30nHs4DG9zunYuSNCw0LrdT+jdOqJiIiIiIiIyPw4+z0RERERERGRSLFTT0RERERERCRS7NQTERERERERiRQ79UREREREREQixU49ERERERERkUixU09EREREREQkUv8H/vbN7p8k3rEAAAAASUVORK5CYII=;" parent="1" vertex="1">
          <mxGeometry x="3225" y="820" width="304.66" height="40" as="geometry" />
        </mxCell>
        <mxCell id="K2KhxqsfXJvNr6pBZJx8-12" value="*normalized mean" style="text;html=1;align=center;verticalAlign=middle;resizable=0;points=[];autosize=1;strokeColor=none;" parent="1" vertex="1">
          <mxGeometry x="2765" y="700" width="110" height="20" as="geometry" />
        </mxCell>
      </root>
    </mxGraphModel>
  </diagram>
  <diagram id="Ek0R0ZTpNEP_K-Zgk053" name="Page-2">
    <mxGraphModel dx="1634" dy="761" grid="1" gridSize="6" guides="1" tooltips="1" connect="1" arrows="1" fold="1" page="1" pageScale="1" pageWidth="1169" pageHeight="827" math="1" shadow="0">
      <root>
        <mxCell id="Qhq4K7eTOYyHZder4-QG-0" />
        <mxCell id="Qhq4K7eTOYyHZder4-QG-1" parent="Qhq4K7eTOYyHZder4-QG-0" />
        <mxCell id="qleRqY6DS_X-xovVCUTN-2" value="" style="edgeStyle=orthogonalEdgeStyle;rounded=0;orthogonalLoop=1;jettySize=auto;html=1;" parent="Qhq4K7eTOYyHZder4-QG-1" source="Qhq4K7eTOYyHZder4-QG-3" target="qleRqY6DS_X-xovVCUTN-1" edge="1">
          <mxGeometry relative="1" as="geometry" />
        </mxCell>
        <mxCell id="Qhq4K7eTOYyHZder4-QG-3" value="&lt;div style=&quot;font-size: 10px;&quot;&gt;&lt;font style=&quot;font-size: 10px;&quot;&gt;&lt;b style=&quot;font-size: 10px;&quot;&gt;Statistical tests:&lt;/b&gt;&lt;/font&gt;&lt;/div&gt;&lt;div style=&quot;font-size: 10px;&quot;&gt;&lt;font style=&quot;font-size: 10px;&quot;&gt;&lt;font style=&quot;font-size: 10px;&quot;&gt;distinguish sample and intervention effects&lt;/font&gt;&lt;br style=&quot;font-size: 10px;&quot;&gt;&lt;b style=&quot;font-size: 10px;&quot;&gt;&lt;/b&gt;&lt;/font&gt;&lt;/div&gt;" style="rounded=1;whiteSpace=wrap;html=1;fillColor=#dae8fc;strokeColor=#6c8ebf;strokeWidth=1;fontSize=10;" parent="Qhq4K7eTOYyHZder4-QG-1" vertex="1">
          <mxGeometry x="550" y="20" width="116" height="46" as="geometry" />
        </mxCell>
        <mxCell id="qleRqY6DS_X-xovVCUTN-1" value="&lt;font style=&quot;font-size: 10px&quot;&gt;Testing as decision procedure&lt;br&gt;&lt;/font&gt;" style="rounded=1;whiteSpace=wrap;html=1;strokeColor=#82b366;fillColor=#d5e8d4;" parent="Qhq4K7eTOYyHZder4-QG-1" vertex="1">
          <mxGeometry x="264" y="72" width="120" height="30" as="geometry" />
        </mxCell>
        <mxCell id="TsTaMyO-MAX1NemS_Vrr-9" value="" style="shape=table;startSize=0;container=1;collapsible=0;childLayout=tableLayout;fontSize=10;align=left;" parent="Qhq4K7eTOYyHZder4-QG-1" vertex="1">
          <mxGeometry x="258" y="108" width="126" height="60" as="geometry" />
        </mxCell>
        <mxCell id="TsTaMyO-MAX1NemS_Vrr-10" value="" style="shape=partialRectangle;collapsible=0;dropTarget=0;pointerEvents=0;fillColor=none;top=0;left=0;bottom=0;right=0;points=[[0,0.5],[1,0.5]];portConstraint=eastwest;fontSize=10;align=center;" parent="TsTaMyO-MAX1NemS_Vrr-9" vertex="1">
          <mxGeometry width="126" height="20" as="geometry" />
        </mxCell>
        <mxCell id="TsTaMyO-MAX1NemS_Vrr-11" value="&lt;div align=&quot;left&quot;&gt;&lt;i style=&quot;font-size: 10px&quot;&gt;H&lt;sub style=&quot;font-size: 10px&quot;&gt;0&lt;/sub&gt;&lt;/i&gt;&lt;/div&gt;" style="shape=partialRectangle;html=1;whiteSpace=wrap;connectable=0;overflow=hidden;fillColor=none;top=0;left=0;bottom=0;right=0;fontSize=10;align=left;" parent="TsTaMyO-MAX1NemS_Vrr-10" vertex="1">
          <mxGeometry width="20" height="20" as="geometry" />
        </mxCell>
        <mxCell id="TsTaMyO-MAX1NemS_Vrr-12" value="True" style="shape=partialRectangle;html=1;whiteSpace=wrap;connectable=0;overflow=hidden;fillColor=none;top=0;left=0;bottom=0;right=0;fontSize=10;align=center;" parent="TsTaMyO-MAX1NemS_Vrr-10" vertex="1">
          <mxGeometry x="20" width="52" height="20" as="geometry" />
        </mxCell>
        <mxCell id="TsTaMyO-MAX1NemS_Vrr-13" value="False" style="shape=partialRectangle;html=1;whiteSpace=wrap;connectable=0;overflow=hidden;fillColor=none;top=0;left=0;bottom=0;right=0;fontSize=10;align=center;" parent="TsTaMyO-MAX1NemS_Vrr-10" vertex="1">
          <mxGeometry x="72" width="54" height="20" as="geometry" />
        </mxCell>
        <mxCell id="TsTaMyO-MAX1NemS_Vrr-14" value="" style="shape=partialRectangle;collapsible=0;dropTarget=0;pointerEvents=0;fillColor=none;top=0;left=0;bottom=0;right=0;points=[[0,0.5],[1,0.5]];portConstraint=eastwest;fontSize=10;align=center;" parent="TsTaMyO-MAX1NemS_Vrr-9" vertex="1">
          <mxGeometry y="20" width="126" height="20" as="geometry" />
        </mxCell>
        <mxCell id="TsTaMyO-MAX1NemS_Vrr-15" value="&lt;div align=&quot;left&quot;&gt;R&lt;/div&gt;" style="shape=partialRectangle;html=1;whiteSpace=wrap;connectable=0;overflow=hidden;fillColor=none;top=0;left=0;bottom=0;right=0;fontSize=10;align=left;" parent="TsTaMyO-MAX1NemS_Vrr-14" vertex="1">
          <mxGeometry width="20" height="20" as="geometry" />
        </mxCell>
        <mxCell id="TsTaMyO-MAX1NemS_Vrr-16" value="&lt;div style=&quot;font-size: 10px&quot;&gt;&lt;font color=&quot;#FF0000&quot;&gt;T1-FP; \( \alpha \)&lt;/font&gt;&lt;/div&gt;" style="shape=partialRectangle;html=1;whiteSpace=wrap;connectable=0;overflow=hidden;fillColor=none;top=0;left=0;bottom=0;right=0;fontSize=10;align=center;" parent="TsTaMyO-MAX1NemS_Vrr-14" vertex="1">
          <mxGeometry x="20" width="52" height="20" as="geometry" />
        </mxCell>
        <mxCell id="TsTaMyO-MAX1NemS_Vrr-17" value="&lt;div style=&quot;font-size: 10px&quot;&gt;&lt;font color=&quot;#66CC00&quot;&gt;\( 1-\beta \)&lt;/font&gt;&lt;/div&gt;" style="shape=partialRectangle;html=1;whiteSpace=wrap;connectable=0;overflow=hidden;fillColor=none;top=0;left=0;bottom=0;right=0;fontSize=10;align=center;" parent="TsTaMyO-MAX1NemS_Vrr-14" vertex="1">
          <mxGeometry x="72" width="54" height="20" as="geometry" />
        </mxCell>
        <mxCell id="TsTaMyO-MAX1NemS_Vrr-18" value="" style="shape=partialRectangle;collapsible=0;dropTarget=0;pointerEvents=0;fillColor=none;top=0;left=0;bottom=0;right=0;points=[[0,0.5],[1,0.5]];portConstraint=eastwest;fontSize=10;align=center;" parent="TsTaMyO-MAX1NemS_Vrr-9" vertex="1">
          <mxGeometry y="40" width="126" height="20" as="geometry" />
        </mxCell>
        <mxCell id="TsTaMyO-MAX1NemS_Vrr-19" value="A" style="shape=partialRectangle;html=1;whiteSpace=wrap;connectable=0;overflow=hidden;fillColor=none;top=0;left=0;bottom=0;right=0;fontSize=10;align=left;" parent="TsTaMyO-MAX1NemS_Vrr-18" vertex="1">
          <mxGeometry width="20" height="20" as="geometry" />
        </mxCell>
        <mxCell id="TsTaMyO-MAX1NemS_Vrr-20" value="&lt;div style=&quot;font-size: 10px&quot;&gt;&lt;font color=&quot;#66CC00&quot;&gt;\( 1-\alpha \)&lt;/font&gt;&lt;/div&gt;" style="shape=partialRectangle;html=1;whiteSpace=wrap;connectable=0;overflow=hidden;fillColor=none;top=0;left=0;bottom=0;right=0;fontSize=10;align=center;" parent="TsTaMyO-MAX1NemS_Vrr-18" vertex="1">
          <mxGeometry x="20" width="52" height="20" as="geometry" />
        </mxCell>
        <mxCell id="TsTaMyO-MAX1NemS_Vrr-21" value="&lt;div style=&quot;font-size: 10px&quot;&gt;&lt;font color=&quot;#FF0000&quot;&gt;T2-FN; \( \beta \)&lt;/font&gt;&lt;/div&gt;" style="shape=partialRectangle;html=1;whiteSpace=wrap;connectable=0;overflow=hidden;fillColor=none;top=0;left=0;bottom=0;right=0;fontSize=10;align=center;" parent="TsTaMyO-MAX1NemS_Vrr-18" vertex="1">
          <mxGeometry x="72" width="54" height="20" as="geometry" />
        </mxCell>
      </root>
    </mxGraphModel>
  </diagram>
</mxfile>
